Andika-Italic.ufo
<glyph name="ExclamationMrk" format="1">
  <advance width="744"/>
  <unicode hex="0021"/>
  <outline>
    <contour>
      <point x="497" y="431" type="line" name="hr00"/>
      <point x="574" y="715"/>
      <point x="653" y="1054"/>
      <point x="799" y="1480" type="curve"/>
      <point x="544" y="1480" type="line"/>
      <point x="475" y="1054"/>
      <point x="386" y="715"/>
      <point x="322" y="431" type="curve"/>
    </contour>
    <contour>
      <point x="188" y="90" type="curve" smooth="yes"/>
      <point x="188" y="28"/>
      <point x="238" y="-25"/>
      <point x="303" y="-25" type="curve" smooth="yes"/>
      <point x="387" y="-25"/>
      <point x="464" y="45"/>
      <point x="464" y="125" type="curve" smooth="yes"/>
      <point x="464" y="186"/>
      <point x="414" y="240"/>
      <point x="349" y="240" type="curve" smooth="yes"/>
      <point x="265" y="240"/>
      <point x="188" y="170"/>
    </contour>
  </outline>
</glyph>
<glyph name="QuotMrk" format="1">
  <advance width="1005"/>
  <unicode hex="0022"/>
  <outline>
    <contour>
      <point x="600" y="1024" type="line" name="hr00"/>
      <point x="639" y="1162"/>
      <point x="683" y="1312"/>
      <point x="772" y="1553" type="curve"/>
      <point x="567" y="1553" type="line"/>
      <point x="538" y="1312"/>
      <point x="505" y="1162"/>
      <point x="475" y="1024" type="curve"/>
    </contour>
    <contour>
      <point x="940" y="1024" type="line"/>
      <point x="979" y="1162"/>
      <point x="1023" y="1312"/>
      <point x="1112" y="1553" type="curve"/>
      <point x="907" y="1553" type="line"/>
      <point x="878" y="1312"/>
      <point x="845" y="1162"/>
      <point x="815" y="1024" type="curve"/>
    </contour>
  </outline>
</glyph>
<glyph name="NumSgn" format="1">
  <advance width="1180"/>
  <unicode hex="0023"/>
  <outline>
    <contour>
      <point x="739" y="1333" type="line" name="hr00"/>
      <point x="91" y="98" type="line"/>
      <point x="261" y="98" type="line"/>
      <point x="909" y="1333" type="line"/>
    </contour>
    <contour>
      <point x="80" y="465" type="line"/>
      <point x="1171" y="465" type="line"/>
      <point x="1208" y="612" type="line"/>
      <point x="117" y="612" type="line"/>
    </contour>
    <contour>
      <point x="234" y="843" type="line"/>
      <point x="1325" y="843" type="line"/>
      <point x="1361" y="990" type="line"/>
      <point x="270" y="990" type="line"/>
    </contour>
    <contour>
      <point x="1164" y="1333" type="line"/>
      <point x="516" y="98" type="line"/>
      <point x="686" y="98" type="line"/>
      <point x="1334" y="1333" type="line"/>
    </contour>
  </outline>
</glyph>
<glyph name="Apos" format="1">
  <advance width="585"/>
  <unicode hex="0027"/>
  <outline>
    <contour>
      <point x="560" y="1024" type="line" name="hr00"/>
      <point x="599" y="1162"/>
      <point x="643" y="1312"/>
      <point x="732" y="1553" type="curve"/>
      <point x="527" y="1553" type="line"/>
      <point x="498" y="1312"/>
      <point x="465" y="1162"/>
      <point x="435" y="1024" type="curve"/>
    </contour>
  </outline>
</glyph>
<glyph name="LftParen" format="1">
  <advance width="775"/>
  <unicode hex="0028"/>
  <outline>
    <contour>
      <point x="895" y="1607" type="line" name="hr00"/>
      <point x="582" y="1415"/>
      <point x="314" y="1061"/>
      <point x="207" y="633" type="curve" smooth="yes"/>
      <point x="176" y="508"/>
      <point x="161" y="386"/>
      <point x="161" y="270" type="curve" smooth="yes"/>
      <point x="161" y="17"/>
      <point x="233" y="-211"/>
      <point x="374" y="-402" type="curve"/>
      <point x="505" y="-260" type="line"/>
      <point x="397" y="-102"/>
      <point x="348" y="75"/>
      <point x="348" y="270" type="curve" smooth="yes"/>
      <point x="348" y="385"/>
      <point x="365" y="506"/>
      <point x="397" y="633" type="curve" smooth="yes"/>
      <point x="484" y="982"/>
      <point x="647" y="1254"/>
      <point x="932" y="1455" type="curve"/>
    </contour>
  </outline>
</glyph>
<glyph name="PlusSgn" format="1">
  <advance width="1180"/>
  <unicode hex="002B"/>
  <outline>
    <contour>
      <point x="748" y="1156" type="line" name="hr00"/>
      <point x="529" y="279" type="line"/>
      <point x="684" y="279" type="line"/>
      <point x="903" y="1156" type="line"/>
    </contour>
    <contour>
      <point x="256" y="647" type="line"/>
      <point x="1146" y="647" type="line"/>
      <point x="1182" y="794" type="line"/>
      <point x="292" y="794" type="line"/>
    </contour>
  </outline>
</glyph>
<glyph name="Comma" format="1">
  <advance width="630"/>
  <unicode hex="002C"/>
  <outline>
    <contour>
      <point x="137" y="49" type="line" name="hr00"/>
      <point x="277" y="49" type="line"/>
      <point x="252" y="-50"/>
      <point x="145" y="-169"/>
      <point x="73" y="-225" type="curve"/>
      <point x="163" y="-265" type="line"/>
      <point x="280" y="-175"/>
      <point x="431" y="-28"/>
      <point x="431" y="118" type="curve" smooth="yes"/>
      <point x="431" y="193"/>
      <point x="378" y="245"/>
      <point x="311" y="245" type="curve" smooth="yes"/>
      <point x="254" y="245"/>
      <point x="190" y="209"/>
      <point x="161" y="147" type="curve"/>
    </contour>
  </outline>
</glyph>
<glyph name="HyphenMinus" format="1">
  <advance width="840"/>
  <unicode hex="002D"/>
  <outline>
    <contour>
      <point x="155" y="544" type="line" name="hr00"/>
      <point x="855" y="544" type="line"/>
      <point x="892" y="691" type="line"/>
      <point x="192" y="691" type="line"/>
    </contour>
    <contour>
      <point x="645" y="1100" type="move" name="U"/>
    </contour>
  </outline>
</glyph>
<glyph name="FullStop" format="1">
  <advance width="620"/>
  <unicode hex="002E"/>
  <outline>
    <contour>
      <point x="148" y="90" type="curve" smooth="yes" name="hr00"/>
      <point x="148" y="28"/>
      <point x="198" y="-25"/>
      <point x="263" y="-25" type="curve" smooth="yes"/>
      <point x="347" y="-25"/>
      <point x="424" y="45"/>
      <point x="424" y="125" type="curve" smooth="yes"/>
      <point x="424" y="186"/>
      <point x="374" y="240"/>
      <point x="309" y="240" type="curve" smooth="yes"/>
      <point x="225" y="240"/>
      <point x="148" y="170"/>
    </contour>
  </outline>
</glyph>
<glyph name="Solidus" format="1">
  <advance width="980"/>
  <unicode hex="002F"/>
  <outline>
    <contour>
      <point x="1160" y="1568" type="line" name="hr00"/>
      <point x="-119" y="-240" type="line"/>
      <point x="50" y="-240" type="line"/>
      <point x="1330" y="1568" type="line"/>
    </contour>
  </outline>
</glyph>
<glyph name="DigitZero" format="1">
  <advance width="1180"/>
  <unicode hex="0030"/>
  <outline>
    <contour>
      <point x="1024" y="711" type="curve" smooth="yes" name="hr00"/>
      <point x="925" y="312"/>
      <point x="747" y="142"/>
      <point x="565" y="142" type="curve" smooth="yes"/>
      <point x="432" y="142"/>
      <point x="360" y="218"/>
      <point x="360" y="383" type="curve" smooth="yes"/>
      <point x="360" y="468"/>
      <point x="377" y="579"/>
      <point x="412" y="720" type="curve" smooth="yes"/>
      <point x="512" y="1120"/>
      <point x="678" y="1289"/>
      <point x="871" y="1289" type="curve" smooth="yes"/>
      <point x="1006" y="1289"/>
      <point x="1077" y="1223"/>
      <point x="1077" y="1051" type="curve" smooth="yes"/>
      <point x="1077" y="966"/>
      <point x="1060" y="854"/>
    </contour>
    <contour>
      <point x="1230" y="715" type="curve" smooth="yes"/>
      <point x="1262" y="841"/>
      <point x="1276" y="949"/>
      <point x="1276" y="1040" type="curve" smooth="yes"/>
      <point x="1276" y="1335"/>
      <point x="1124" y="1455"/>
      <point x="902" y="1455" type="curve" smooth="yes"/>
      <point x="613" y="1455"/>
      <point x="344" y="1267"/>
      <point x="206" y="716" type="curve" smooth="yes"/>
      <point x="173" y="584"/>
      <point x="158" y="474"/>
      <point x="158" y="381" type="curve" smooth="yes"/>
      <point x="158" y="104"/>
      <point x="313" y="-25"/>
      <point x="533" y="-25" type="curve" smooth="yes"/>
      <point x="804" y="-25"/>
      <point x="1086" y="138"/>
    </contour>
    <contour>
      <point x="520" y="-100" type="move" name="L"/>
    </contour>
    <contour>
      <point x="927" y="1530" type="move" name="U"/>
    </contour>
  </outline>
</glyph>
<glyph name="DigitOne" format="1">
  <advance width="1180"/>
  <unicode hex="0031"/>
  <outline>
    <contour>
      <point x="1021" y="167" type="line" name="hr00"/>
      <point x="706" y="167" type="line"/>
      <point x="1026" y="1450" type="line"/>
      <point x="856" y="1450" type="line"/>
      <point x="459" y="1243" type="line"/>
      <point x="440" y="1066" type="line"/>
      <point x="782" y="1235" type="line"/>
      <point x="516" y="167" type="line"/>
      <point x="201" y="167" type="line"/>
      <point x="160" y="0" type="line"/>
      <point x="980" y="0" type="line"/>
    </contour>
    <contour>
      <point x="515" y="-100" type="move" name="L"/>
    </contour>
    <contour>
      <point x="922" y="1530" type="move" name="U"/>
    </contour>
  </outline>
</glyph>
<glyph name="DigitTwo" format="1">
  <advance width="1180"/>
  <unicode hex="0032"/>
  <outline>
    <contour>
      <point x="1063" y="176" type="line" name="hr00"/>
      <point x="980" y="163"/>
      <point x="822" y="162"/>
      <point x="625" y="162" type="curve" smooth="yes"/>
      <point x="370" y="162" type="line"/>
      <point x="783" y="393"/>
      <point x="1210" y="830"/>
      <point x="1210" y="1098" type="curve" smooth="yes"/>
      <point x="1210" y="1296"/>
      <point x="1075" y="1455"/>
      <point x="842" y="1455" type="curve" smooth="yes"/>
      <point x="673" y="1455"/>
      <point x="488" y="1374"/>
      <point x="380" y="1264" type="curve"/>
      <point x="388" y="1098" type="line"/>
      <point x="503" y="1203"/>
      <point x="660" y="1279"/>
      <point x="783" y="1279" type="curve" smooth="yes"/>
      <point x="915" y="1279"/>
      <point x="1003" y="1199"/>
      <point x="1003" y="1063" type="curve" smooth="yes"/>
      <point x="1003" y="848"/>
      <point x="506" y="386"/>
      <point x="101" y="167" type="curve"/>
      <point x="60" y="0" type="line"/>
      <point x="1020" y="0" type="line"/>
    </contour>
    <contour>
      <point x="515" y="-100" type="move" name="L"/>
    </contour>
    <contour>
      <point x="855" y="1530" type="move" name="U"/>
    </contour>
  </outline>
</glyph>
<glyph name="DigitFour" format="1">
  <advance width="1180"/>
  <unicode hex="0034"/>
  <outline>
    <contour>
      <point x="1161" y="387" type="line" name="hr00"/>
      <point x="1199" y="539" type="line"/>
      <point x="1009" y="539" type="line"/>
      <point x="1236" y="1450" type="line"/>
      <point x="1026" y="1450" type="line"/>
      <point x="144" y="539" type="line"/>
      <point x="106" y="387" type="line"/>
      <point x="781" y="387" type="line"/>
      <point x="685" y="0" type="line"/>
      <point x="875" y="0" type="line"/>
      <point x="971" y="387" type="line"/>
    </contour>
    <contour>
      <point x="985" y="1205" type="line"/>
      <point x="819" y="539" type="line"/>
      <point x="337" y="539" type="line"/>
    </contour>
    <contour>
      <point x="522" y="-100" type="move" name="L"/>
    </contour>
    <contour>
      <point x="929" y="1530" type="move" name="U"/>
    </contour>
  </outline>
</glyph>
<glyph name="DigitSeven" format="1">
  <advance width="1180"/>
  <unicode hex="0037"/>
  <outline>
    <contour>
      <point x="420" y="0" type="line" name="hr00"/>
      <point x="661" y="450"/>
      <point x="972" y="877"/>
      <point x="1367" y="1274" type="curve"/>
      <point x="1406" y="1431" type="line"/>
      <point x="386" y="1431" type="line"/>
      <point x="341" y="1245" type="line"/>
      <point x="421" y="1260"/>
      <point x="538" y="1264"/>
      <point x="726" y="1264" type="curve" smooth="yes"/>
      <point x="1126" y="1264" type="line"/>
      <point x="774" y="889"/>
      <point x="517" y="555"/>
      <point x="215" y="0" type="curve"/>
    </contour>
    <contour>
      <point x="515" y="-100" type="move" name="L"/>
    </contour>
    <contour>
      <point x="922" y="1530" type="move" name="U"/>
    </contour>
  </outline>
</glyph>
<glyph name="DigitEight" format="1">
  <advance width="1180"/>
  <unicode hex="0038"/>
  <outline>
    <contour>
      <point x="542" y="-25" type="curve" smooth="yes" name="hr00"/>
      <point x="839" y="-25"/>
      <point x="1160" y="170"/>
      <point x="1160" y="475" type="curve" smooth="yes"/>
      <point x="1160" y="626"/>
      <point x="1068" y="733"/>
      <point x="988" y="779" type="curve"/>
      <point x="1155" y="860"/>
      <point x="1270" y="970"/>
      <point x="1270" y="1151" type="curve" smooth="yes"/>
      <point x="1270" y="1340"/>
      <point x="1102" y="1455"/>
      <point x="901" y="1455" type="curve" smooth="yes"/>
      <point x="620" y="1455"/>
      <point x="348" y="1292"/>
      <point x="348" y="1018" type="curve" smooth="yes"/>
      <point x="348" y="891"/>
      <point x="427" y="814"/>
      <point x="483" y="779" type="curve"/>
      <point x="297" y="706"/>
      <point x="115" y="549"/>
      <point x="115" y="325" type="curve" smooth="yes"/>
      <point x="115" y="111"/>
      <point x="317" y="-25"/>
    </contour>
    <contour>
      <point x="750" y="848" type="curve" smooth="yes"/>
      <point x="628" y="848"/>
      <point x="541" y="917"/>
      <point x="541" y="1029" type="curve" smooth="yes"/>
      <point x="541" y="1205"/>
      <point x="704" y="1299"/>
      <point x="862" y="1299" type="curve" smooth="yes"/>
      <point x="985" y="1299"/>
      <point x="1076" y="1235"/>
      <point x="1076" y="1128" type="curve" smooth="yes"/>
      <point x="1076" y="955"/>
      <point x="907" y="848"/>
    </contour>
    <contour>
      <point x="564" y="142" type="curve" smooth="yes"/>
      <point x="413" y="142"/>
      <point x="322" y="225"/>
      <point x="322" y="350" type="curve" smooth="yes"/>
      <point x="322" y="557"/>
      <point x="520" y="696"/>
      <point x="712" y="696" type="curve" smooth="yes"/>
      <point x="864" y="696"/>
      <point x="961" y="602"/>
      <point x="961" y="476" type="curve" smooth="yes"/>
      <point x="961" y="266"/>
      <point x="753" y="142"/>
    </contour>
    <contour>
      <point x="515" y="-100" type="move" name="L"/>
    </contour>
    <contour>
      <point x="922" y="1530" type="move" name="U"/>
    </contour>
  </outline>
</glyph>
<glyph name="Colon" format="1">
  <advance width="620"/>
  <unicode hex="003A"/>
  <outline>
    <contour>
      <point x="314" y="758" type="curve" smooth="yes" name="hr00"/>
      <point x="314" y="696"/>
      <point x="365" y="642"/>
      <point x="430" y="642" type="curve" smooth="yes"/>
      <point x="514" y="642"/>
      <point x="590" y="712"/>
      <point x="590" y="792" type="curve" smooth="yes"/>
      <point x="590" y="854"/>
      <point x="540" y="907"/>
      <point x="476" y="907" type="curve" smooth="yes"/>
      <point x="393" y="907"/>
      <point x="314" y="837"/>
    </contour>
    <contour>
      <point x="148" y="90" type="curve" smooth="yes"/>
      <point x="148" y="28"/>
      <point x="198" y="-25"/>
      <point x="263" y="-25" type="curve" smooth="yes"/>
      <point x="347" y="-25"/>
      <point x="424" y="45"/>
      <point x="424" y="125" type="curve" smooth="yes"/>
      <point x="424" y="186"/>
      <point x="374" y="240"/>
      <point x="309" y="240" type="curve" smooth="yes"/>
      <point x="225" y="240"/>
      <point x="148" y="170"/>
    </contour>
  </outline>
</glyph>
<glyph name="LTSgn" format="1">
  <advance width="1180"/>
  <unicode hex="003C"/>
  <outline>
    <contour>
      <point x="1123" y="417" type="line" name="hr00"/>
      <point x="408" y="705" type="line"/>
      <point x="1272" y="1014" type="line"/>
      <point x="1316" y="1191" type="line"/>
      <point x="239" y="799" type="line"/>
      <point x="197" y="632" type="line"/>
      <point x="1079" y="240" type="line"/>
    </contour>
  </outline>
</glyph>
<glyph name="EqSgn" format="1">
  <advance width="1180"/>
  <unicode hex="003D"/>
  <outline>
    <contour>
      <point x="177" y="470" type="line" name="hr00"/>
      <point x="1137" y="470" type="line"/>
      <point x="1173" y="617" type="line"/>
      <point x="213" y="617" type="line"/>
    </contour>
    <contour>
      <point x="262" y="813" type="line"/>
      <point x="1222" y="813" type="line"/>
      <point x="1259" y="960" type="line"/>
      <point x="299" y="960" type="line"/>
    </contour>
  </outline>
</glyph>
<glyph name="GTSgn" format="1">
  <advance width="1180"/>
  <unicode hex="003E"/>
  <outline>
    <contour>
      <point x="312" y="1014" type="line" name="hr00"/>
      <point x="1028" y="725" type="line"/>
      <point x="163" y="417" type="line"/>
      <point x="119" y="240" type="line"/>
      <point x="1197" y="632" type="line"/>
      <point x="1239" y="799" type="line"/>
      <point x="356" y="1191" type="line"/>
    </contour>
  </outline>
</glyph>
<glyph name="LtnCapA" format="1">
  <advance width="1395"/>
  <unicode hex="0041"/>
  <outline>
    <contour>
      <point x="1080" y="0" type="line" name="hr00"/>
      <point x="1275" y="0" type="line"/>
      <point x="1259" y="78"/>
      <point x="1243" y="166"/>
      <point x="1221" y="348" type="curve" smooth="yes"/>
      <point x="1091" y="1431" type="line"/>
      <point x="876" y="1431" type="line"/>
      <point x="206" y="348" type="line" smooth="yes"/>
      <point x="93" y="165"/>
      <point x="35" y="79"/>
      <point x="-20" y="0" type="curve"/>
      <point x="195" y="0" type="line"/>
      <point x="422" y="377" type="line"/>
      <point x="1038" y="377" type="line"/>
    </contour>
    <contour>
      <point x="944" y="1240" type="line"/>
      <point x="1022" y="529" type="line"/>
      <point x="514" y="529" type="line"/>
    </contour>
    <contour>
      <point x="1170" y="0" type="move" name="H"/>
    </contour>
    <contour>
      <point x="600" y="-100" type="move" name="L"/>
    </contour>
    <contour>
      <point x="1390" y="0" type="move" name="O"/>
    </contour>
    <contour>
      <point x="1000" y="1530" type="move" name="U"/>
    </contour>
  </outline>
</glyph>
<glyph name="LtnCapE" format="1">
  <advance width="1140"/>
  <unicode hex="0045"/>
  <outline>
    <contour>
      <point x="511" y="828" type="line" name="hr00"/>
      <point x="621" y="1269" type="line"/>
      <point x="1266" y="1269" type="line"/>
      <point x="1306" y="1431" type="line"/>
      <point x="456" y="1431" type="line"/>
      <point x="452" y="1352"/>
      <point x="413" y="1197"/>
      <point x="365" y="1005" type="curve" smooth="yes"/>
      <point x="221" y="426" type="line" smooth="yes"/>
      <point x="173" y="233"/>
      <point x="134" y="78"/>
      <point x="100" y="0" type="curve"/>
      <point x="980" y="0" type="line"/>
      <point x="1023" y="176" type="line"/>
      <point x="940" y="163"/>
      <point x="806" y="162"/>
      <point x="609" y="162" type="curve" smooth="yes"/>
      <point x="345" y="162" type="line"/>
      <point x="472" y="671" type="line"/>
      <point x="1042" y="671" type="line"/>
      <point x="1081" y="828" type="line"/>
    </contour>
    <contour>
      <point x="540" y="0" type="move" name="H"/>
    </contour>
    <contour>
      <point x="515" y="-100" type="move" name="L"/>
    </contour>
    <contour>
      <point x="857" y="0" type="move" name="O"/>
    </contour>
    <contour>
      <point x="1400" y="1200" type="move" name="R"/>
    </contour>
    <contour>
      <point x="922" y="1530" type="move" name="U"/>
    </contour>
  </outline>
</glyph>
<glyph name="LtnCapF" format="1">
  <advance width="1130"/>
  <unicode hex="0046"/>
  <outline>
    <contour>
      <point x="508" y="818" type="line" name="hr00"/>
      <point x="621" y="1269" type="line"/>
      <point x="1286" y="1269" type="line"/>
      <point x="1326" y="1431" type="line"/>
      <point x="456" y="1431" type="line"/>
      <point x="452" y="1352"/>
      <point x="412" y="1193"/>
      <point x="364" y="1000" type="curve" smooth="yes"/>
      <point x="221" y="426" type="line" smooth="yes"/>
      <point x="173" y="233"/>
      <point x="134" y="78"/>
      <point x="100" y="0" type="curve"/>
      <point x="320" y="0" type="line"/>
      <point x="323" y="76"/>
      <point x="362" y="232"/>
      <point x="411" y="426" type="curve" smooth="yes"/>
      <point x="470" y="662" type="line"/>
      <point x="1050" y="662" type="line"/>
      <point x="1088" y="818" type="line"/>
    </contour>
    <contour>
      <point x="510" y="-100" type="move" name="L"/>
    </contour>
    <contour>
      <point x="917" y="1530" type="move" name="U"/>
    </contour>
  </outline>
</glyph>
<glyph name="LtnCapG" format="1">
  <advance width="1406"/>
  <unicode hex="0047"/>
  <outline>
    <contour>
      <point x="1403" y="710" type="line" name="hr00"/>
      <point x="863" y="710" type="line"/>
      <point x="822" y="548" type="line"/>
      <point x="1172" y="548" type="line"/>
      <point x="1090" y="220" type="line"/>
      <point x="1012" y="176"/>
      <point x="858" y="147"/>
      <point x="739" y="147" type="curve" smooth="yes"/>
      <point x="520" y="147"/>
      <point x="384" y="272"/>
      <point x="384" y="493" type="curve" smooth="yes"/>
      <point x="384" y="560"/>
      <point x="394" y="636"/>
      <point x="415" y="720" type="curve" smooth="yes"/>
      <point x="500" y="1062"/>
      <point x="747" y="1289"/>
      <point x="1052" y="1289" type="curve" smooth="yes"/>
      <point x="1195" y="1289"/>
      <point x="1335" y="1233"/>
      <point x="1425" y="1122" type="curve"/>
      <point x="1534" y="1298" type="line"/>
      <point x="1409" y="1405"/>
      <point x="1235" y="1455"/>
      <point x="1063" y="1455" type="curve" smooth="yes"/>
      <point x="680" y="1455"/>
      <point x="334" y="1195"/>
      <point x="217" y="726" type="curve" smooth="yes"/>
      <point x="195" y="639"/>
      <point x="185" y="559"/>
      <point x="185" y="486" type="curve" smooth="yes"/>
      <point x="185" y="162"/>
      <point x="406" y="-25"/>
      <point x="714" y="-25" type="curve" smooth="yes"/>
      <point x="907" y="-25"/>
      <point x="1149" y="50"/>
      <point x="1258" y="132" type="curve"/>
    </contour>
    <contour>
      <point x="685" y="0" type="move" name="H"/>
    </contour>
    <contour>
      <point x="690" y="-100" type="move" name="L"/>
    </contour>
    <contour>
      <point x="1070" y="1530" type="move" name="U"/>
    </contour>
  </outline>
</glyph>
<glyph name="LtnCapH" format="1">
  <advance width="1455"/>
  <unicode hex="0048"/>
  <outline>
    <contour>
      <point x="1230" y="0" type="line" name="hr00"/>
      <point x="1234" y="78"/>
      <point x="1273" y="233"/>
      <point x="1321" y="426" type="curve" smooth="yes"/>
      <point x="1465" y="1005" type="line" smooth="yes"/>
      <point x="1513" y="1198"/>
      <point x="1552" y="1352"/>
      <point x="1586" y="1431" type="curve"/>
      <point x="1381" y="1431" type="line"/>
      <point x="1228" y="818" type="line"/>
      <point x="508" y="818" type="line"/>
      <point x="661" y="1431" type="line"/>
      <point x="456" y="1431" type="line"/>
      <point x="452" y="1352"/>
      <point x="413" y="1197"/>
      <point x="365" y="1005" type="curve" smooth="yes"/>
      <point x="221" y="426" type="line" smooth="yes"/>
      <point x="173" y="233"/>
      <point x="134" y="78"/>
      <point x="100" y="0" type="curve"/>
      <point x="305" y="0" type="line"/>
      <point x="470" y="662" type="line"/>
      <point x="1190" y="662" type="line"/>
      <point x="1025" y="0" type="line"/>
    </contour>
    <contour>
      <point x="225" y="0" type="move" name="H"/>
    </contour>
    <contour>
      <point x="640" y="-100" type="move" name="L"/>
    </contour>
    <contour>
      <point x="1047" y="1530" type="move" name="U"/>
    </contour>
  </outline>
</glyph>
<glyph name="LtnCapI" format="1">
  <advance width="955"/>
  <unicode hex="0049"/>
  <outline>
    <contour>
      <point x="436" y="1431" type="line" name="hr00"/>
      <point x="401" y="1289" type="line"/>
      <point x="641" y="1289" type="line"/>
      <point x="355" y="142" type="line"/>
      <point x="115" y="142" type="line"/>
      <point x="80" y="0" type="line"/>
      <point x="755" y="0" type="line"/>
      <point x="790" y="142" type="line"/>
      <point x="545" y="142" type="line"/>
      <point x="831" y="1289" type="line"/>
      <point x="1076" y="1289" type="line"/>
      <point x="1111" y="1431" type="line"/>
    </contour>
    <contour>
      <point x="417" y="0" type="move" name="H"/>
    </contour>
    <contour>
      <point x="392" y="-100" type="move" name="L"/>
    </contour>
    <contour>
      <point x="613" y="0" type="move" name="O"/>
    </contour>
    <contour>
      <point x="1215" y="1200" type="move" name="R"/>
    </contour>
    <contour>
      <point x="799" y="1530" type="move" name="U"/>
    </contour>
  </outline>
</glyph>
<glyph name="LtnCapK" format="1">
  <advance width="1261"/>
  <unicode hex="004B"/>
  <outline>
    <contour>
      <point x="1221" y="1431" type="line" name="hr00"/>
      <point x="406" y="689" type="line"/>
      <point x="547" y="730" type="line"/>
      <point x="660" y="725" type="line"/>
      <point x="1461" y="1431" type="line"/>
    </contour>
    <contour>
      <point x="1170" y="0" type="line"/>
      <point x="615" y="823" type="line"/>
      <point x="469" y="720" type="line"/>
      <point x="925" y="0" type="line"/>
    </contour>
    <contour>
      <point x="661" y="1431" type="line"/>
      <point x="456" y="1431" type="line"/>
      <point x="452" y="1352"/>
      <point x="413" y="1197"/>
      <point x="365" y="1005" type="curve" smooth="yes"/>
      <point x="221" y="426" type="line" smooth="yes"/>
      <point x="173" y="233"/>
      <point x="134" y="78"/>
      <point x="100" y="0" type="curve"/>
      <point x="305" y="0" type="line"/>
    </contour>
    <contour>
      <point x="210" y="0" type="move" name="H"/>
    </contour>
    <contour>
      <point x="610" y="-100" type="move" name="L"/>
    </contour>
    <contour>
      <point x="972" y="1530" type="move" name="U"/>
    </contour>
  </outline>
</glyph>
<glyph name="LtnCapL" format="1">
  <advance width="1060"/>
  <unicode hex="004C"/>
  <outline>
    <contour>
      <point x="345" y="162" type="line" name="hr00"/>
      <point x="661" y="1431" type="line"/>
      <point x="456" y="1431" type="line"/>
      <point x="452" y="1352"/>
      <point x="413" y="1197"/>
      <point x="365" y="1005" type="curve" smooth="yes"/>
      <point x="221" y="426" type="line" smooth="yes"/>
      <point x="173" y="233"/>
      <point x="134" y="78"/>
      <point x="100" y="0" type="curve"/>
      <point x="965" y="0" type="line"/>
      <point x="1008" y="176" type="line"/>
      <point x="925" y="163"/>
      <point x="766" y="162"/>
      <point x="569" y="162" type="curve" smooth="yes"/>
    </contour>
    <contour>
      <point x="532" y="0" type="move" name="H"/>
    </contour>
    <contour>
      <point x="505" y="-100" type="move" name="L"/>
    </contour>
    <contour>
      <point x="780" y="1200" type="move" name="R"/>
    </contour>
    <contour>
      <point x="915" y="1530" type="move" name="U"/>
    </contour>
  </outline>
</glyph>
<glyph name="LtnCapM" format="1">
  <advance width="1785"/>
  <unicode hex="004D"/>
  <outline>
    <contour>
      <point x="880" y="201" type="line" name="hr00"/>
      <point x="751" y="1431" type="line"/>
      <point x="591" y="1431" type="line"/>
      <point x="740" y="0" type="line"/>
      <point x="935" y="0" type="line"/>
      <point x="1793" y="1431" type="line"/>
      <point x="1616" y="1431" type="line"/>
    </contour>
    <contour>
      <point x="536" y="1431" type="line"/>
      <point x="536" y="1431"/>
      <point x="184" y="194"/>
      <point x="110" y="0" type="curve"/>
      <point x="295" y="0" type="line"/>
      <point x="621" y="1181" type="line"/>
      <point x="711" y="1431" type="line"/>
    </contour>
    <contour>
      <point x="1560" y="0" type="line"/>
      <point x="1579" y="194"/>
      <point x="1846" y="1431"/>
      <point x="1846" y="1431" type="curve"/>
      <point x="1671" y="1431" type="line"/>
      <point x="1641" y="1181" type="line"/>
      <point x="1375" y="0" type="line"/>
    </contour>
    <contour>
      <point x="800" y="-100" type="move" name="L"/>
    </contour>
    <contour>
      <point x="1207" y="1530" type="move" name="U"/>
    </contour>
  </outline>
</glyph>
<glyph name="LtnCapN" format="1">
  <advance width="1480"/>
  <unicode hex="004E"/>
  <outline>
    <contour>
      <point x="491" y="1328" type="line" name="hr01"/>
      <point x="1075" y="0" type="line"/>
      <point x="1219" y="98" type="line" name="hr02"/>
      <point x="636" y="1431" type="line"/>
    </contour>
    <contour>
      <point x="1075" y="0" type="line"/>
      <point x="1250" y="0" type="line"/>
      <point x="1500" y="1005" type="line" smooth="yes"/>
      <point x="1548" y="1198"/>
      <point x="1588" y="1352"/>
      <point x="1621" y="1431" type="curve"/>
      <point x="1431" y="1431" type="line"/>
    </contour>
    <contour>
      <point x="636" y="1431" type="line"/>
      <point x="446" y="1431" type="line"/>
      <point x="442" y="1352"/>
      <point x="403" y="1197"/>
      <point x="355" y="1005" type="curve" smooth="yes"/>
      <point x="211" y="426" type="line" smooth="yes"/>
      <point x="163" y="233"/>
      <point x="124" y="78"/>
      <point x="90" y="0" type="curve"/>
      <point x="280" y="0" type="line"/>
    </contour>
    <contour>
      <point x="1170" y="0" type="move" name="H"/>
    </contour>
    <contour>
      <point x="652" y="-100" type="move" name="L"/>
    </contour>
    <contour>
      <point x="1059" y="1530" type="move" name="U"/>
    </contour>
  </outline>
</glyph>
<glyph name="LtnCapO" format="1">
  <advance width="1447"/>
  <unicode hex="004F"/>
  <outline>
    <contour>
      <point x="719" y="147" type="curve" smooth="yes" name="hr00"/>
      <point x="514" y="147"/>
      <point x="386" y="300"/>
      <point x="386" y="541" type="curve" smooth="yes"/>
      <point x="386" y="871"/>
      <point x="606" y="1284"/>
      <point x="963" y="1284" type="curve" smooth="yes"/>
      <point x="1164" y="1284"/>
      <point x="1291" y="1133"/>
      <point x="1291" y="892" type="curve" smooth="yes"/>
      <point x="1291" y="563"/>
      <point x="1077" y="147"/>
    </contour>
    <contour>
      <point x="1492" y="931" type="curve" smooth="yes"/>
      <point x="1492" y="1263"/>
      <point x="1278" y="1455"/>
      <point x="1015" y="1455" type="curve" smooth="yes"/>
      <point x="599" y="1455"/>
      <point x="185" y="1036"/>
      <point x="185" y="500" type="curve" smooth="yes"/>
      <point x="185" y="167"/>
      <point x="400" y="-25"/>
      <point x="666" y="-25" type="curve" smooth="yes"/>
      <point x="1078" y="-25"/>
      <point x="1492" y="395"/>
    </contour>
    <contour>
      <point x="657" y="0" type="move" name="H"/>
    </contour>
    <contour>
      <point x="632" y="-100" type="move" name="L"/>
    </contour>
    <contour>
      <point x="896" y="0" type="move" name="O"/>
    </contour>
    <contour>
      <point x="1700" y="1200" type="move" name="R"/>
    </contour>
    <contour>
      <point x="1039" y="1530" type="move" name="U"/>
    </contour>
  </outline>
</glyph>
<glyph name="LtnCapP" format="1">
  <advance width="1190"/>
  <unicode hex="0050"/>
  <outline>
    <contour>
      <point x="443" y="554" type="line" name="hr00"/>
      <point x="506" y="547"/>
      <point x="597" y="544"/>
      <point x="670" y="544" type="curve" smooth="yes"/>
      <point x="1058" y="544"/>
      <point x="1321" y="733"/>
      <point x="1321" y="1084" type="curve" smooth="yes"/>
      <point x="1321" y="1302"/>
      <point x="1141" y="1441"/>
      <point x="864" y="1441" type="curve" smooth="yes"/>
      <point x="651" y="1441"/>
      <point x="456" y="1431"/>
      <point x="456" y="1431" type="curve"/>
      <point x="452" y="1352"/>
      <point x="407" y="1172"/>
      <point x="359" y="980" type="curve"/>
      <point x="221" y="426" type="line" smooth="yes"/>
      <point x="173" y="233"/>
      <point x="134" y="78"/>
      <point x="100" y="0" type="curve"/>
      <point x="320" y="0" type="line"/>
      <point x="324" y="76"/>
      <point x="362" y="232"/>
      <point x="411" y="426" type="curve" smooth="yes"/>
    </contour>
    <contour>
      <point x="623" y="1279" type="line"/>
      <point x="692" y="1282"/>
      <point x="721" y="1284"/>
      <point x="815" y="1284" type="curve" smooth="yes"/>
      <point x="1036" y="1284"/>
      <point x="1121" y="1172"/>
      <point x="1121" y="1048" type="curve" smooth="yes"/>
      <point x="1121" y="845"/>
      <point x="968" y="696"/>
      <point x="693" y="696" type="curve" smooth="yes"/>
      <point x="618" y="696"/>
      <point x="542" y="698"/>
      <point x="481" y="706" type="curve"/>
    </contour>
    <contour>
      <point x="552" y="-100" type="move" name="L"/>
    </contour>
    <contour>
      <point x="959" y="1530" type="move" name="U"/>
    </contour>
  </outline>
</glyph>
<glyph name="LtnCapS" format="1">
  <advance width="1155"/>
  <unicode hex="0053"/>
  <outline>
    <contour>
      <point x="1260" y="1347" type="line" name="hr00"/>
      <point x="1146" y="1419"/>
      <point x="1021" y="1455"/>
      <point x="867" y="1455" type="curve" smooth="yes"/>
      <point x="549" y="1455"/>
      <point x="320" y="1303"/>
      <point x="320" y="1040" type="curve" smooth="yes"/>
      <point x="320" y="901"/>
      <point x="438" y="794"/>
      <point x="622" y="691" type="curve" smooth="yes"/>
      <point x="877" y="549"/>
      <point x="914" y="461"/>
      <point x="914" y="378" type="curve" smooth="yes"/>
      <point x="914" y="256"/>
      <point x="792" y="147"/>
      <point x="621" y="147" type="curve" smooth="yes"/>
      <point x="473" y="147"/>
      <point x="278" y="235"/>
      <point x="161" y="378" type="curve"/>
      <point x="65" y="187" type="line"/>
      <point x="178" y="73"/>
      <point x="365" y="-25"/>
      <point x="558" y="-25" type="curve" smooth="yes"/>
      <point x="852" y="-25"/>
      <point x="1114" y="115"/>
      <point x="1114" y="414" type="curve" smooth="yes"/>
      <point x="1114" y="526"/>
      <point x="1057" y="679"/>
      <point x="800" y="828" type="curve" smooth="yes"/>
      <point x="597" y="946"/>
      <point x="510" y="1005"/>
      <point x="510" y="1079" type="curve" smooth="yes"/>
      <point x="510" y="1210"/>
      <point x="659" y="1284"/>
      <point x="845" y="1284" type="curve" smooth="yes"/>
      <point x="959" y="1284"/>
      <point x="1075" y="1240"/>
      <point x="1173" y="1156" type="curve"/>
    </contour>
    <contour>
      <point x="520" y="0" type="move" name="H"/>
    </contour>
    <contour>
      <point x="495" y="-100" type="move" name="L"/>
    </contour>
    <contour>
      <point x="900" y="1530" type="move" name="U"/>
    </contour>
  </outline>
</glyph>
<glyph name="LtnCapU" format="1">
  <advance width="1420"/>
  <unicode hex="0055"/>
  <outline>
    <contour>
      <point x="1346" y="1431" type="line" name="hr00"/>
      <point x="1126" y="549" type="line" smooth="yes"/>
      <point x="1055" y="264"/>
      <point x="916" y="132"/>
      <point x="682" y="132" type="curve" smooth="yes"/>
      <point x="485" y="132"/>
      <point x="421" y="244"/>
      <point x="421" y="391" type="curve" smooth="yes"/>
      <point x="421" y="451"/>
      <point x="431" y="516"/>
      <point x="448" y="582" type="curve" smooth="yes"/>
      <point x="661" y="1431" type="line"/>
      <point x="456" y="1431" type="line"/>
      <point x="451" y="1352"/>
      <point x="414" y="1198"/>
      <point x="365" y="1005" type="curve" smooth="yes"/>
      <point x="251" y="552" type="line" smooth="yes"/>
      <point x="236" y="493"/>
      <point x="228" y="435"/>
      <point x="228" y="379" type="curve" smooth="yes"/>
      <point x="228" y="157"/>
      <point x="351" y="-25"/>
      <point x="643" y="-25" type="curve" smooth="yes"/>
      <point x="1020" y="-25"/>
      <point x="1223" y="177"/>
      <point x="1299" y="480" type="curve" smooth="yes"/>
      <point x="1430" y="1005" type="line" smooth="yes"/>
      <point x="1480" y="1207"/>
      <point x="1519" y="1352"/>
      <point x="1551" y="1431" type="curve"/>
    </contour>
    <contour>
      <point x="647" y="0" type="move" name="H"/>
    </contour>
    <contour>
      <point x="622" y="-100" type="move" name="L"/>
    </contour>
    <contour>
      <point x="865" y="0" type="move" name="O"/>
    </contour>
    <contour>
      <point x="1640" y="1200" type="move" name="R"/>
    </contour>
    <contour>
      <point x="1029" y="1530" type="move" name="U"/>
    </contour>
  </outline>
</glyph>
<glyph name="LtnCapV" format="1">
  <advance width="1345"/>
  <unicode hex="0056"/>
  <outline>
    <contour>
      <point x="1381" y="1431" type="line" name="hr00"/>
      <point x="654" y="191" type="line"/>
      <point x="536" y="1431" type="line"/>
      <point x="331" y="1431" type="line"/>
      <point x="344" y="1350"/>
      <point x="355" y="1262"/>
      <point x="377" y="1073" type="curve" smooth="yes"/>
      <point x="500" y="0" type="line"/>
      <point x="725" y="0" type="line"/>
      <point x="1377" y="1073" type="line" smooth="yes"/>
      <point x="1492" y="1263"/>
      <point x="1550" y="1350"/>
      <point x="1606" y="1431" type="curve"/>
    </contour>
    <contour>
      <point x="620" y="0" type="move" name="H"/>
    </contour>
    <contour>
      <point x="587" y="-100" type="move" name="L"/>
    </contour>
    <contour>
      <point x="820" y="0" type="move" name="O"/>
    </contour>
    <contour>
      <point x="994" y="1530" type="move" name="U"/>
    </contour>
  </outline>
</glyph>
<glyph name="LtnCapW" format="1">
  <advance width="2060"/>
  <unicode hex="0057"/>
  <outline>
    <contour>
      <point x="1535" y="0" type="line" name="hr00"/>
      <point x="2107" y="1073" type="line" smooth="yes"/>
      <point x="2208" y="1263"/>
      <point x="2259" y="1350"/>
      <point x="2311" y="1431" type="curve"/>
      <point x="2081" y="1431" type="line"/>
      <point x="1431" y="127" type="line"/>
      <point x="1420" y="0" type="line"/>
    </contour>
    <contour>
      <point x="1310" y="0" type="line"/>
      <point x="1420" y="0" type="line"/>
      <point x="1461" y="127" type="line"/>
      <point x="1406" y="1431" type="line"/>
      <point x="1231" y="1431" type="line"/>
      <point x="1248" y="1279" type="line"/>
    </contour>
    <contour>
      <point x="625" y="0" type="line"/>
      <point x="1406" y="1431" type="line"/>
      <point x="1221" y="1431" type="line"/>
      <point x="521" y="127" type="line"/>
      <point x="521" y="0" type="line"/>
    </contour>
    <contour>
      <point x="546" y="1431" type="line"/>
      <point x="336" y="1431" type="line"/>
      <point x="348" y="1353"/>
      <point x="355" y="1260"/>
      <point x="362" y="1073" type="curve" smooth="yes"/>
      <point x="400" y="0" type="line"/>
      <point x="521" y="0" type="line"/>
      <point x="551" y="127" type="line"/>
    </contour>
    <contour>
      <point x="942" y="-100" type="move" name="L"/>
    </contour>
    <contour>
      <point x="1349" y="1530" type="move" name="U"/>
    </contour>
  </outline>
</glyph>
<glyph name="LtnCapZ" format="1">
  <advance width="1210"/>
  <unicode hex="005A"/>
  <outline>
    <contour>
      <point x="1411" y="1431" type="line" name="hr00"/>
      <point x="401" y="1431" type="line"/>
      <point x="356" y="1250" type="line"/>
      <point x="440" y="1266"/>
      <point x="559" y="1269"/>
      <point x="756" y="1269" type="curve" smooth="yes"/>
      <point x="1116" y="1269" type="line"/>
      <point x="35" y="123" type="line"/>
      <point x="5" y="0" type="line"/>
      <point x="1105" y="0" type="line"/>
      <point x="1150" y="181" type="line"/>
      <point x="1066" y="168"/>
      <point x="906" y="162"/>
      <point x="710" y="162" type="curve" smooth="yes"/>
      <point x="300" y="162" type="line"/>
      <point x="1379" y="1303" type="line"/>
    </contour>
    <contour>
      <point x="570" y="-100" type="move" name="L"/>
    </contour>
    <contour>
      <point x="927" y="1530" type="move" name="U"/>
    </contour>
  </outline>
</glyph>
<glyph name="LftSqrBrac" format="1">
  <advance width="770"/>
  <unicode hex="005B"/>
  <outline>
    <contour>
      <point x="484" y="-402" type="line" name="hr00"/>
      <point x="521" y="-255" type="line"/>
      <point x="266" y="-255" type="line"/>
      <point x="679" y="1421" type="line"/>
      <point x="934" y="1421" type="line"/>
      <point x="970" y="1568" type="line"/>
      <point x="530" y="1568" type="line"/>
      <point x="44" y="-402" type="line"/>
    </contour>
  </outline>
</glyph>
<glyph name="ReverseSolidus" format="1">
  <advance width="1005"/>
  <unicode hex="005C"/>
  <outline>
    <contour>
      <point x="473" y="1538" type="line" name="hr00"/>
      <point x="656" y="-123" type="line"/>
      <point x="799" y="-93" type="line"/>
      <point x="620" y="1568" type="line"/>
    </contour>
  </outline>
</glyph>
<glyph name="RtSqrBrac" format="1">
  <advance width="770"/>
  <unicode hex="005D"/>
  <outline>
    <contour>
      <point x="434" y="-402" type="line" name="hr00"/>
      <point x="920" y="1568" type="line"/>
      <point x="480" y="1568" type="line"/>
      <point x="444" y="1421" type="line"/>
      <point x="699" y="1421" type="line"/>
      <point x="286" y="-255" type="line"/>
      <point x="31" y="-255" type="line"/>
      <point x="-6" y="-402" type="line"/>
    </contour>
  </outline>
</glyph>
<glyph name="CircumAccent" format="1">
  <advance width="830"/>
  <unicode hex="005E"/>
  <outline>
    <contour>
      <point x="316" y="1147" type="line" name="hr01"/>
      <point x="660" y="1421" type="line" name="hr02"/>
      <point x="866" y="1147" type="line"/>
      <point x="1015" y="1147" type="line"/>
      <point x="761" y="1568" type="line"/>
      <point x="591" y="1568" type="line"/>
      <point x="166" y="1147" type="line"/>
    </contour>
    <contour>
      <point x="705" y="1635" type="move" name="U"/>
    </contour>
  </outline>
</glyph>
<glyph name="LowLine" format="1">
  <advance width="1254"/>
  <unicode hex="005F"/>
  <outline>
    <contour>
      <point x="-138" y="-314" type="line" name="hr00"/>
      <point x="1135" y="-314" type="line"/>
      <point x="1172" y="-167" type="line"/>
      <point x="-101" y="-167" type="line"/>
    </contour>
  </outline>
</glyph>
<glyph name="LtnSmB" format="1">
  <advance width="1144"/>
  <unicode hex="0062"/>
  <outline>
    <contour>
      <point x="437" y="1570" type="line"/>
      <point x="437" y="1456"/>
      <point x="402" y="1246"/>
      <point x="367" y="1105" type="curve" smooth="yes"/>
      <point x="110" y="85" type="line"/>
      <point x="198" y="44"/>
      <point x="355" y="-25"/>
      <point x="517" y="-25" type="curve" smooth="yes" name="hr01"/>
      <point x="675" y="-25"/>
      <point x="795" y="24"/>
      <point x="907" y="125" type="curve" smooth="yes"/>
      <point x="1050" y="255"/>
      <point x="1162" y="466"/>
      <point x="1162" y="695" type="curve" smooth="yes"/>
      <point x="1162" y="930"/>
      <point x="1046" y="1020"/>
      <point x="907" y="1020" type="curve" smooth="yes"/>
      <point x="754" y="1020"/>
      <point x="584" y="878"/>
      <point x="456" y="719" type="curve"/>
      <point x="552" y="1105" type="line" smooth="yes"/>
      <point x="600" y="1296"/>
      <point x="627" y="1508"/>
      <point x="627" y="1570" type="curve"/>
    </contour>
    <contour>
      <point x="382" y="429" type="line"/>
      <point x="485" y="617"/>
      <point x="708" y="850"/>
      <point x="822" y="850" type="curve" smooth="yes"/>
      <point x="913" y="850"/>
      <point x="972" y="784"/>
      <point x="972" y="635" type="curve" smooth="yes"/>
      <point x="972" y="469"/>
      <point x="909" y="336"/>
      <point x="822" y="250" type="curve" smooth="yes"/>
      <point x="741" y="169"/>
      <point x="638" y="125"/>
      <point x="552" y="125" type="curve" smooth="yes"/>
      <point x="466" y="125"/>
      <point x="376" y="167"/>
      <point x="325" y="200" type="curve"/>
    </contour>
    <contour>
      <point x="530" y="0" type="move" name="H"/>
    </contour>
    <contour>
      <point x="505" y="-100" type="move" name="L"/>
    </contour>
    <contour>
      <point x="1345" y="1000" type="move" name="R"/>
    </contour>
    <contour>
      <point x="938" y="1635" type="move" name="U"/>
    </contour>
  </outline>
</glyph>
<glyph name="LtnSmC" format="1">
  <advance width="989"/>
  <unicode hex="0063"/>
  <outline>
    <contour>
      <point x="917" y="255" type="line" name="hr00"/>
      <point x="811" y="179"/>
      <point x="703" y="137"/>
      <point x="583" y="137" type="curve" smooth="yes"/>
      <point x="427" y="137"/>
      <point x="331" y="239"/>
      <point x="331" y="406" type="curve" smooth="yes"/>
      <point x="331" y="619"/>
      <point x="499" y="858"/>
      <point x="742" y="858" type="curve" smooth="yes"/>
      <point x="845" y="858"/>
      <point x="924" y="824"/>
      <point x="998" y="760" type="curve"/>
      <point x="1077" y="936" type="line"/>
      <point x="1016" y="985"/>
      <point x="902" y="1020"/>
      <point x="789" y="1020" type="curve" smooth="yes"/>
      <point x="420" y="1020"/>
      <point x="139" y="737"/>
      <point x="139" y="381" type="curve" smooth="yes"/>
      <point x="139" y="130"/>
      <point x="309" y="-25"/>
      <point x="532" y="-25" type="curve" smooth="yes"/>
      <point x="682" y="-25"/>
      <point x="785" y="9"/>
      <point x="904" y="83" type="curve"/>
    </contour>
    <contour>
      <point x="520" y="0" type="move" name="H"/>
    </contour>
    <contour>
      <point x="495" y="-100" type="move" name="L"/>
    </contour>
    <contour>
      <point x="1210" y="1000" type="move" name="R"/>
    </contour>
    <contour>
      <point x="785" y="1100" type="move" name="U"/>
    </contour>
  </outline>
</glyph>
<glyph name="LtnSmE" format="1">
  <advance width="1042"/>
  <unicode hex="0065"/>
  <outline>
    <contour>
      <point x="967" y="270" type="line" name="hr00"/>
      <point x="854" y="189"/>
      <point x="710" y="135"/>
      <point x="587" y="135" type="curve" smooth="yes"/>
      <point x="396" y="135"/>
      <point x="317" y="263"/>
      <point x="317" y="420" type="curve" smooth="yes"/>
      <point x="317" y="686"/>
      <point x="522" y="872"/>
      <point x="720" y="872" type="curve" smooth="yes"/>
      <point x="813" y="872"/>
      <point x="883" y="823"/>
      <point x="883" y="753" type="curve" smooth="yes"/>
      <point x="883" y="660"/>
      <point x="766" y="590"/>
      <point x="539" y="590" type="curve" smooth="yes"/>
      <point x="468" y="590"/>
      <point x="382" y="596"/>
      <point x="279" y="610" type="curve"/>
      <point x="279" y="477" type="line"/>
      <point x="391" y="461"/>
      <point x="487" y="453"/>
      <point x="569" y="453" type="curve" smooth="yes"/>
      <point x="931" y="453"/>
      <point x="1077" y="609"/>
      <point x="1077" y="791" type="curve" smooth="yes"/>
      <point x="1077" y="899"/>
      <point x="986" y="1020"/>
      <point x="772" y="1020" type="curve" smooth="yes"/>
      <point x="399" y="1020"/>
      <point x="137" y="710"/>
      <point x="137" y="380" type="curve" smooth="yes"/>
      <point x="137" y="147"/>
      <point x="268" y="-25"/>
      <point x="543" y="-25" type="curve" smooth="yes"/>
      <point x="705" y="-25"/>
      <point x="849" y="26"/>
      <point x="955" y="83" type="curve"/>
    </contour>
    <contour>
      <point x="485" y="0" type="move" name="H"/>
    </contour>
    <contour>
      <point x="484" y="-100" type="move" name="L"/>
    </contour>
    <contour>
      <point x="840" y="0" type="move" name="O"/>
    </contour>
    <contour>
      <point x="1285" y="1000" type="move" name="R"/>
    </contour>
    <contour>
      <point x="784" y="1100" type="move" name="U"/>
    </contour>
  </outline>
</glyph>
<glyph name="LtnSmF" format="1">
  <advance width="756"/>
  <unicode hex="0066"/>
  <outline>
    <contour>
      <point x="180" y="833" type="line" name="hr00"/>
      <point x="835" y="833" type="line"/>
      <point x="871" y="975" type="line"/>
      <point x="216" y="975" type="line"/>
    </contour>
    <contour>
      <point x="1106" y="1519" type="line"/>
      <point x="1062" y="1555"/>
      <point x="981" y="1588"/>
      <point x="903" y="1588" type="curve" smooth="yes"/>
      <point x="687" y="1588"/>
      <point x="533" y="1478"/>
      <point x="448" y="1147" type="curve" smooth="yes"/>
      <point x="403" y="972"/>
      <point x="244" y="334"/>
      <point x="223" y="0" type="curve"/>
      <point x="436" y="0" type="line"/>
      <point x="430" y="28"/>
      <point x="427" y="66"/>
      <point x="427" y="110" type="curve" smooth="yes"/>
      <point x="427" y="213"/>
      <point x="447" y="351"/>
      <point x="476" y="484" type="curve" smooth="yes"/>
      <point x="510" y="641"/>
      <point x="558" y="846"/>
      <point x="641" y="1186" type="curve" smooth="yes"/>
      <point x="682" y="1353"/>
      <point x="758" y="1421"/>
      <point x="862" y="1421" type="curve" smooth="yes"/>
      <point x="920" y="1421"/>
      <point x="988" y="1392"/>
      <point x="1022" y="1362" type="curve"/>
    </contour>
    <contour>
      <point x="290" y="0" type="move" name="H"/>
    </contour>
    <contour>
      <point x="315" y="-100" type="move" name="L"/>
    </contour>
    <contour>
      <point x="900" y="1635" type="move" name="U"/>
    </contour>
  </outline>
</glyph>
<glyph name="LtnSmH" format="1">
  <advance width="1185"/>
  <unicode hex="0068"/>
  <outline>
    <contour>
      <point x="1055" y="0" type="line"/>
      <point x="1047" y="30"/>
      <point x="1043" y="65"/>
      <point x="1043" y="102" type="curve" smooth="yes"/>
      <point x="1043" y="143"/>
      <point x="1048" y="188"/>
      <point x="1055" y="238" type="curve" smooth="yes"/>
      <point x="1069" y="327"/>
      <point x="1170" y="636"/>
      <point x="1170" y="745" type="curve" smooth="yes"/>
      <point x="1170" y="917"/>
      <point x="1095" y="1020"/>
      <point x="930" y="1020" type="curve" smooth="yes"/>
      <point x="760" y="1020"/>
      <point x="591" y="877"/>
      <point x="475" y="723" type="curve"/>
      <point x="571" y="1105" type="line" smooth="yes"/>
      <point x="609" y="1259"/>
      <point x="645" y="1482"/>
      <point x="645" y="1570" type="curve"/>
      <point x="455" y="1570" type="line"/>
      <point x="455" y="1456"/>
      <point x="423" y="1257"/>
      <point x="385" y="1105" type="curve" smooth="yes"/>
      <point x="110" y="0" type="line" name="hr01"/>
      <point x="295" y="0" type="line"/>
      <point x="397" y="408" type="line"/>
      <point x="492" y="612"/>
      <point x="717" y="850"/>
      <point x="840" y="850" type="curve" smooth="yes"/>
      <point x="937" y="850"/>
      <point x="970" y="798"/>
      <point x="970" y="680" type="curve" smooth="yes"/>
      <point x="970" y="592"/>
      <point x="886" y="319"/>
      <point x="872" y="203" type="curve" smooth="yes"/>
      <point x="867" y="158"/>
      <point x="864" y="115"/>
      <point x="864" y="77" type="curve" smooth="yes"/>
      <point x="864" y="48"/>
      <point x="866" y="21"/>
      <point x="870" y="0" type="curve"/>
    </contour>
    <contour>
      <point x="190" y="0" type="move" name="H"/>
    </contour>
    <contour>
      <point x="550" y="-100" type="move" name="L"/>
    </contour>
    <contour>
      <point x="935" y="1635" type="move" name="U"/>
    </contour>
  </outline>
</glyph>
<glyph name="LtnSmI" format="1">
  <advance width="554"/>
  <unicode hex="0069"/>
  <outline>
    <contour>
      <point x="361" y="1297" type="curve" smooth="yes" name="hr00"/>
      <point x="361" y="1237"/>
      <point x="404" y="1186"/>
      <point x="467" y="1186" type="curve" smooth="yes"/>
      <point x="552" y="1186"/>
      <point x="624" y="1259"/>
      <point x="624" y="1338" type="curve" smooth="yes"/>
      <point x="624" y="1399"/>
      <point x="578" y="1450"/>
      <point x="513" y="1450" type="curve" smooth="yes"/>
      <point x="428" y="1450"/>
      <point x="361" y="1375"/>
    </contour>
    <contour>
      <point x="335" y="1000" type="line"/>
      <point x="335" y="886"/>
      <point x="286" y="688"/>
      <point x="246" y="537" type="curve" smooth="yes"/>
      <point x="207" y="388" type="line" smooth="yes"/>
      <point x="180" y="284"/>
      <point x="165" y="172"/>
      <point x="165" y="87" type="curve" smooth="yes"/>
      <point x="165" y="53"/>
      <point x="167" y="24"/>
      <point x="172" y="0" type="curve"/>
      <point x="372" y="0" type="line"/>
      <point x="365" y="37"/>
      <point x="360" y="85"/>
      <point x="360" y="136" type="curve" smooth="yes"/>
      <point x="360" y="208"/>
      <point x="368" y="287"/>
      <point x="386" y="357" type="curve" smooth="yes"/>
      <point x="431" y="536" type="line" smooth="yes"/>
      <point x="476" y="712"/>
      <point x="525" y="912"/>
      <point x="525" y="1000" type="curve"/>
    </contour>
    <contour>
      <point x="235" y="0" type="move" name="H"/>
    </contour>
    <contour>
      <point x="250" y="-100" type="move" name="L"/>
    </contour>
    <contour>
      <point x="455" y="0" type="move" name="O"/>
    </contour>
    <contour>
      <point x="745" y="1000" type="move" name="R"/>
    </contour>
    <contour>
      <point x="472" y="1100" type="move" name="U"/>
    </contour>
  </outline>
</glyph>
<glyph name="LtnSmK" format="1">
  <advance width="1059"/>
  <unicode hex="006B"/>
  <outline>
    <contour>
      <point x="295" y="0" type="line" name="hr00"/>
      <point x="570" y="1105" type="line" smooth="yes"/>
      <point x="614" y="1280"/>
      <point x="645" y="1482"/>
      <point x="645" y="1570" type="curve"/>
      <point x="455" y="1570" type="line"/>
      <point x="455" y="1456"/>
      <point x="424" y="1259"/>
      <point x="386" y="1107" type="curve" smooth="yes"/>
      <point x="338" y="915"/>
      <point x="110" y="0"/>
      <point x="110" y="0" type="curve"/>
    </contour>
    <contour>
      <point x="909" y="1000" type="line"/>
      <point x="885" y="863"/>
      <point x="654" y="700"/>
      <point x="379" y="539" type="curve"/>
      <point x="386" y="540"/>
      <point x="393" y="540"/>
      <point x="400" y="540" type="curve" smooth="yes"/>
      <point x="467" y="540"/>
      <point x="559" y="514"/>
      <point x="559" y="514" type="curve"/>
      <point x="902" y="702"/>
      <point x="1134" y="884"/>
      <point x="1134" y="1000" type="curve"/>
    </contour>
    <contour>
      <point x="1010" y="0" type="line"/>
      <point x="863" y="238"/>
      <point x="718" y="600"/>
      <point x="527" y="600" type="curve"/>
      <point x="385" y="529" type="line"/>
      <point x="540" y="529"/>
      <point x="667" y="246"/>
      <point x="775" y="0" type="curve"/>
    </contour>
    <contour>
      <point x="840" y="0" type="move" name="H"/>
    </contour>
    <contour>
      <point x="537" y="-100" type="move" name="L"/>
    </contour>
    <contour>
      <point x="1225" y="1000" type="move" name="R"/>
    </contour>
    <contour>
      <point x="920" y="1635" type="move" name="U"/>
    </contour>
  </outline>
</glyph>
<glyph name="LtnSmN" format="1">
  <advance width="1195"/>
  <unicode hex="006E"/>
  <outline>
    <contour>
      <point x="1060" y="0" type="line"/>
      <point x="1052" y="30"/>
      <point x="1050" y="65"/>
      <point x="1050" y="102" type="curve" smooth="yes"/>
      <point x="1050" y="143"/>
      <point x="1055" y="188"/>
      <point x="1062" y="238" type="curve" smooth="yes"/>
      <point x="1075" y="327"/>
      <point x="1175" y="636"/>
      <point x="1175" y="745" type="curve" smooth="yes"/>
      <point x="1175" y="917"/>
      <point x="1100" y="1020"/>
      <point x="935" y="1020" type="curve" smooth="yes"/>
      <point x="755" y="1020"/>
      <point x="581" y="870"/>
      <point x="445" y="672" type="curve"/>
      <point x="463" y="740"/>
      <point x="477" y="873"/>
      <point x="477" y="957" type="curve" smooth="yes"/>
      <point x="477" y="973"/>
      <point x="476" y="988"/>
      <point x="475" y="1000" type="curve" name="hr01"/>
      <point x="294" y="1000" type="line"/>
      <point x="294" y="961" type="line" smooth="yes"/>
      <point x="294" y="833"/>
      <point x="283" y="679"/>
      <point x="262" y="595" type="curve" smooth="yes"/>
      <point x="115" y="0" type="line" name="hr02"/>
      <point x="300" y="0" type="line"/>
      <point x="392" y="370" type="line"/>
      <point x="478" y="573"/>
      <point x="708" y="850"/>
      <point x="835" y="850" type="curve" smooth="yes"/>
      <point x="927" y="850"/>
      <point x="975" y="798"/>
      <point x="975" y="680" type="curve" smooth="yes"/>
      <point x="975" y="592"/>
      <point x="888" y="319"/>
      <point x="875" y="203" type="curve" smooth="yes"/>
      <point x="870" y="158"/>
      <point x="867" y="115"/>
      <point x="867" y="77" type="curve" smooth="yes"/>
      <point x="867" y="48"/>
      <point x="871" y="21"/>
      <point x="875" y="0" type="curve"/>
    </contour>
    <contour>
      <point x="540" y="0" type="move" name="H"/>
    </contour>
    <contour>
      <point x="565" y="-100" type="move" name="L"/>
    </contour>
    <contour>
      <point x="815" y="1100" type="move" name="U"/>
    </contour>
  </outline>
</glyph>
<glyph name="LtnSmO" format="1">
  <advance width="1133"/>
  <unicode hex="006F"/>
  <outline>
    <contour>
      <point x="142" y="344" type="curve" smooth="yes" name="hr00"/>
      <point x="142" y="114"/>
      <point x="306" y="-25"/>
      <point x="530" y="-25" type="curve" smooth="yes"/>
      <point x="896" y="-25"/>
      <point x="1138" y="314"/>
      <point x="1138" y="648" type="curve" smooth="yes"/>
      <point x="1138" y="879"/>
      <point x="985" y="1020"/>
      <point x="761" y="1020" type="curve" smooth="yes"/>
      <point x="387" y="1020"/>
      <point x="142" y="677"/>
    </contour>
    <contour>
      <point x="721" y="862" type="curve" smooth="yes"/>
      <point x="859" y="862"/>
      <point x="947" y="767"/>
      <point x="947" y="611" type="curve" smooth="yes"/>
      <point x="947" y="391"/>
      <point x="795" y="132"/>
      <point x="559" y="132" type="curve" smooth="yes"/>
      <point x="421" y="132"/>
      <point x="333" y="226"/>
      <point x="333" y="380" type="curve" smooth="yes"/>
      <point x="333" y="599"/>
      <point x="486" y="862"/>
    </contour>
    <contour>
      <point x="510" y="0" type="move" name="H"/>
    </contour>
    <contour>
      <point x="505" y="-100" type="move" name="L"/>
    </contour>
    <contour>
      <point x="800" y="0" type="move" name="O"/>
    </contour>
    <contour>
      <point x="1330" y="1000" type="move" name="R"/>
    </contour>
    <contour>
      <point x="785" y="1100" type="move" name="U"/>
    </contour>
  </outline>
</glyph>
<glyph name="LtnSmR" format="1">
  <advance width="910"/>
  <unicode hex="0072"/>
  <outline>
    <contour>
      <point x="300" y="0" type="line"/>
      <point x="402" y="415" type="line"/>
      <point x="502" y="602"/>
      <point x="703" y="850"/>
      <point x="785" y="850" type="curve" smooth="yes"/>
      <point x="831" y="850"/>
      <point x="855" y="801"/>
      <point x="855" y="740" type="curve" smooth="yes"/>
      <point x="855" y="715"/>
      <point x="852" y="689"/>
      <point x="845" y="660" type="curve"/>
      <point x="1010" y="690" type="line" name="hr01"/>
      <point x="1022" y="737"/>
      <point x="1030" y="783"/>
      <point x="1030" y="825" type="curve" smooth="yes"/>
      <point x="1030" y="935"/>
      <point x="986" y="1020"/>
      <point x="865" y="1020" type="curve" smooth="yes"/>
      <point x="735" y="1020"/>
      <point x="575" y="867"/>
      <point x="445" y="675" type="curve"/>
      <point x="467" y="773"/>
      <point x="475" y="929"/>
      <point x="475" y="1000" type="curve" name="hr02"/>
      <point x="295" y="1000" type="line"/>
      <point x="295" y="961" type="line" smooth="yes"/>
      <point x="295" y="833"/>
      <point x="283" y="679"/>
      <point x="262" y="595" type="curve" smooth="yes"/>
      <point x="115" y="0" type="line"/>
    </contour>
    <contour>
      <point x="210" y="0" type="move" name="H"/>
    </contour>
    <contour>
      <point x="220" y="-100" type="move" name="L"/>
    </contour>
    <contour>
      <point x="670" y="1100" type="move" name="U"/>
    </contour>
  </outline>
</glyph>
<glyph name="LtnSmV" format="1">
  <advance width="941"/>
  <unicode hex="0076"/>
  <outline>
    <contour>
      <point x="180" y="1000" type="line" name="hr00"/>
      <point x="232" y="825"/>
      <point x="256" y="602"/>
      <point x="256" y="354" type="curve" smooth="yes"/>
      <point x="256" y="241"/>
      <point x="251" y="122"/>
      <point x="241" y="0" type="curve"/>
      <point x="441" y="0" type="line"/>
      <point x="744" y="336"/>
      <point x="1056" y="765"/>
      <point x="1056" y="1000" type="curve"/>
      <point x="856" y="1000" type="line"/>
      <point x="856" y="769"/>
      <point x="606" y="394"/>
      <point x="404" y="176" type="curve"/>
      <point x="421" y="277"/>
      <point x="429" y="402"/>
      <point x="429" y="526" type="curve" smooth="yes"/>
      <point x="429" y="707"/>
      <point x="412" y="887"/>
      <point x="380" y="1000" type="curve"/>
    </contour>
    <contour>
      <point x="359" y="0" type="move" name="H"/>
    </contour>
    <contour>
      <point x="350" y="-100" type="move" name="L"/>
    </contour>
    <contour>
      <point x="565" y="0" type="move" name="O"/>
    </contour>
    <contour>
      <point x="650" y="1100" type="move" name="U"/>
    </contour>
  </outline>
</glyph>
<glyph name="LtnSmY" format="2">
  <advance width="976"/>
  <unicode hex="0079"/>
  <anchor x="714" y="-100" name="L"/>
  <anchor x="1233" y="1001" name="R"/>
  <anchor x="654" y="1100" name="U"/>
  <outline>
    <contour>
      <point x="1052" y="1000" type="curve"/>
      <point x="852" y="1000" type="line"/>
      <point x="856" y="984"/>
      <point x="858" y="967"/>
      <point x="858" y="946" type="curve" smooth="yes"/>
      <point x="858" y="789"/>
      <point x="744" y="524"/>
      <point x="603" y="285" type="curve" smooth="yes"/>
      <point x="350" y="-144"/>
      <point x="192" y="-295"/>
      <point x="64" y="-295" type="curve" smooth="yes"/>
      <point x="-2" y="-295"/>
      <point x="-69" y="-254"/>
      <point x="-102" y="-220" type="curve"/>
      <point x="-200" y="-377" type="line"/>
      <point x="-141" y="-430"/>
      <point x="-68" y="-465"/>
      <point x="23" y="-465" type="curve" smooth="yes"/>
      <point x="193" y="-465"/>
      <point x="369" y="-371"/>
      <point x="609" y="0" type="curve" smooth="yes"/>
      <point x="877" y="414"/>
      <point x="1056" y="808"/>
      <point x="1056" y="964" type="curve" smooth="yes"/>
      <point x="1056" y="978"/>
      <point x="1055" y="990"/>
    </contour>
    <contour>
      <point x="347" y="1000" type="curve"/>
      <point x="132" y="1000" type="line"/>
      <point x="279" y="806"/>
      <point x="399" y="397"/>
      <point x="405" y="-63" type="curve"/>
      <point x="549" y="150" type="line"/>
      <point x="549" y="463"/>
      <point x="458" y="848"/>
    </contour>
  </outline>
</glyph>
<glyph name="LtnSmZ" format="1">
  <advance width="967"/>
  <unicode hex="007A"/>
  <outline>
    <contour>
      <point x="272" y="1000" type="line" name="hr00"/>
      <point x="231" y="828" type="line"/>
      <point x="272" y="843"/>
      <point x="351" y="853"/>
      <point x="410" y="853" type="curve" smooth="yes"/>
      <point x="800" y="853" type="line"/>
      <point x="25" y="47" type="line"/>
      <point x="84" y="-25" type="line"/>
      <point x="154" y="45"/>
      <point x="233" y="75"/>
      <point x="302" y="75" type="curve" smooth="yes"/>
      <point x="440" y="75"/>
      <point x="598" y="-25"/>
      <point x="739" y="-25" type="curve" smooth="yes"/>
      <point x="797" y="-25"/>
      <point x="855" y="-15"/>
      <point x="893" y="0" type="curve"/>
      <point x="934" y="172" type="line"/>
      <point x="897" y="153"/>
      <point x="840" y="142"/>
      <point x="782" y="142" type="curve" smooth="yes"/>
      <point x="673" y="142"/>
      <point x="537" y="214"/>
      <point x="433" y="214" type="curve" smooth="yes"/>
      <point x="408" y="214"/>
      <point x="385" y="211"/>
      <point x="362" y="203" type="curve"/>
      <point x="1044" y="907" type="line"/>
      <point x="1067" y="1000" type="line"/>
    </contour>
    <contour>
      <point x="465" y="0" type="move" name="H"/>
    </contour>
    <contour>
      <point x="440" y="-100" type="move" name="L"/>
    </contour>
    <contour>
      <point x="665" y="1100" type="move" name="U"/>
    </contour>
  </outline>
</glyph>
<glyph name="VertLine" format="1">
  <advance width="670"/>
  <unicode hex="007C"/>
  <outline>
    <contour>
      <point x="602" y="1578" type="line" name="hr00"/>
      <point x="112" y="-392" type="line"/>
      <point x="262" y="-392" type="line"/>
      <point x="752" y="1578" type="line"/>
    </contour>
  </outline>
</glyph>
<glyph name="NoBreakSpace" format="1">
  <advance width="530"/>
  <unicode hex="00A0"/>
  <outline>
    <contour>
      <point x="452" y="0" type="move" name="H"/>
    </contour>
    <contour>
      <point x="427" y="-100" type="move" name="L"/>
    </contour>
    <contour>
      <point x="502" y="0" type="move" name="O"/>
    </contour>
    <contour>
      <point x="1214" y="1000" type="move" name="R"/>
    </contour>
    <contour>
      <point x="827" y="1500" type="move" name="U"/>
    </contour>
  </outline>
</glyph>
<glyph name="CentSgn" format="2">
  <advance width="1180"/>
  <unicode hex="00A2"/>
  <outline>
    <contour>
      <point x="1163" y="961" type="line"/>
      <point x="1106" y="1008"/>
      <point x="1005" y="1041"/>
      <point x="878" y="1041" type="curve" smooth="yes"/>
      <point x="576" y="1041"/>
      <point x="346" y="849"/>
      <point x="276" y="569" type="curve" smooth="yes"/>
      <point x="265" y="523"/>
      <point x="259" y="480"/>
      <point x="259" y="438" type="curve" smooth="yes"/>
      <point x="259" y="208"/>
      <point x="422" y="49"/>
      <point x="638" y="49" type="curve" smooth="yes"/>
      <point x="780" y="49"/>
      <point x="858" y="81"/>
      <point x="971" y="152" type="curve"/>
      <point x="993" y="315" type="line"/>
      <point x="892" y="243"/>
      <point x="809" y="203"/>
      <point x="695" y="203" type="curve" smooth="yes"/>
      <point x="543" y="203"/>
      <point x="447" y="309"/>
      <point x="447" y="459" type="curve" smooth="yes"/>
      <point x="447" y="490"/>
      <point x="451" y="524"/>
      <point x="460" y="558" type="curve" smooth="yes"/>
      <point x="514" y="778"/>
      <point x="657" y="887"/>
      <point x="826" y="887" type="curve" smooth="yes"/>
      <point x="924" y="887"/>
      <point x="1018" y="856"/>
      <point x="1088" y="794" type="curve"/>
    </contour>
    <contour>
      <point x="867" y="1294" type="line"/>
      <point x="493" y="-206" type="line"/>
      <point x="623" y="-206" type="line"/>
      <point x="997" y="1294" type="line"/>
    </contour>
  </outline>
</glyph>
<glyph name="PoundSgn" format="2">
  <advance width="1180"/>
  <unicode hex="00A3"/>
  <outline>
    <contour>
      <point x="998" y="176" type="line"/>
      <point x="915" y="163"/>
      <point x="756" y="162"/>
      <point x="559" y="162" type="curve" smooth="yes"/>
      <point x="356" y="162" type="line"/>
      <point x="452" y="238"/>
      <point x="502" y="334"/>
      <point x="532" y="456" type="curve" smooth="yes"/>
      <point x="574" y="622"/>
      <point x="594" y="880"/>
      <point x="637" y="1053" type="curve" smooth="yes"/>
      <point x="681" y="1231"/>
      <point x="784" y="1299"/>
      <point x="908" y="1299" type="curve" smooth="yes"/>
      <point x="966" y="1299"/>
      <point x="1055" y="1276"/>
      <point x="1096" y="1240" type="curve"/>
      <point x="1178" y="1387" type="line"/>
      <point x="1127" y="1430"/>
      <point x="1015" y="1455"/>
      <point x="937" y="1455" type="curve" smooth="yes"/>
      <point x="701" y="1455"/>
      <point x="516" y="1308"/>
      <point x="442" y="1014" type="curve" smooth="yes"/>
      <point x="397" y="832"/>
      <point x="380" y="586"/>
      <point x="329" y="384" type="curve" smooth="yes"/>
      <point x="302" y="274"/>
      <point x="210" y="184"/>
      <point x="116" y="127" type="curve"/>
      <point x="85" y="0" type="line"/>
      <point x="955" y="0" type="line"/>
    </contour>
    <contour>
      <point x="263" y="676" type="line"/>
      <point x="873" y="676" type="line"/>
      <point x="908" y="818" type="line"/>
      <point x="298" y="818" type="line"/>
    </contour>
  </outline>
</glyph>
<glyph name="CurrSgn" format="2">
  <advance width="1180"/>
  <unicode hex="00A4"/>
  <outline>
    <contour>
      <point x="1217" y="376" type="line"/>
      <point x="1056" y="584" type="line"/>
      <point x="1143" y="677"/>
      <point x="1202" y="805"/>
      <point x="1202" y="928" type="curve" smooth="yes"/>
      <point x="1202" y="991"/>
      <point x="1187" y="1051"/>
      <point x="1163" y="1099" type="curve"/>
      <point x="1413" y="1298" type="line"/>
      <point x="1332" y="1402" type="line"/>
      <point x="1077" y="1199" type="line"/>
      <point x="1020" y="1252"/>
      <point x="929" y="1288"/>
      <point x="825" y="1288" type="curve" smooth="yes"/>
      <point x="719" y="1288"/>
      <point x="630" y="1260"/>
      <point x="567" y="1216" type="curve"/>
      <point x="403" y="1430" type="line"/>
      <point x="299" y="1349" type="line"/>
      <point x="461" y="1139" type="line"/>
      <point x="364" y="1049"/>
      <point x="305" y="922"/>
      <point x="305" y="795" type="curve" smooth="yes"/>
      <point x="305" y="733"/>
      <point x="320" y="673"/>
      <point x="345" y="624" type="curve"/>
      <point x="98" y="430" type="line"/>
      <point x="179" y="327" type="line"/>
      <point x="426" y="520" type="line"/>
      <point x="486" y="461"/>
      <point x="588" y="428"/>
      <point x="670" y="428" type="curve" smooth="yes"/>
      <point x="764" y="428"/>
      <point x="861" y="446"/>
      <point x="950" y="503" type="curve"/>
      <point x="1113" y="294" type="line"/>
    </contour>
    <contour>
      <point x="703" y="558" type="curve" smooth="yes"/>
      <point x="552" y="558"/>
      <point x="438" y="668"/>
      <point x="438" y="805" type="curve" smooth="yes"/>
      <point x="438" y="1010"/>
      <point x="619" y="1158"/>
      <point x="812" y="1158" type="curve" smooth="yes"/>
      <point x="959" y="1158"/>
      <point x="1068" y="1044"/>
      <point x="1068" y="910" type="curve" smooth="yes"/>
      <point x="1068" y="711"/>
      <point x="892" y="558"/>
    </contour>
  </outline>
</glyph>
<glyph name="YenSgn" format="2">
  <advance width="1180"/>
  <unicode hex="00A5"/>
  <outline>
    <contour>
      <point x="626" y="549" type="line"/>
      <point x="794" y="661" type="line"/>
      <point x="516" y="1431" type="line"/>
      <point x="296" y="1431" type="line"/>
      <point x="372" y="1285"/>
      <point x="411" y="1172"/>
      <point x="455" y="1044" type="curve" smooth="yes"/>
    </contour>
    <contour>
      <point x="731" y="549" type="line"/>
      <point x="1150" y="1044" type="line" smooth="yes"/>
      <point x="1257" y="1171"/>
      <point x="1337" y="1265"/>
      <point x="1496" y="1431" type="curve"/>
      <point x="1256" y="1431" type="line"/>
      <point x="619" y="661" type="line"/>
    </contour>
    <contour>
      <point x="430" y="0" type="curve"/>
      <point x="650" y="0" type="line"/>
      <point x="655" y="78"/>
      <point x="693" y="233"/>
      <point x="741" y="426" type="curve" smooth="yes"/>
      <point x="804" y="681" type="line"/>
      <point x="614" y="681" type="line"/>
      <point x="551" y="426" type="line" smooth="yes"/>
      <point x="503" y="233"/>
      <point x="464" y="78"/>
    </contour>
    <contour>
      <point x="231" y="367" type="line"/>
      <point x="1039" y="367" type="line"/>
      <point x="1075" y="510" type="line"/>
      <point x="267" y="510" type="line"/>
    </contour>
    <contour>
      <point x="292" y="612" type="line"/>
      <point x="1100" y="612" type="line"/>
      <point x="1136" y="755" type="line"/>
      <point x="328" y="755" type="line"/>
    </contour>
  </outline>
</glyph>
<glyph name="BrokenBar" format="1">
  <advance width="1004"/>
  <unicode hex="00A6"/>
  <outline>
    <contour>
      <point x="488" y="436" type="line" name="hr00"/>
      <point x="284" y="-382" type="line"/>
      <point x="434" y="-382" type="line"/>
      <point x="638" y="436" type="line"/>
    </contour>
    <contour>
      <point x="719" y="760" type="line"/>
      <point x="920" y="1568" type="line"/>
      <point x="770" y="1568" type="line"/>
      <point x="569" y="760" type="line"/>
    </contour>
  </outline>
</glyph>
<glyph name="Diaer" format="2">
  <advance width="660"/>
  <unicode hex="00A8"/>
  <anchor x="656" y="1505" name="U"/>
  <outline>
    <contour>
      <point x="889" y="1338" type="curve" smooth="yes"/>
      <point x="889" y="1399"/>
      <point x="843" y="1450"/>
      <point x="778" y="1450" type="curve" smooth="yes"/>
      <point x="683" y="1450"/>
      <point x="621" y="1372"/>
      <point x="621" y="1299" type="curve" smooth="yes"/>
      <point x="621" y="1238"/>
      <point x="668" y="1186"/>
      <point x="732" y="1186" type="curve" smooth="yes"/>
      <point x="817" y="1186"/>
      <point x="889" y="1259"/>
    </contour>
    <contour>
      <point x="469" y="1338" type="curve" smooth="yes"/>
      <point x="469" y="1399"/>
      <point x="423" y="1450"/>
      <point x="358" y="1450" type="curve" smooth="yes"/>
      <point x="263" y="1450"/>
      <point x="201" y="1372"/>
      <point x="201" y="1299" type="curve" smooth="yes"/>
      <point x="201" y="1238"/>
      <point x="248" y="1186"/>
      <point x="312" y="1186" type="curve" smooth="yes"/>
      <point x="397" y="1186"/>
      <point x="469" y="1259"/>
    </contour>
  </outline>
</glyph>
<glyph name="CopyrightSgn" format="2">
  <advance width="1669"/>
  <unicode hex="00A9"/>
  <outline>
    <contour>
      <point x="1078" y="1338" type="curve" smooth="yes"/>
      <point x="1331" y="1338"/>
      <point x="1551" y="1169"/>
      <point x="1551" y="870" type="curve" smooth="yes"/>
      <point x="1551" y="816"/>
      <point x="1543" y="757"/>
      <point x="1528" y="695" type="curve" smooth="yes"/>
      <point x="1427" y="289"/>
      <point x="1107" y="93"/>
      <point x="808" y="93" type="curve" smooth="yes"/>
      <point x="555" y="93"/>
      <point x="340" y="261"/>
      <point x="340" y="558" type="curve" smooth="yes"/>
      <point x="340" y="613"/>
      <point x="347" y="672"/>
      <point x="363" y="735" type="curve" smooth="yes"/>
      <point x="464" y="1142"/>
      <point x="779" y="1338"/>
    </contour>
    <contour>
      <point x="1107" y="1455" type="curve" smooth="yes"/>
      <point x="749" y="1455"/>
      <point x="360" y="1245"/>
      <point x="238" y="755" type="curve" smooth="yes"/>
      <point x="219" y="677"/>
      <point x="210" y="606"/>
      <point x="210" y="539" type="curve" smooth="yes"/>
      <point x="210" y="176"/>
      <point x="476" y="-25"/>
      <point x="778" y="-25" type="curve" smooth="yes"/>
      <point x="1126" y="-25"/>
      <point x="1528" y="186"/>
      <point x="1653" y="685" type="curve" smooth="yes"/>
      <point x="1671" y="758"/>
      <point x="1679" y="826"/>
      <point x="1679" y="889" type="curve" smooth="yes"/>
      <point x="1679" y="1252"/>
      <point x="1403" y="1455"/>
    </contour>
    <contour>
      <point x="1143" y="495" type="line"/>
      <point x="1055" y="425"/>
      <point x="976" y="377"/>
      <point x="883" y="377" type="curve" smooth="yes"/>
      <point x="742" y="377"/>
      <point x="658" y="488"/>
      <point x="658" y="651" type="curve" smooth="yes"/>
      <point x="658" y="680"/>
      <point x="662" y="710"/>
      <point x="669" y="740" type="curve" smooth="yes"/>
      <point x="724" y="962"/>
      <point x="865" y="1063"/>
      <point x="1020" y="1063" type="curve" smooth="yes"/>
      <point x="1097" y="1063"/>
      <point x="1178" y="1037"/>
      <point x="1240" y="965" type="curve"/>
      <point x="1310" y="1083" type="line"/>
      <point x="1235" y="1150"/>
      <point x="1137" y="1171"/>
      <point x="1046" y="1171" type="curve" smooth="yes"/>
      <point x="842" y="1171"/>
      <point x="616" y="1047"/>
      <point x="541" y="746" type="curve" smooth="yes"/>
      <point x="530" y="701"/>
      <point x="524" y="657"/>
      <point x="524" y="615" type="curve" smooth="yes"/>
      <point x="524" y="414"/>
      <point x="650" y="265"/>
      <point x="846" y="265" type="curve" smooth="yes"/>
      <point x="943" y="265"/>
      <point x="1045" y="300"/>
      <point x="1136" y="368" type="curve"/>
    </contour>
  </outline>
</glyph>
<glyph name="FemOrdIndicator" format="2">
  <advance width="788"/>
  <unicode hex="00AA"/>
  <outline>
    <contour>
      <point x="140" y="490" type="line"/>
      <point x="832" y="490" type="line"/>
      <point x="856" y="588" type="line"/>
      <point x="164" y="588" type="line"/>
    </contour>
    <contour>
      <point x="846" y="666" type="line"/>
      <point x="848" y="738"/>
      <point x="845" y="844"/>
      <point x="885" y="1004" type="curve" smooth="yes"/>
      <point x="959" y="1300" type="line"/>
      <point x="892" y="1319"/>
      <point x="791" y="1330"/>
      <point x="700" y="1330" type="curve" smooth="yes"/>
      <point x="449" y="1330"/>
      <point x="292" y="1140"/>
      <point x="242" y="937" type="curve" smooth="yes"/>
      <point x="233" y="902"/>
      <point x="229" y="870"/>
      <point x="229" y="841" type="curve" smooth="yes"/>
      <point x="229" y="720"/>
      <point x="294" y="651"/>
      <point x="388" y="651" type="curve" smooth="yes"/>
      <point x="515" y="651"/>
      <point x="669" y="806"/>
      <point x="766" y="965" type="curve"/>
      <point x="750" y="902" type="line" smooth="yes"/>
      <point x="732" y="831"/>
      <point x="724" y="717"/>
      <point x="724" y="666" type="curve"/>
    </contour>
    <contour>
      <point x="793" y="1163" type="line" smooth="yes"/>
      <point x="768" y="1073"/>
      <point x="522" y="759"/>
      <point x="426" y="759" type="curve" smooth="yes"/>
      <point x="385" y="759"/>
      <point x="363" y="805"/>
      <point x="363" y="869" type="curve" smooth="yes"/>
      <point x="363" y="890"/>
      <point x="366" y="913"/>
      <point x="372" y="937" type="curve" smooth="yes"/>
      <point x="410" y="1091"/>
      <point x="501" y="1227"/>
      <point x="674" y="1227" type="curve" smooth="yes"/>
      <point x="744" y="1227"/>
      <point x="785" y="1219"/>
      <point x="807" y="1214" type="curve"/>
    </contour>
  </outline>
</glyph>
<glyph name="LftPtngDblAngQuotMrk" format="1">
  <advance width="1280"/>
  <unicode hex="00AB"/>
  <outline>
    <contour>
      <point x="635" y="0" type="line" name="hr01"/>
      <point x="370" y="502" type="line" name="hr02"/>
      <point x="884" y="1000" type="line"/>
      <point x="679" y="1000" type="line"/>
      <point x="140" y="502" type="line"/>
      <point x="463" y="0" type="line"/>
    </contour>
    <contour>
      <point x="1125" y="0" type="line"/>
      <point x="860" y="502" type="line"/>
      <point x="1374" y="1000" type="line"/>
      <point x="1169" y="1000" type="line"/>
      <point x="630" y="502" type="line"/>
      <point x="953" y="0" type="line"/>
    </contour>
  </outline>
</glyph>
<glyph name="NotSgn" format="1">
  <advance width="1180"/>
  <unicode hex="00AC"/>
  <outline>
    <contour>
      <point x="1088" y="333" type="line" name="hr00"/>
      <point x="1200" y="784" type="line"/>
      <point x="245" y="784" type="line"/>
      <point x="208" y="637" type="line"/>
      <point x="1013" y="637" type="line"/>
      <point x="938" y="333" type="line"/>
    </contour>
  </outline>
</glyph>
<glyph name="Macron" format="1">
  <advance width="690"/>
  <unicode hex="00AF"/>
  <outline>
    <contour>
      <point x="242" y="1215" type="line" name="hr00"/>
      <point x="952" y="1215" type="line"/>
      <point x="989" y="1362" type="line"/>
      <point x="279" y="1362" type="line"/>
    </contour>
  </outline>
</glyph>
<glyph name="DegreeSgn" format="1">
  <advance width="620"/>
  <unicode hex="00B0"/>
  <outline>
    <contour>
      <point x="528" y="1078" type="curve" smooth="yes" name="hr00"/>
      <point x="464" y="1078"/>
      <point x="422" y="1121"/>
      <point x="422" y="1179" type="curve" smooth="yes"/>
      <point x="422" y="1268"/>
      <point x="512" y="1343"/>
      <point x="594" y="1343" type="curve" smooth="yes"/>
      <point x="658" y="1343"/>
      <point x="700" y="1301"/>
      <point x="700" y="1243" type="curve" smooth="yes"/>
      <point x="700" y="1153"/>
      <point x="611" y="1078"/>
    </contour>
    <contour>
      <point x="304" y="1164" type="curve" smooth="yes"/>
      <point x="304" y="1052"/>
      <point x="390" y="965"/>
      <point x="510" y="965" type="curve" smooth="yes"/>
      <point x="673" y="965"/>
      <point x="818" y="1104"/>
      <point x="818" y="1257" type="curve" smooth="yes"/>
      <point x="818" y="1369"/>
      <point x="732" y="1455"/>
      <point x="612" y="1455" type="curve" smooth="yes"/>
      <point x="450" y="1455"/>
      <point x="304" y="1317"/>
    </contour>
  </outline>
</glyph>
<glyph name="PlusMinusSgn" format="1">
  <advance width="1180"/>
  <unicode hex="00B1"/>
  <outline>
    <contour>
      <point x="298" y="818" type="line" name="hr00"/>
      <point x="665" y="818" type="line"/>
      <point x="576" y="461" type="line"/>
      <point x="731" y="461" type="line"/>
      <point x="820" y="818" type="line"/>
      <point x="1188" y="818" type="line"/>
      <point x="1225" y="965" type="line"/>
      <point x="857" y="965" type="line"/>
      <point x="950" y="1338" type="line"/>
      <point x="795" y="1338" type="line"/>
      <point x="702" y="965" type="line"/>
      <point x="335" y="965" type="line"/>
    </contour>
    <contour>
      <point x="143" y="196" type="line"/>
      <point x="1033" y="196" type="line"/>
      <point x="1070" y="343" type="line"/>
      <point x="180" y="343" type="line"/>
    </contour>
  </outline>
</glyph>
<glyph name="SupTwo" format="2">
  <advance width="820"/>
  <unicode hex="00B2"/>
  <anchor x="513" y="615" name="L"/>
  <anchor x="778" y="1675" name="U"/>
  <outline>
    <contour>
      <point x="855" y="780" type="line"/>
      <point x="797" y="772"/>
      <point x="686" y="771"/>
      <point x="549" y="771" type="curve" smooth="yes"/>
      <point x="370" y="771" type="line"/>
      <point x="659" y="921"/>
      <point x="958" y="1205"/>
      <point x="958" y="1380" type="curve" smooth="yes"/>
      <point x="958" y="1508"/>
      <point x="864" y="1612"/>
      <point x="700" y="1612" type="curve" smooth="yes"/>
      <point x="582" y="1612"/>
      <point x="453" y="1559"/>
      <point x="377" y="1488" type="curve"/>
      <point x="383" y="1380" type="line"/>
      <point x="463" y="1448"/>
      <point x="573" y="1497"/>
      <point x="659" y="1497" type="curve" smooth="yes"/>
      <point x="752" y="1497"/>
      <point x="813" y="1445"/>
      <point x="813" y="1357" type="curve" smooth="yes"/>
      <point x="813" y="1217"/>
      <point x="465" y="917"/>
      <point x="182" y="775" type="curve"/>
      <point x="153" y="666" type="line"/>
      <point x="825" y="666" type="line"/>
    </contour>
  </outline>
</glyph>
<glyph name="SupThree" format="2">
  <advance width="826"/>
  <unicode hex="00B3"/>
  <anchor x="500" y="615" name="L"/>
  <anchor x="785" y="1674" name="U"/>
  <outline>
    <contour>
      <point x="533" y="1234" type="line"/>
      <point x="505" y="1126" type="line"/>
      <point x="554" y="1126" type="line" smooth="yes"/>
      <point x="701" y="1126"/>
      <point x="801" y="1074"/>
      <point x="801" y="989" type="curve" smooth="yes"/>
      <point x="801" y="854"/>
      <point x="657" y="776"/>
      <point x="526" y="776" type="curve" smooth="yes"/>
      <point x="400" y="776"/>
      <point x="322" y="828"/>
      <point x="267" y="906" type="curve"/>
      <point x="213" y="769" type="line"/>
      <point x="270" y="707"/>
      <point x="379" y="664"/>
      <point x="503" y="664" type="curve" smooth="yes"/>
      <point x="710" y="664"/>
      <point x="939" y="789"/>
      <point x="939" y="989" type="curve" smooth="yes"/>
      <point x="939" y="1116"/>
      <point x="821" y="1176"/>
      <point x="738" y="1190" type="curve"/>
      <point x="872" y="1218"/>
      <point x="1026" y="1301"/>
      <point x="1026" y="1436" type="curve" smooth="yes"/>
      <point x="1026" y="1550"/>
      <point x="891" y="1626"/>
      <point x="736" y="1626" type="curve" smooth="yes"/>
      <point x="620" y="1626"/>
      <point x="515" y="1582"/>
      <point x="443" y="1524" type="curve"/>
      <point x="439" y="1416" type="line"/>
      <point x="538" y="1490"/>
      <point x="627" y="1515"/>
      <point x="735" y="1515" type="curve" smooth="yes"/>
      <point x="810" y="1515"/>
      <point x="888" y="1483"/>
      <point x="888" y="1419" type="curve" smooth="yes"/>
      <point x="888" y="1297"/>
      <point x="687" y="1234"/>
      <point x="582" y="1234" type="curve" smooth="yes"/>
    </contour>
  </outline>
</glyph>
<glyph name="AcuteAccent" format="1">
  <advance width="560"/>
  <unicode hex="00B4"/>
  <outline>
    <contour>
      <point x="591" y="1568" type="line" name="hr00"/>
      <point x="166" y="1147" type="line"/>
      <point x="336" y="1147" type="line"/>
      <point x="840" y="1568" type="line"/>
    </contour>
    <contour>
      <point x="528" y="1635" type="move" name="U"/>
    </contour>
  </outline>
</glyph>
<glyph name="PilcrowSgn" format="1">
  <advance width="1005"/>
  <unicode hex="00B6"/>
  <outline>
    <contour>
      <point x="1233" y="1318" type="line" name="hr00"/>
      <point x="1261" y="1431" type="line"/>
      <point x="736" y="1431" type="line" smooth="yes"/>
      <point x="470" y="1431"/>
      <point x="250" y="1279"/>
      <point x="250" y="1017" type="curve" smooth="yes"/>
      <point x="250" y="824"/>
      <point x="427" y="750"/>
      <point x="546" y="750" type="curve"/>
      <point x="360" y="0" type="line"/>
      <point x="495" y="0" type="line"/>
      <point x="823" y="1318" type="line"/>
      <point x="983" y="1318" type="line"/>
      <point x="655" y="0" type="line"/>
      <point x="790" y="0" type="line"/>
      <point x="1118" y="1318" type="line"/>
    </contour>
  </outline>
</glyph>
<glyph name="MiddleDot" format="2">
  <advance width="659"/>
  <unicode hex="00B7"/>
  <outline>
    <contour>
      <point x="315" y="677" type="curve" smooth="yes"/>
      <point x="315" y="615"/>
      <point x="365" y="563"/>
      <point x="429" y="563" type="curve" smooth="yes"/>
      <point x="513" y="563"/>
      <point x="589" y="632"/>
      <point x="589" y="712" type="curve" smooth="yes"/>
      <point x="589" y="773"/>
      <point x="539" y="826"/>
      <point x="474" y="826" type="curve" smooth="yes"/>
      <point x="390" y="826"/>
      <point x="315" y="757"/>
    </contour>
  </outline>
</glyph>
<glyph name="SupOne" format="1">
  <advance width="820"/>
  <unicode hex="00B9"/>
  <outline>
    <contour>
      <point x="803" y="775" type="line" name="hr00"/>
      <point x="582" y="775" type="line"/>
      <point x="806" y="1608" type="line"/>
      <point x="687" y="1608" type="line"/>
      <point x="409" y="1474" type="line"/>
      <point x="396" y="1359" type="line"/>
      <point x="635" y="1469" type="line"/>
      <point x="449" y="775" type="line"/>
      <point x="229" y="775" type="line"/>
      <point x="200" y="666" type="line"/>
      <point x="774" y="666" type="line"/>
    </contour>
    <contour>
      <point x="512" y="615" type="move" name="L"/>
    </contour>
    <contour>
      <point x="777" y="1675" type="move" name="U"/>
    </contour>
  </outline>
</glyph>
<glyph name="MascOrdIndicator" format="1">
  <advance width="778"/>
  <unicode hex="00BA"/>
  <outline>
    <contour>
      <point x="509" y="651" type="curve" smooth="yes" name="hr00"/>
      <point x="752" y="651"/>
      <point x="908" y="847"/>
      <point x="908" y="1066" type="curve" smooth="yes"/>
      <point x="908" y="1218"/>
      <point x="820" y="1329"/>
      <point x="652" y="1329" type="curve" smooth="yes"/>
      <point x="405" y="1329"/>
      <point x="251" y="1137"/>
      <point x="251" y="914" type="curve" smooth="yes"/>
      <point x="251" y="754"/>
      <point x="347" y="651"/>
    </contour>
    <contour>
      <point x="531" y="756" type="curve" smooth="yes"/>
      <point x="442" y="756"/>
      <point x="380" y="821"/>
      <point x="380" y="926" type="curve" smooth="yes"/>
      <point x="380" y="1069"/>
      <point x="478" y="1224"/>
      <point x="629" y="1224" type="curve" smooth="yes"/>
      <point x="718" y="1224"/>
      <point x="778" y="1155"/>
      <point x="778" y="1049" type="curve" smooth="yes"/>
      <point x="778" y="908"/>
      <point x="680" y="756"/>
    </contour>
    <contour>
      <point x="133" y="490" type="line"/>
      <point x="798" y="490" type="line"/>
      <point x="822" y="588" type="line"/>
      <point x="157" y="588" type="line"/>
    </contour>
  </outline>
</glyph>
<glyph name="RtPtngDblAngQuotMrk" format="1">
  <advance width="1280"/>
  <unicode hex="00BB"/>
  <outline>
    <contour>
      <point x="747" y="0" type="line" name="hr01"/>
      <point x="1290" y="502" type="line" name="hr02"/>
      <point x="969" y="1000" type="line"/>
      <point x="794" y="1000" type="line"/>
      <point x="1060" y="502" type="line"/>
      <point x="545" y="0" type="line"/>
    </contour>
    <contour>
      <point x="257" y="0" type="line"/>
      <point x="800" y="502" type="line"/>
      <point x="479" y="1000" type="line"/>
      <point x="304" y="1000" type="line"/>
      <point x="570" y="502" type="line"/>
      <point x="55" y="0" type="line"/>
    </contour>
  </outline>
</glyph>
<glyph name="VulgFracOneQuarter" format="1">
  <advance width="1590"/>
  <unicode hex="00BC"/>
  <outline>
    <contour>
      <point x="1528" y="255" type="line" name="hr01"/>
      <point x="1554" y="358" type="line"/>
      <point x="1034" y="358" type="line"/>
      <point x="1376" y="706" type="line"/>
      <point x="1200" y="0" type="line" name="hr02"/>
      <point x="1350" y="0" type="line"/>
      <point x="1355" y="64"/>
      <point x="1385" y="204"/>
      <point x="1404" y="279" type="curve" smooth="yes"/>
      <point x="1552" y="872" type="line"/>
      <point x="1407" y="872" type="line"/>
      <point x="889" y="358" type="line"/>
      <point x="873" y="255" type="line" name="hr03"/>
    </contour>
    <contour>
      <point x="434" y="799" type="line"/>
      <point x="249" y="799" type="line"/>
      <point x="223" y="696" type="line"/>
      <point x="718" y="696" type="line"/>
      <point x="744" y="799" type="line"/>
      <point x="559" y="799" type="line"/>
      <point x="750" y="1568" type="line"/>
      <point x="640" y="1568" type="line"/>
      <point x="400" y="1446" type="line"/>
      <point x="393" y="1338" type="line"/>
      <point x="594" y="1441" type="line"/>
    </contour>
    <contour>
      <point x="1626" y="1568" type="line"/>
      <point x="152" y="-49" type="line"/>
      <point x="292" y="-49" type="line"/>
      <point x="1767" y="1568" type="line"/>
    </contour>
  </outline>
</glyph>
<glyph name="VulgFracOneHalf" format="2">
  <advance width="1590"/>
  <unicode hex="00BD"/>
  <outline>
    <contour>
      <point x="1586" y="1568" type="line"/>
      <point x="112" y="-49" type="line"/>
      <point x="252" y="-49" type="line"/>
      <point x="1727" y="1568" type="line"/>
    </contour>
    <contour>
      <point x="384" y="799" type="line"/>
      <point x="199" y="799" type="line"/>
      <point x="173" y="696" type="line"/>
      <point x="668" y="696" type="line"/>
      <point x="694" y="799" type="line"/>
      <point x="509" y="799" type="line"/>
      <point x="700" y="1568" type="line"/>
      <point x="590" y="1568" type="line"/>
      <point x="350" y="1446" type="line"/>
      <point x="343" y="1338" type="line"/>
      <point x="544" y="1441" type="line"/>
    </contour>
    <contour>
      <point x="1518" y="113" type="line"/>
      <point x="1468" y="105"/>
      <point x="1373" y="103"/>
      <point x="1255" y="103" type="curve" smooth="yes"/>
      <point x="1110" y="103" type="line"/>
      <point x="1373" y="267"/>
      <point x="1606" y="488"/>
      <point x="1606" y="668" type="curve" smooth="yes"/>
      <point x="1606" y="790"/>
      <point x="1512" y="877"/>
      <point x="1377" y="877" type="curve" smooth="yes"/>
      <point x="1286" y="877"/>
      <point x="1169" y="825"/>
      <point x="1104" y="760" type="curve"/>
      <point x="1104" y="652" type="line"/>
      <point x="1173" y="715"/>
      <point x="1275" y="760"/>
      <point x="1349" y="760" type="curve" smooth="yes"/>
      <point x="1420" y="760"/>
      <point x="1473" y="727"/>
      <point x="1473" y="652" type="curve" smooth="yes"/>
      <point x="1473" y="483"/>
      <point x="1172" y="244"/>
      <point x="941" y="108" type="curve"/>
      <point x="915" y="0" type="line"/>
      <point x="1490" y="0" type="line"/>
    </contour>
  </outline>
</glyph>
<glyph name="VulgFracThreeQuarters" format="2">
  <advance width="1590"/>
  <unicode hex="00BE"/>
  <outline>
    <contour>
      <point x="1508" y="255" type="line"/>
      <point x="1534" y="358" type="line"/>
      <point x="1014" y="358" type="line"/>
      <point x="1356" y="706" type="line"/>
      <point x="1180" y="0" type="line"/>
      <point x="1330" y="0" type="line"/>
      <point x="1335" y="64"/>
      <point x="1365" y="204"/>
      <point x="1384" y="279" type="curve" smooth="yes"/>
      <point x="1532" y="872" type="line"/>
      <point x="1387" y="872" type="line"/>
      <point x="869" y="358" type="line"/>
      <point x="853" y="255" type="line"/>
    </contour>
    <contour>
      <point x="1611" y="1568" type="line"/>
      <point x="137" y="-49" type="line"/>
      <point x="277" y="-49" type="line"/>
      <point x="1752" y="1568" type="line"/>
    </contour>
    <contour>
      <point x="211" y="781" type="line"/>
      <point x="256" y="732"/>
      <point x="364" y="681"/>
      <point x="464" y="681" type="curve" smooth="yes"/>
      <point x="644" y="681"/>
      <point x="830" y="807"/>
      <point x="830" y="989" type="curve" smooth="yes"/>
      <point x="830" y="1099"/>
      <point x="729" y="1169"/>
      <point x="658" y="1176" type="curve"/>
      <point x="776" y="1196"/>
      <point x="896" y="1270"/>
      <point x="896" y="1391" type="curve" smooth="yes"/>
      <point x="896" y="1493"/>
      <point x="794" y="1573"/>
      <point x="667" y="1573" type="curve" smooth="yes"/>
      <point x="579" y="1573"/>
      <point x="510" y="1546"/>
      <point x="427" y="1495" type="curve"/>
      <point x="427" y="1392" type="line"/>
      <point x="522" y="1448"/>
      <point x="575" y="1460"/>
      <point x="639" y="1460" type="curve" smooth="yes"/>
      <point x="705" y="1460"/>
      <point x="772" y="1423"/>
      <point x="772" y="1363" type="curve" smooth="yes"/>
      <point x="772" y="1266"/>
      <point x="612" y="1220"/>
      <point x="524" y="1220" type="curve" smooth="yes"/>
      <point x="479" y="1220" type="line"/>
      <point x="452" y="1112" type="line"/>
      <point x="497" y="1112" type="line" smooth="yes"/>
      <point x="620" y="1112"/>
      <point x="705" y="1053"/>
      <point x="705" y="975" type="curve" smooth="yes"/>
      <point x="705" y="864"/>
      <point x="587" y="794"/>
      <point x="477" y="794" type="curve" smooth="yes"/>
      <point x="375" y="794"/>
      <point x="298" y="848"/>
      <point x="258" y="909" type="curve"/>
    </contour>
  </outline>
</glyph>
<glyph name="InvQstnMrk" format="1">
  <advance width="1030"/>
  <unicode hex="00BF"/>
  <outline>
    <contour>
      <point x="695" y="-119" type="line" name="hr00"/>
      <point x="600" y="-196"/>
      <point x="500" y="-230"/>
      <point x="420" y="-230" type="curve" smooth="yes"/>
      <point x="307" y="-230"/>
      <point x="261" y="-174"/>
      <point x="261" y="-108" type="curve" smooth="yes"/>
      <point x="261" y="-13"/>
      <point x="359" y="67"/>
      <point x="461" y="147" type="curve" smooth="yes"/>
      <point x="558" y="223"/>
      <point x="650" y="353"/>
      <point x="718" y="676" type="curve"/>
      <point x="543" y="676" type="line"/>
      <point x="477" y="379"/>
      <point x="405" y="281"/>
      <point x="282" y="186" type="curve" smooth="yes"/>
      <point x="161" y="93"/>
      <point x="47" y="-17"/>
      <point x="47" y="-168" type="curve" smooth="yes"/>
      <point x="47" y="-316"/>
      <point x="188" y="-402"/>
      <point x="349" y="-402" type="curve" smooth="yes"/>
      <point x="474" y="-402"/>
      <point x="614" y="-356"/>
      <point x="695" y="-294" type="curve"/>
    </contour>
    <contour>
      <point x="844" y="977" type="curve" smooth="yes"/>
      <point x="844" y="1039"/>
      <point x="794" y="1091"/>
      <point x="730" y="1091" type="curve" smooth="yes"/>
      <point x="645" y="1091"/>
      <point x="570" y="1021"/>
      <point x="570" y="941" type="curve" smooth="yes"/>
      <point x="570" y="880"/>
      <point x="620" y="828"/>
      <point x="684" y="828" type="curve" smooth="yes"/>
      <point x="768" y="828"/>
      <point x="844" y="897"/>
    </contour>
  </outline>
</glyph>
<glyph name="LtnCapACircum" format="1">
  <advance width="1395"/>
  <unicode hex="00C2"/>
  <outline>
    <component base="LtnCapA"/>
    <component base="CombCircum" xOffset="1320" yOffset="430"/>
    <contour>
      <point x="1170" y="0" type="move" name="H"/>
    </contour>
    <contour>
      <point x="600" y="-100" type="move" name="L"/>
    </contour>
    <contour>
      <point x="1390" y="0" type="move" name="O"/>
    </contour>
    <contour>
      <point x="1099" y="2065" type="move" name="U"/>
    </contour>
  </outline>
</glyph>
<glyph name="LtnCapATilde" format="1">
  <advance width="1395"/>
  <unicode hex="00C3"/>
  <outline>
    <component base="LtnCapA"/>
    <component base="CombTilde" xOffset="1385" yOffset="430"/>
    <contour>
      <point x="1170" y="0" type="move" name="H"/>
    </contour>
    <contour>
      <point x="600" y="-100" type="move" name="L"/>
    </contour>
    <contour>
      <point x="1390" y="0" type="move" name="O"/>
    </contour>
    <contour>
      <point x="1095" y="1905" type="move" name="U"/>
    </contour>
  </outline>
</glyph>
<glyph name="LtnCapADiaer" format="1">
  <advance width="1395"/>
  <unicode hex="00C4"/>
  <outline>
    <component base="LtnCapA"/>
    <component base="CombDiaer" xOffset="1350" yOffset="430"/>
    <contour>
      <point x="1170" y="0" type="move" name="H"/>
    </contour>
    <contour>
      <point x="600" y="-100" type="move" name="L"/>
    </contour>
    <contour>
      <point x="1390" y="0" type="move" name="O"/>
    </contour>
    <contour>
      <point x="1097" y="1935" type="move" name="U"/>
    </contour>
  </outline>
</glyph>
<glyph name="LtnCapAe" format="2">
  <advance width="1785"/>
  <unicode hex="00C6"/>
  <anchor x="930" y="-100" name="L"/>
  <anchor x="1337" y="1530" name="U"/>
  <outline>
    <contour>
      <point x="1687" y="671" type="line"/>
      <point x="1726" y="828" type="line"/>
      <point x="1256" y="828" type="line"/>
      <point x="1366" y="1269" type="line"/>
      <point x="1911" y="1269" type="line"/>
      <point x="1951" y="1431" type="line"/>
      <point x="1086" y="1431" type="line"/>
      <point x="312" y="391" type="line" smooth="yes"/>
      <point x="208" y="252"/>
      <point x="126" y="145"/>
      <point x="0" y="0" type="curve"/>
      <point x="220" y="0" type="line"/>
      <point x="504" y="377" type="line"/>
      <point x="952" y="377" type="line"/>
      <point x="887" y="121"/>
      <point x="865" y="45"/>
      <point x="845" y="0" type="curve"/>
      <point x="1625" y="0" type="line"/>
      <point x="1668" y="176" type="line"/>
      <point x="1585" y="163"/>
      <point x="1451" y="162"/>
      <point x="1254" y="162" type="curve" smooth="yes"/>
      <point x="1090" y="162" type="line"/>
      <point x="1217" y="671" type="line"/>
    </contour>
    <contour>
      <point x="991" y="529" type="line"/>
      <point x="618" y="529" type="line"/>
      <point x="1176" y="1269" type="line"/>
    </contour>
  </outline>
</glyph>
<glyph name="LtnCapCCedilla" format="1">
  <advance width="1341"/>
  <unicode hex="00C7"/>
  <outline>
    <component base="LtnCapC"/>
    <component base="CombCedilla" xOffset="1180"/>
    <contour>
      <point x="530" y="-520" type="move" name="L"/>
    </contour>
    <contour>
      <point x="1070" y="1530" type="move" name="U"/>
    </contour>
  </outline>
</glyph>
<glyph name="LtnCapIAcute" format="1">
  <advance width="955"/>
  <unicode hex="00CD"/>
  <outline>
    <component base="LtnCapI"/>
    <component base="CombAcute" xOffset="1154" yOffset="430"/>
    <contour>
      <point x="417" y="0" type="move" name="H"/>
    </contour>
    <contour>
      <point x="392" y="-100" type="move" name="L"/>
    </contour>
    <contour>
      <point x="613" y="0" type="move" name="O"/>
    </contour>
    <contour>
      <point x="1215" y="1200" type="move" name="R"/>
    </contour>
    <contour>
      <point x="933" y="2065" type="move" name="U"/>
    </contour>
  </outline>
</glyph>
<glyph name="LtnCapICircum" format="1">
  <advance width="955"/>
  <unicode hex="00CE"/>
  <outline>
    <component base="LtnCapI"/>
    <component base="CombCircum" xOffset="1119" yOffset="430"/>
    <contour>
      <point x="417" y="0" type="move" name="H"/>
    </contour>
    <contour>
      <point x="392" y="-100" type="move" name="L"/>
    </contour>
    <contour>
      <point x="613" y="0" type="move" name="O"/>
    </contour>
    <contour>
      <point x="1215" y="1200" type="move" name="R"/>
    </contour>
    <contour>
      <point x="898" y="2065" type="move" name="U"/>
    </contour>
  </outline>
</glyph>
<glyph name="LtnCapIDiaer" format="1">
  <advance width="955"/>
  <unicode hex="00CF"/>
  <outline>
    <component base="LtnCapI"/>
    <component base="CombDiaer" xOffset="1149" yOffset="430"/>
    <contour>
      <point x="417" y="0" type="move" name="H"/>
    </contour>
    <contour>
      <point x="392" y="-100" type="move" name="L"/>
    </contour>
    <contour>
      <point x="613" y="0" type="move" name="O"/>
    </contour>
    <contour>
      <point x="1215" y="1200" type="move" name="R"/>
    </contour>
    <contour>
      <point x="896" y="1935" type="move" name="U"/>
    </contour>
  </outline>
</glyph>
<glyph name="LtnCapNTilde" format="1">
  <advance width="1480"/>
  <unicode hex="00D1"/>
  <outline>
    <component base="LtnCapN"/>
    <component base="CombTilde" xOffset="1444" yOffset="430"/>
    <contour>
      <point x="1170" y="0" type="move" name="H"/>
    </contour>
    <contour>
      <point x="652" y="-100" type="move" name="L"/>
    </contour>
    <contour>
      <point x="1154" y="1905" type="move" name="U"/>
    </contour>
  </outline>
</glyph>
<glyph name="LtnCapOGrave" format="1">
  <advance width="1447"/>
  <unicode hex="00D2"/>
  <outline>
    <component base="LtnCapO"/>
    <component base="CombGrave" xOffset="1374" yOffset="430"/>
    <contour>
      <point x="657" y="0" type="move" name="H"/>
    </contour>
    <contour>
      <point x="632" y="-100" type="move" name="L"/>
    </contour>
    <contour>
      <point x="896" y="0" type="move" name="O"/>
    </contour>
    <contour>
      <point x="1700" y="1200" type="move" name="R"/>
    </contour>
    <contour>
      <point x="1173" y="2065" type="move" name="U"/>
    </contour>
  </outline>
</glyph>
<glyph name="LtnCapOAcute" format="1">
  <advance width="1447"/>
  <unicode hex="00D3"/>
  <outline>
    <component base="LtnCapO"/>
    <component base="CombAcute" xOffset="1394" yOffset="430"/>
    <contour>
      <point x="657" y="0" type="move" name="H"/>
    </contour>
    <contour>
      <point x="632" y="-100" type="move" name="L"/>
    </contour>
    <contour>
      <point x="896" y="0" type="move" name="O"/>
    </contour>
    <contour>
      <point x="1700" y="1200" type="move" name="R"/>
    </contour>
    <contour>
      <point x="1173" y="2065" type="move" name="U"/>
    </contour>
  </outline>
</glyph>
<glyph name="LtnCapOCircum" format="1">
  <advance width="1447"/>
  <unicode hex="00D4"/>
  <outline>
    <component base="LtnCapO"/>
    <component base="CombCircum" xOffset="1359" yOffset="430"/>
    <contour>
      <point x="657" y="0" type="move" name="H"/>
    </contour>
    <contour>
      <point x="632" y="-100" type="move" name="L"/>
    </contour>
    <contour>
      <point x="896" y="0" type="move" name="O"/>
    </contour>
    <contour>
      <point x="1700" y="1200" type="move" name="R"/>
    </contour>
    <contour>
      <point x="1138" y="2065" type="move" name="U"/>
    </contour>
  </outline>
</glyph>
<glyph name="LtnCapODiaer" format="1">
  <advance width="1447"/>
  <unicode hex="00D6"/>
  <outline>
    <component base="LtnCapO"/>
    <component base="CombDiaer" xOffset="1389" yOffset="430"/>
    <contour>
      <point x="657" y="0" type="move" name="H"/>
    </contour>
    <contour>
      <point x="632" y="-100" type="move" name="L"/>
    </contour>
    <contour>
      <point x="896" y="0" type="move" name="O"/>
    </contour>
    <contour>
      <point x="1700" y="1200" type="move" name="R"/>
    </contour>
    <contour>
      <point x="1136" y="1935" type="move" name="U"/>
    </contour>
  </outline>
</glyph>
<glyph name="MultSgn" format="1">
  <advance width="1180"/>
  <unicode hex="00D7"/>
  <outline>
    <contour>
      <point x="372" y="1008" type="line" name="hr00"/>
      <point x="615" y="714" type="line"/>
      <point x="276" y="430" type="line"/>
      <point x="370" y="318" type="line"/>
      <point x="708" y="601" type="line"/>
      <point x="942" y="318" type="line"/>
      <point x="1059" y="419" type="line"/>
      <point x="826" y="703" type="line"/>
      <point x="1162" y="987" type="line"/>
      <point x="1069" y="1100" type="line"/>
      <point x="734" y="814" type="line"/>
      <point x="490" y="1108" type="line"/>
    </contour>
  </outline>
</glyph>
<glyph name="LtnCapUAcute" format="1">
  <advance width="1420"/>
  <unicode hex="00DA"/>
  <outline>
    <component base="LtnCapU"/>
    <component base="CombAcute" xOffset="1384" yOffset="430"/>
    <contour>
      <point x="647" y="0" type="move" name="H"/>
    </contour>
    <contour>
      <point x="622" y="-100" type="move" name="L"/>
    </contour>
    <contour>
      <point x="865" y="0" type="move" name="O"/>
    </contour>
    <contour>
      <point x="1640" y="1200" type="move" name="R"/>
    </contour>
    <contour>
      <point x="1163" y="2065" type="move" name="U"/>
    </contour>
  </outline>
</glyph>
<glyph name="LtnCapThorn" format="1">
  <advance width="1176"/>
  <unicode hex="00DE"/>
  <outline>
    <contour>
      <point x="320" y="0" type="line" name="hr00"/>
      <point x="324" y="76"/>
      <point x="366" y="249"/>
      <point x="377" y="289" type="curve"/>
      <point x="440" y="282"/>
      <point x="532" y="279"/>
      <point x="605" y="279" type="curve" smooth="yes"/>
      <point x="968" y="279"/>
      <point x="1246" y="470"/>
      <point x="1246" y="826" type="curve" smooth="yes"/>
      <point x="1246" y="1041"/>
      <point x="1081" y="1176"/>
      <point x="799" y="1176" type="curve" smooth="yes"/>
      <point x="720" y="1176"/>
      <point x="665" y="1175"/>
      <point x="597" y="1173" type="curve"/>
      <point x="661" y="1431" type="line"/>
      <point x="456" y="1431" type="line"/>
      <point x="452" y="1352"/>
      <point x="407" y="1172"/>
      <point x="359" y="980" type="curve" smooth="yes"/>
      <point x="221" y="426" type="line" smooth="yes"/>
      <point x="173" y="233"/>
      <point x="134" y="78"/>
      <point x="100" y="0" type="curve"/>
    </contour>
    <contour>
      <point x="557" y="1014" type="line"/>
      <point x="626" y="1018"/>
      <point x="665" y="1019"/>
      <point x="759" y="1019" type="curve" smooth="yes"/>
      <point x="974" y="1019"/>
      <point x="1050" y="911"/>
      <point x="1050" y="787" type="curve" smooth="yes"/>
      <point x="1050" y="575"/>
      <point x="917" y="431"/>
      <point x="617" y="431" type="curve" smooth="yes"/>
      <point x="542" y="431"/>
      <point x="475" y="433"/>
      <point x="414" y="441" type="curve"/>
    </contour>
    <contour>
      <point x="535" y="-100" type="move" name="L"/>
    </contour>
    <contour>
      <point x="960" y="1530" type="move" name="U"/>
    </contour>
  </outline>
</glyph>
<glyph name="LtnSmSharpS" format="2">
  <advance width="1218"/>
  <unicode hex="00DF"/>
  <anchor x="505" y="-100" name="L"/>
  <anchor x="968" y="1635" name="U"/>
  <outline>
    <contour>
      <point x="482" y="47" type="line"/>
      <point x="524" y="12"/>
      <point x="650" y="-25"/>
      <point x="746" y="-25" type="curve" smooth="yes"/>
      <point x="989" y="-25"/>
      <point x="1213" y="103"/>
      <point x="1213" y="350" type="curve" smooth="yes"/>
      <point x="1213" y="462"/>
      <point x="1141" y="552"/>
      <point x="1055" y="623" type="curve" smooth="yes"/>
      <point x="992" y="675"/>
      <point x="904" y="728"/>
      <point x="904" y="796" type="curve" smooth="yes"/>
      <point x="904" y="1002"/>
      <point x="1324" y="930"/>
      <point x="1324" y="1291" type="curve" smooth="yes"/>
      <point x="1324" y="1440"/>
      <point x="1204" y="1588"/>
      <point x="944" y="1588" type="curve" smooth="yes"/>
      <point x="701" y="1588"/>
      <point x="461" y="1450"/>
      <point x="373" y="1098" type="curve" smooth="yes"/>
      <point x="220" y="484" type="line" smooth="yes"/>
      <point x="173" y="294"/>
      <point x="117" y="103"/>
      <point x="70" y="0" type="curve"/>
      <point x="285" y="0" type="line"/>
      <point x="568" y="1137" type="line" smooth="yes"/>
      <point x="621" y="1349"/>
      <point x="783" y="1431"/>
      <point x="921" y="1431" type="curve" smooth="yes"/>
      <point x="1035" y="1431"/>
      <point x="1143" y="1375"/>
      <point x="1143" y="1271" type="curve" smooth="yes"/>
      <point x="1143" y="1041"/>
      <point x="719" y="1077"/>
      <point x="719" y="768" type="curve" smooth="yes"/>
      <point x="719" y="665"/>
      <point x="814" y="577"/>
      <point x="900" y="514" type="curve" smooth="yes"/>
      <point x="966" y="466"/>
      <point x="1029" y="403"/>
      <point x="1029" y="328" type="curve" smooth="yes"/>
      <point x="1029" y="193"/>
      <point x="898" y="132"/>
      <point x="785" y="132" type="curve" smooth="yes"/>
      <point x="708" y="132"/>
      <point x="611" y="176"/>
      <point x="576" y="223" type="curve"/>
    </contour>
  </outline>
</glyph>
<glyph name="LtnSmATilde.SngStory" format="1">
  <advance width="1132"/>
  <unicode hex="00E3"/>
  <outline>
    <component base="LtnSmAlpha"/>
    <component base="CombTilde" xOffset="1195"/>
    <contour>
      <point x="900" y="0" type="move" name="H"/>
    </contour>
    <contour>
      <point x="510" y="-100" type="move" name="L"/>
    </contour>
    <contour>
      <point x="1100" y="0" type="move" name="O"/>
    </contour>
    <contour>
      <point x="1340" y="1000" type="move" name="R"/>
    </contour>
    <contour>
      <point x="905" y="1475" type="move" name="U"/>
    </contour>
  </outline>
</glyph>
<glyph name="LtnSmARingAbv.SngStory" format="1">
  <advance width="1132"/>
  <unicode hex="00E5"/>
  <outline>
    <component base="LtnSmAlpha"/>
    <component base="CombRingAbv" xOffset="1195"/>
    <contour>
      <point x="900" y="0" type="move" name="H"/>
    </contour>
    <contour>
      <point x="510" y="-100" type="move" name="L"/>
    </contour>
    <contour>
      <point x="1100" y="0" type="move" name="O"/>
    </contour>
    <contour>
      <point x="1340" y="1000" type="move" name="R"/>
    </contour>
    <contour>
      <point x="974" y="1635" type="move" name="U"/>
    </contour>
  </outline>
</glyph>
<glyph name="LtnSmAe" format="1">
  <advance width="1689"/>
  <unicode hex="00E6"/>
  <outline>
    <contour>
      <point x="1614" y="270" type="line"/>
      <point x="1501" y="189"/>
      <point x="1347" y="135"/>
      <point x="1224" y="135" type="curve" smooth="yes"/>
      <point x="1053" y="135"/>
      <point x="984" y="263"/>
      <point x="984" y="420" type="curve" smooth="yes"/>
      <point x="984" y="437"/>
      <point x="985" y="454"/>
      <point x="987" y="471" type="curve"/>
      <point x="1079" y="459"/>
      <point x="1154" y="453"/>
      <point x="1226" y="453" type="curve" smooth="yes"/>
      <point x="1588" y="453"/>
      <point x="1724" y="609"/>
      <point x="1724" y="791" type="curve" smooth="yes"/>
      <point x="1724" y="899"/>
      <point x="1633" y="1020"/>
      <point x="1429" y="1020" type="curve" smooth="yes"/>
      <point x="1264" y="1020"/>
      <point x="1119" y="955"/>
      <point x="1011" y="854" type="curve"/>
      <point x="984" y="953"/>
      <point x="890" y="1019"/>
      <point x="731" y="1019" type="curve" smooth="yes"/>
      <point x="579" y="1019"/>
      <point x="482" y="974"/>
      <point x="369" y="931" type="curve"/>
      <point x="353" y="889"/>
      <point x="323" y="783"/>
      <point x="311" y="740" type="curve"/>
      <point x="448" y="820"/>
      <point x="540" y="862"/>
      <point x="646" y="862" type="curve" smooth="yes"/>
      <point x="778" y="862"/>
      <point x="865" y="810"/>
      <point x="865" y="718" type="curve" smooth="yes"/>
      <point x="865" y="705"/>
      <point x="864" y="691"/>
      <point x="860" y="677" type="curve" smooth="yes"/>
      <point x="847" y="622" type="line" name="hr01"/>
      <point x="805" y="619"/>
      <point x="641" y="604"/>
      <point x="571" y="598" type="curve" smooth="yes"/>
      <point x="297" y="575"/>
      <point x="102" y="415"/>
      <point x="102" y="233" type="curve" smooth="yes"/>
      <point x="102" y="103"/>
      <point x="223" y="-25"/>
      <point x="390" y="-25" type="curve" smooth="yes" name="hr02"/>
      <point x="541" y="-25"/>
      <point x="726" y="67"/>
      <point x="835" y="193" type="curve"/>
      <point x="886" y="61"/>
      <point x="1000" y="-25"/>
      <point x="1180" y="-25" type="curve" smooth="yes"/>
      <point x="1336" y="-25"/>
      <point x="1496" y="26"/>
      <point x="1602" y="83" type="curve"/>
    </contour>
    <contour>
      <point x="804" y="351" type="line"/>
      <point x="707" y="214"/>
      <point x="560" y="137"/>
      <point x="451" y="137" type="curve" smooth="yes"/>
      <point x="355" y="137"/>
      <point x="290" y="192"/>
      <point x="290" y="264" type="curve" smooth="yes"/>
      <point x="290" y="390"/>
      <point x="445" y="453"/>
      <point x="546" y="461" type="curve" smooth="yes"/>
      <point x="611" y="466"/>
      <point x="762" y="483"/>
      <point x="812" y="485" type="curve" name="hr03"/>
      <point x="806" y="447"/>
      <point x="804" y="414"/>
      <point x="804" y="380" type="curve" smooth="yes"/>
    </contour>
    <contour>
      <point x="1377" y="872" type="curve" smooth="yes"/>
      <point x="1460" y="872"/>
      <point x="1530" y="823"/>
      <point x="1530" y="753" type="curve" smooth="yes"/>
      <point x="1530" y="660"/>
      <point x="1423" y="590"/>
      <point x="1196" y="590" type="curve" smooth="yes"/>
      <point x="1142" y="590"/>
      <point x="1086" y="593"/>
      <point x="1018" y="601" type="curve"/>
      <point x="1084" y="766"/>
      <point x="1235" y="872"/>
    </contour>
    <contour>
      <point x="1145" y="0" type="move" name="H"/>
    </contour>
    <contour>
      <point x="780" y="-100" type="move" name="L"/>
    </contour>
    <contour>
      <point x="1490" y="0" type="move" name="O"/>
    </contour>
    <contour>
      <point x="1935" y="1000" type="move" name="R"/>
    </contour>
    <contour>
      <point x="1095" y="1100" type="move" name="U"/>
    </contour>
  </outline>
</glyph>
<glyph name="LtnSmCCedilla" format="1">
  <advance width="989"/>
  <unicode hex="00E7"/>
  <outline>
    <component base="LtnSmC"/>
    <component base="CombCedilla" xOffset="1010"/>
    <contour>
      <point x="360" y="-520" type="move" name="L"/>
    </contour>
    <contour>
      <point x="1210" y="1000" type="move" name="R"/>
    </contour>
    <contour>
      <point x="785" y="1100" type="move" name="U"/>
    </contour>
  </outline>
</glyph>
<glyph name="LtnSmEAcute" format="1">
  <advance width="1042"/>
  <unicode hex="00E9"/>
  <outline>
    <component base="LtnSmE"/>
    <component base="CombAcute" xOffset="1139"/>
    <contour>
      <point x="485" y="0" type="move" name="H"/>
    </contour>
    <contour>
      <point x="484" y="-100" type="move" name="L"/>
    </contour>
    <contour>
      <point x="840" y="0" type="move" name="O"/>
    </contour>
    <contour>
      <point x="1285" y="1000" type="move" name="R"/>
    </contour>
    <contour>
      <point x="918" y="1635" type="move" name="U"/>
    </contour>
  </outline>
</glyph>
<glyph name="LtnSmEDiaer" format="1">
  <advance width="1042"/>
  <unicode hex="00EB"/>
  <outline>
    <component base="LtnSmE"/>
    <component base="CombDiaer" xOffset="1134"/>
    <contour>
      <point x="485" y="0" type="move" name="H"/>
    </contour>
    <contour>
      <point x="484" y="-100" type="move" name="L"/>
    </contour>
    <contour>
      <point x="840" y="0" type="move" name="O"/>
    </contour>
    <contour>
      <point x="1285" y="1000" type="move" name="R"/>
    </contour>
    <contour>
      <point x="881" y="1505" type="move" name="U"/>
    </contour>
  </outline>
</glyph>
<glyph name="LtnSmIDiaer" format="1">
  <advance width="554"/>
  <unicode hex="00EF"/>
  <outline>
    <component base="LtnSmDotlessI"/>
    <component base="CombDiaer" xOffset="830"/>
    <contour>
      <point x="225" y="0" type="move" name="H"/>
    </contour>
    <contour>
      <point x="200" y="-100" type="move" name="L"/>
    </contour>
    <contour>
      <point x="460" y="0" type="move" name="O"/>
    </contour>
    <contour>
      <point x="740" y="1000" type="move" name="R"/>
    </contour>
    <contour>
      <point x="577" y="1505" type="move" name="U"/>
    </contour>
  </outline>
</glyph>
<glyph name="LtnSmEth" format="1">
  <advance width="1152"/>
  <unicode hex="00F0"/>
  <outline>
    <contour>
      <point x="632" y="1501" type="line" name="hr00"/>
      <point x="860" y="1366"/>
      <point x="990" y="1085"/>
      <point x="993" y="831" type="curve"/>
      <point x="930" y="925"/>
      <point x="840" y="980"/>
      <point x="699" y="980" type="curve" smooth="yes"/>
      <point x="503" y="980"/>
      <point x="240" y="830"/>
      <point x="160" y="512" type="curve" smooth="yes"/>
      <point x="148" y="463"/>
      <point x="142" y="415"/>
      <point x="142" y="369" type="curve" smooth="yes"/>
      <point x="142" y="145"/>
      <point x="294" y="-25"/>
      <point x="522" y="-25" type="curve" smooth="yes"/>
      <point x="819" y="-25"/>
      <point x="1022" y="134"/>
      <point x="1125" y="547" type="curve" smooth="yes"/>
      <point x="1149" y="644"/>
      <point x="1157" y="760"/>
      <point x="1157" y="857" type="curve" smooth="yes"/>
      <point x="1157" y="1124"/>
      <point x="1025" y="1427"/>
      <point x="811" y="1583" type="curve"/>
    </contour>
    <contour>
      <point x="345" y="512" type="curve" smooth="yes"/>
      <point x="398" y="722"/>
      <point x="522" y="823"/>
      <point x="704" y="823" type="curve" smooth="yes"/>
      <point x="835" y="823"/>
      <point x="930" y="719"/>
      <point x="930" y="577" type="curve" smooth="yes"/>
      <point x="930" y="545"/>
      <point x="926" y="512"/>
      <point x="917" y="477" type="curve" smooth="yes"/>
      <point x="865" y="269"/>
      <point x="742" y="132"/>
      <point x="561" y="132" type="curve" smooth="yes"/>
      <point x="421" y="132"/>
      <point x="330" y="240"/>
      <point x="330" y="397" type="curve" smooth="yes"/>
      <point x="330" y="433"/>
      <point x="335" y="471"/>
    </contour>
    <contour>
      <point x="1298" y="1456" type="line"/>
      <point x="1234" y="1566" type="line"/>
      <point x="555" y="1208" type="line"/>
      <point x="616" y="1096" type="line"/>
    </contour>
    <contour>
      <point x="487" y="-100" type="move" name="L"/>
    </contour>
    <contour>
      <point x="920" y="1635" type="move" name="U"/>
    </contour>
  </outline>
</glyph>
<glyph name="LtnSmOGrave" format="1">
  <advance width="1133"/>
  <unicode hex="00F2"/>
  <outline>
    <component base="LtnSmO"/>
    <component base="CombGrave" xOffset="1120"/>
    <contour>
      <point x="510" y="0" type="move" name="H"/>
    </contour>
    <contour>
      <point x="505" y="-100" type="move" name="L"/>
    </contour>
    <contour>
      <point x="800" y="0" type="move" name="O"/>
    </contour>
    <contour>
      <point x="1330" y="1000" type="move" name="R"/>
    </contour>
    <contour>
      <point x="919" y="1635" type="move" name="U"/>
    </contour>
  </outline>
</glyph>
<glyph name="LtnSmODiaer" format="1">
  <advance width="1133"/>
  <unicode hex="00F6"/>
  <outline>
    <component base="LtnSmO"/>
    <component base="CombDiaer" xOffset="1135"/>
    <contour>
      <point x="510" y="0" type="move" name="H"/>
    </contour>
    <contour>
      <point x="505" y="-100" type="move" name="L"/>
    </contour>
    <contour>
      <point x="800" y="0" type="move" name="O"/>
    </contour>
    <contour>
      <point x="1330" y="1000" type="move" name="R"/>
    </contour>
    <contour>
      <point x="882" y="1505" type="move" name="U"/>
    </contour>
  </outline>
</glyph>
<glyph name="DivSgn" format="2">
  <advance width="1180"/>
  <unicode hex="00F7"/>
  <outline>
    <contour>
      <point x="493" y="381" type="curve" smooth="yes"/>
      <point x="493" y="317"/>
      <point x="549" y="262"/>
      <point x="615" y="262" type="curve" smooth="yes"/>
      <point x="701" y="262"/>
      <point x="779" y="335"/>
      <point x="779" y="417" type="curve" smooth="yes"/>
      <point x="779" y="480"/>
      <point x="729" y="534"/>
      <point x="663" y="534" type="curve" smooth="yes"/>
      <point x="577" y="534"/>
      <point x="493" y="464"/>
    </contour>
    <contour>
      <point x="649" y="1006" type="curve" smooth="yes"/>
      <point x="649" y="943"/>
      <point x="705" y="888"/>
      <point x="771" y="888" type="curve" smooth="yes"/>
      <point x="858" y="888"/>
      <point x="936" y="962"/>
      <point x="936" y="1044" type="curve" smooth="yes"/>
      <point x="936" y="1107"/>
      <point x="885" y="1160"/>
      <point x="819" y="1160" type="curve" smooth="yes"/>
      <point x="733" y="1160"/>
      <point x="649" y="1089"/>
    </contour>
    <contour>
      <point x="253" y="637" type="line"/>
      <point x="1143" y="637" type="line"/>
      <point x="1180" y="784" type="line"/>
      <point x="290" y="784" type="line"/>
    </contour>
  </outline>
</glyph>
<glyph name="LtnSmUAcute" format="1">
  <advance width="1175"/>
  <unicode hex="00FA"/>
  <outline>
    <component base="LtnSmU"/>
    <component base="CombAcute" xOffset="1159"/>
    <contour>
      <point x="465" y="0" type="move" name="H"/>
    </contour>
    <contour>
      <point x="504" y="-100" type="move" name="L"/>
    </contour>
    <contour>
      <point x="640" y="0" type="move" name="O"/>
    </contour>
    <contour>
      <point x="1375" y="1000" type="move" name="R"/>
    </contour>
    <contour>
      <point x="938" y="1635" type="move" name="U"/>
    </contour>
  </outline>
</glyph>
<glyph name="LtnSmThorn" format="2">
  <advance width="1185"/>
  <unicode hex="00FE"/>
  <anchor x="405" y="-500" name="L"/>
  <anchor x="968" y="1635" name="U"/>
  <outline>
    <contour>
      <point x="421" y="493" type="line"/>
      <point x="558" y="717"/>
      <point x="732" y="850"/>
      <point x="840" y="850" type="curve" smooth="yes"/>
      <point x="939" y="850"/>
      <point x="990" y="763"/>
      <point x="990" y="630" type="curve" smooth="yes"/>
      <point x="990" y="491"/>
      <point x="926" y="322"/>
      <point x="815" y="220" type="curve" smooth="yes"/>
      <point x="759" y="168"/>
      <point x="693" y="135"/>
      <point x="615" y="135" type="curve" smooth="yes"/>
      <point x="523" y="135"/>
      <point x="479" y="161"/>
      <point x="365" y="255" type="curve"/>
    </contour>
    <contour>
      <point x="455" y="1570" type="line"/>
      <point x="455" y="1456"/>
      <point x="423" y="1259"/>
      <point x="385" y="1107" type="curve" smooth="yes"/>
      <point x="70" y="-175" type="line" smooth="yes"/>
      <point x="44" y="-281"/>
      <point x="20" y="-398"/>
      <point x="20" y="-480" type="curve"/>
      <point x="215" y="-480" type="line"/>
      <point x="215" y="-388"/>
      <point x="229" y="-282"/>
      <point x="255" y="-175" type="curve" smooth="yes"/>
      <point x="320" y="85" type="line"/>
      <point x="399" y="20"/>
      <point x="468" y="-25"/>
      <point x="575" y="-25" type="curve" smooth="yes"/>
      <point x="685" y="-25"/>
      <point x="797" y="9"/>
      <point x="895" y="85" type="curve" smooth="yes"/>
      <point x="1063" y="215"/>
      <point x="1185" y="438"/>
      <point x="1185" y="680" type="curve" smooth="yes"/>
      <point x="1185" y="878"/>
      <point x="1101" y="1020"/>
      <point x="920" y="1020" type="curve" smooth="yes"/>
      <point x="777" y="1020"/>
      <point x="604" y="903"/>
      <point x="483" y="752" type="curve"/>
      <point x="519" y="879"/>
      <point x="558" y="1031"/>
      <point x="575" y="1105" type="curve" smooth="yes"/>
      <point x="615" y="1279"/>
      <point x="645" y="1482"/>
      <point x="645" y="1570" type="curve"/>
    </contour>
  </outline>
</glyph>
<glyph name="LtnSmAMacron.SngStory" format="1">
  <advance width="1132"/>
  <unicode hex="0101"/>
  <outline>
    <component base="LtnSmAlpha"/>
    <component base="CombMacron" xOffset="1120"/>
    <contour>
      <point x="900" y="0" type="move" name="H"/>
    </contour>
    <contour>
      <point x="510" y="-100" type="move" name="L"/>
    </contour>
    <contour>
      <point x="1100" y="0" type="move" name="O"/>
    </contour>
    <contour>
      <point x="1340" y="1000" type="move" name="R"/>
    </contour>
    <contour>
      <point x="853" y="1450" type="move" name="U"/>
    </contour>
  </outline>
</glyph>
<glyph name="LtnCapABreve" format="1">
  <advance width="1395"/>
  <unicode hex="0102"/>
  <outline>
    <component base="LtnCapA"/>
    <component base="CombBreve" xOffset="1335" yOffset="430"/>
    <contour>
      <point x="1170" y="0" type="move" name="H"/>
    </contour>
    <contour>
      <point x="600" y="-100" type="move" name="L"/>
    </contour>
    <contour>
      <point x="1390" y="0" type="move" name="O"/>
    </contour>
    <contour>
      <point x="1114" y="2065" type="move" name="U"/>
    </contour>
  </outline>
</glyph>
<glyph name="LtnSmAOgonek.SngStory" format="1">
  <advance width="1132"/>
  <unicode hex="0105"/>
  <outline>
    <component base="LtnSmAlpha"/>
    <component base="CombOgonek" xOffset="1510"/>
    <contour>
      <point x="900" y="0" type="move" name="H"/>
    </contour>
    <contour>
      <point x="928" y="-430" type="move" name="L"/>
    </contour>
    <contour>
      <point x="1340" y="1000" type="move" name="R"/>
    </contour>
    <contour>
      <point x="810" y="1100" type="move" name="U"/>
    </contour>
  </outline>
</glyph>
<glyph name="LtnSmCAcute" format="1">
  <advance width="989"/>
  <unicode hex="0107"/>
  <outline>
    <component base="LtnSmC"/>
    <component base="CombAcute" xOffset="1140"/>
    <contour>
      <point x="520" y="0" type="move" name="H"/>
    </contour>
    <contour>
      <point x="495" y="-100" type="move" name="L"/>
    </contour>
    <contour>
      <point x="1210" y="1000" type="move" name="R"/>
    </contour>
    <contour>
      <point x="919" y="1635" type="move" name="U"/>
    </contour>
  </outline>
</glyph>
<glyph name="LtnCapCCircum" format="1">
  <advance width="1341"/>
  <unicode hex="0108"/>
  <outline>
    <component base="LtnCapC"/>
    <component base="CombCircum" xOffset="1390" yOffset="430"/>
    <contour>
      <point x="690" y="0" type="move" name="H"/>
    </contour>
    <contour>
      <point x="690" y="-100" type="move" name="L"/>
    </contour>
    <contour>
      <point x="1169" y="2065" type="move" name="U"/>
    </contour>
  </outline>
</glyph>
<glyph name="LtnSmCCircum" format="1">
  <advance width="989"/>
  <unicode hex="0109"/>
  <outline>
    <component base="LtnSmC"/>
    <component base="CombCircum" xOffset="1105"/>
    <contour>
      <point x="520" y="0" type="move" name="H"/>
    </contour>
    <contour>
      <point x="495" y="-100" type="move" name="L"/>
    </contour>
    <contour>
      <point x="1210" y="1000" type="move" name="R"/>
    </contour>
    <contour>
      <point x="884" y="1635" type="move" name="U"/>
    </contour>
  </outline>
</glyph>
<glyph name="LtnCapCDotAbv" format="1">
  <advance width="1341"/>
  <unicode hex="010A"/>
  <outline>
    <component base="LtnCapC"/>
    <component base="CombDotAbv" xOffset="1470" yOffset="430"/>
    <contour>
      <point x="690" y="0" type="move" name="H"/>
    </contour>
    <contour>
      <point x="690" y="-100" type="move" name="L"/>
    </contour>
    <contour>
      <point x="1173" y="1935" type="move" name="U"/>
    </contour>
  </outline>
</glyph>
<glyph name="LtnSmCDotAbv" format="1">
  <advance width="989"/>
  <unicode hex="010B"/>
  <outline>
    <component base="LtnSmC"/>
    <component base="CombDotAbv" xOffset="1185"/>
    <contour>
      <point x="520" y="0" type="move" name="H"/>
    </contour>
    <contour>
      <point x="495" y="-100" type="move" name="L"/>
    </contour>
    <contour>
      <point x="1210" y="1000" type="move" name="R"/>
    </contour>
    <contour>
      <point x="888" y="1505" type="move" name="U"/>
    </contour>
  </outline>
</glyph>
<glyph name="LtnCapCCaron" format="1">
  <advance width="1341"/>
  <unicode hex="010C"/>
  <outline>
    <component base="LtnCapC"/>
    <component base="CombCaron" xOffset="1390" yOffset="430"/>
    <contour>
      <point x="690" y="0" type="move" name="H"/>
    </contour>
    <contour>
      <point x="690" y="-100" type="move" name="L"/>
    </contour>
    <contour>
      <point x="1159" y="2065" type="move" name="U"/>
    </contour>
  </outline>
</glyph>
<glyph name="LtnSmCCaron" format="1">
  <advance width="989"/>
  <unicode hex="010D"/>
  <outline>
    <component base="LtnSmC"/>
    <component base="CombCaron" xOffset="1105"/>
    <contour>
      <point x="520" y="0" type="move" name="H"/>
    </contour>
    <contour>
      <point x="495" y="-100" type="move" name="L"/>
    </contour>
    <contour>
      <point x="1210" y="1000" type="move" name="R"/>
    </contour>
    <contour>
      <point x="874" y="1635" type="move" name="U"/>
    </contour>
  </outline>
</glyph>
<glyph name="LtnCapDCaron" format="1">
  <advance width="1421"/>
  <unicode hex="010E"/>
  <outline>
    <component base="LtnCapD"/>
    <component base="CombCaron" xOffset="1357" yOffset="430"/>
    <contour>
      <point x="630" y="-100" type="move" name="L"/>
    </contour>
    <contour>
      <point x="1126" y="2065" type="move" name="U"/>
    </contour>
  </outline>
</glyph>
<glyph name="LtnCapEMacron" format="1">
  <advance width="1140"/>
  <unicode hex="0112"/>
  <outline>
    <component base="LtnCapE"/>
    <component base="CombMacron" xOffset="1232" yOffset="430"/>
    <contour>
      <point x="540" y="0" type="move" name="H"/>
    </contour>
    <contour>
      <point x="515" y="-100" type="move" name="L"/>
    </contour>
    <contour>
      <point x="857" y="0" type="move" name="O"/>
    </contour>
    <contour>
      <point x="1400" y="1200" type="move" name="R"/>
    </contour>
    <contour>
      <point x="965" y="1880" type="move" name="U"/>
    </contour>
  </outline>
</glyph>
<glyph name="LtnCapEBreve" format="1">
  <advance width="1140"/>
  <unicode hex="0114"/>
  <outline>
    <component base="LtnCapE"/>
    <component base="CombBreve" xOffset="1257" yOffset="430"/>
    <contour>
      <point x="540" y="0" type="move" name="H"/>
    </contour>
    <contour>
      <point x="515" y="-100" type="move" name="L"/>
    </contour>
    <contour>
      <point x="857" y="0" type="move" name="O"/>
    </contour>
    <contour>
      <point x="1400" y="1200" type="move" name="R"/>
    </contour>
    <contour>
      <point x="1036" y="2065" type="move" name="U"/>
    </contour>
  </outline>
</glyph>
<glyph name="LtnSmEBreve" format="1">
  <advance width="1042"/>
  <unicode hex="0115"/>
  <outline>
    <component base="LtnSmE"/>
    <component base="CombBreve" xOffset="1119"/>
    <contour>
      <point x="485" y="0" type="move" name="H"/>
    </contour>
    <contour>
      <point x="484" y="-100" type="move" name="L"/>
    </contour>
    <contour>
      <point x="840" y="0" type="move" name="O"/>
    </contour>
    <contour>
      <point x="1285" y="1000" type="move" name="R"/>
    </contour>
    <contour>
      <point x="898" y="1635" type="move" name="U"/>
    </contour>
  </outline>
</glyph>
<glyph name="LtnSmEDotAbv" format="1">
  <advance width="1042"/>
  <unicode hex="0117"/>
  <outline>
    <component base="LtnSmE"/>
    <component base="CombDotAbv" xOffset="1184"/>
    <contour>
      <point x="485" y="0" type="move" name="H"/>
    </contour>
    <contour>
      <point x="484" y="-100" type="move" name="L"/>
    </contour>
    <contour>
      <point x="840" y="0" type="move" name="O"/>
    </contour>
    <contour>
      <point x="1285" y="1000" type="move" name="R"/>
    </contour>
    <contour>
      <point x="887" y="1505" type="move" name="U"/>
    </contour>
  </outline>
</glyph>
<glyph name="LtnCapEOgonek" format="1">
  <advance width="1140"/>
  <unicode hex="0118"/>
  <outline>
    <component base="LtnCapE"/>
    <component base="CombOgonek" xOffset="1267"/>
    <contour>
      <point x="540" y="0" type="move" name="H"/>
    </contour>
    <contour>
      <point x="685" y="-430" type="move" name="L"/>
    </contour>
    <contour>
      <point x="1400" y="1200" type="move" name="R"/>
    </contour>
    <contour>
      <point x="922" y="1530" type="move" name="U"/>
    </contour>
  </outline>
</glyph>
<glyph name="LtnCapGCircum" format="1">
  <advance width="1406"/>
  <unicode hex="011C"/>
  <outline>
    <component base="LtnCapG"/>
    <component base="CombCircum" xOffset="1390" yOffset="430"/>
    <contour>
      <point x="685" y="0" type="move" name="H"/>
    </contour>
    <contour>
      <point x="690" y="-100" type="move" name="L"/>
    </contour>
    <contour>
      <point x="1169" y="2065" type="move" name="U"/>
    </contour>
  </outline>
</glyph>
<glyph name="LtnSmGCircum.SngBowl" format="1">
  <advance width="1109"/>
  <unicode hex="011D"/>
  <outline>
    <component base="LtnSmG.SngBowl"/>
    <component base="CombCircum" xOffset="1130"/>
    <contour>
      <point x="400" y="-500" type="move" name="L"/>
    </contour>
    <contour>
      <point x="1315" y="1000" type="move" name="R"/>
    </contour>
    <contour>
      <point x="909" y="1635" type="move" name="U"/>
    </contour>
  </outline>
</glyph>
<glyph name="LtnCapGBreve" format="1">
  <advance width="1406"/>
  <unicode hex="011E"/>
  <outline>
    <component base="LtnCapG"/>
    <component base="CombBreve" xOffset="1405" yOffset="430"/>
    <contour>
      <point x="685" y="0" type="move" name="H"/>
    </contour>
    <contour>
      <point x="690" y="-100" type="move" name="L"/>
    </contour>
    <contour>
      <point x="1184" y="2065" type="move" name="U"/>
    </contour>
  </outline>
</glyph>
<glyph name="LtnSmGBreve.SngBowl" format="1">
  <advance width="1109"/>
  <unicode hex="011F"/>
  <outline>
    <component base="LtnSmG.SngBowl"/>
    <component base="CombBreve" xOffset="1145"/>
    <contour>
      <point x="400" y="-500" type="move" name="L"/>
    </contour>
    <contour>
      <point x="1315" y="1000" type="move" name="R"/>
    </contour>
    <contour>
      <point x="924" y="1635" type="move" name="U"/>
    </contour>
  </outline>
</glyph>
<glyph name="LtnCapGDotAbv" format="1">
  <advance width="1406"/>
  <unicode hex="0120"/>
  <outline>
    <component base="LtnCapG"/>
    <component base="CombDotAbv" xOffset="1470" yOffset="430"/>
    <contour>
      <point x="685" y="0" type="move" name="H"/>
    </contour>
    <contour>
      <point x="690" y="-100" type="move" name="L"/>
    </contour>
    <contour>
      <point x="1173" y="1935" type="move" name="U"/>
    </contour>
  </outline>
</glyph>
<glyph name="LtnSmGDotAbv.SngBowl" format="1">
  <advance width="1109"/>
  <unicode hex="0121"/>
  <outline>
    <component base="LtnSmG.SngBowl"/>
    <component base="CombDotAbv" xOffset="1210"/>
    <contour>
      <point x="400" y="-500" type="move" name="L"/>
    </contour>
    <contour>
      <point x="1315" y="1000" type="move" name="R"/>
    </contour>
    <contour>
      <point x="913" y="1505" type="move" name="U"/>
    </contour>
  </outline>
</glyph>
<glyph name="LtnSmHStrk" format="1">
  <advance width="1175"/>
  <unicode hex="0127"/>
  <outline>
    <contour>
      <point x="1045" y="0" type="line" name="hr00"/>
      <point x="1037" y="30"/>
      <point x="1033" y="65"/>
      <point x="1033" y="102" type="curve" smooth="yes"/>
      <point x="1033" y="143"/>
      <point x="1038" y="188"/>
      <point x="1045" y="238" type="curve" smooth="yes"/>
      <point x="1059" y="327"/>
      <point x="1160" y="636"/>
      <point x="1160" y="745" type="curve" smooth="yes"/>
      <point x="1160" y="917"/>
      <point x="1085" y="1020"/>
      <point x="920" y="1020" type="curve" smooth="yes"/>
      <point x="750" y="1020"/>
      <point x="581" y="877"/>
      <point x="465" y="723" type="curve"/>
      <point x="561" y="1105" type="line" smooth="yes"/>
      <point x="599" y="1259"/>
      <point x="635" y="1482"/>
      <point x="635" y="1570" type="curve"/>
      <point x="445" y="1570" type="line"/>
      <point x="445" y="1456"/>
      <point x="413" y="1257"/>
      <point x="375" y="1105" type="curve" smooth="yes"/>
      <point x="100" y="0" type="line"/>
      <point x="285" y="0" type="line"/>
      <point x="387" y="408" type="line"/>
      <point x="482" y="612"/>
      <point x="707" y="850"/>
      <point x="830" y="850" type="curve" smooth="yes"/>
      <point x="927" y="850"/>
      <point x="960" y="798"/>
      <point x="960" y="680" type="curve" smooth="yes"/>
      <point x="960" y="592"/>
      <point x="876" y="319"/>
      <point x="862" y="203" type="curve" smooth="yes"/>
      <point x="857" y="158"/>
      <point x="854" y="115"/>
      <point x="854" y="77" type="curve" smooth="yes"/>
      <point x="854" y="48"/>
      <point x="856" y="21"/>
      <point x="860" y="0" type="curve"/>
    </contour>
    <contour>
      <point x="206" y="1151" type="line"/>
      <point x="916" y="1151" type="line"/>
      <point x="950" y="1284" type="line"/>
      <point x="240" y="1284" type="line"/>
    </contour>
    <contour>
      <point x="550" y="-100" type="move" name="L"/>
    </contour>
    <contour>
      <point x="920" y="1635" type="move" name="U"/>
    </contour>
  </outline>
</glyph>
<glyph name="LtnCapITilde" format="1">
  <advance width="955"/>
  <unicode hex="0128"/>
  <outline>
    <component base="LtnCapI"/>
    <component base="CombTilde" xOffset="1184" yOffset="430"/>
    <contour>
      <point x="417" y="0" type="move" name="H"/>
    </contour>
    <contour>
      <point x="392" y="-100" type="move" name="L"/>
    </contour>
    <contour>
      <point x="613" y="0" type="move" name="O"/>
    </contour>
    <contour>
      <point x="1215" y="1200" type="move" name="R"/>
    </contour>
    <contour>
      <point x="894" y="1905" type="move" name="U"/>
    </contour>
  </outline>
</glyph>
<glyph name="LtnSmITilde" format="1">
  <advance width="554"/>
  <unicode hex="0129"/>
  <outline>
    <component base="LtnSmDotlessI"/>
    <component base="CombTilde" xOffset="865"/>
    <contour>
      <point x="225" y="0" type="move" name="H"/>
    </contour>
    <contour>
      <point x="200" y="-100" type="move" name="L"/>
    </contour>
    <contour>
      <point x="460" y="0" type="move" name="O"/>
    </contour>
    <contour>
      <point x="740" y="1000" type="move" name="R"/>
    </contour>
    <contour>
      <point x="575" y="1475" type="move" name="U"/>
    </contour>
  </outline>
</glyph>
<glyph name="LtnCapIMacron" format="1">
  <advance width="955"/>
  <unicode hex="012A"/>
  <outline>
    <component base="LtnCapI"/>
    <component base="CombMacron.Short" xOffset="1009" yOffset="430"/>
    <contour>
      <point x="417" y="0" type="move" name="H"/>
    </contour>
    <contour>
      <point x="392" y="-100" type="move" name="L"/>
    </contour>
    <contour>
      <point x="613" y="0" type="move" name="O"/>
    </contour>
    <contour>
      <point x="1215" y="1200" type="move" name="R"/>
    </contour>
    <contour>
      <point x="852" y="1880" type="move" name="U"/>
    </contour>
  </outline>
</glyph>
<glyph name="LtnSmIMacron" format="1">
  <advance width="554"/>
  <unicode hex="012B"/>
  <outline>
    <component base="LtnSmDotlessI"/>
    <component base="CombMacron.Short" xOffset="690"/>
    <contour>
      <point x="225" y="0" type="move" name="H"/>
    </contour>
    <contour>
      <point x="200" y="-100" type="move" name="L"/>
    </contour>
    <contour>
      <point x="460" y="0" type="move" name="O"/>
    </contour>
    <contour>
      <point x="740" y="1000" type="move" name="R"/>
    </contour>
    <contour>
      <point x="533" y="1450" type="move" name="U"/>
    </contour>
  </outline>
</glyph>
<glyph name="LtnSmIBreve" format="1">
  <advance width="554"/>
  <unicode hex="012D"/>
  <outline>
    <component base="LtnSmDotlessI"/>
    <component base="CombBreve" xOffset="815"/>
    <contour>
      <point x="225" y="0" type="move" name="H"/>
    </contour>
    <contour>
      <point x="200" y="-100" type="move" name="L"/>
    </contour>
    <contour>
      <point x="460" y="0" type="move" name="O"/>
    </contour>
    <contour>
      <point x="740" y="1000" type="move" name="R"/>
    </contour>
    <contour>
      <point x="594" y="1635" type="move" name="U"/>
    </contour>
  </outline>
</glyph>
<glyph name="LtnCapIOgonek" format="1">
  <advance width="955"/>
  <unicode hex="012E"/>
  <outline>
    <component base="LtnCapI"/>
    <component base="CombOgonek" xOffset="1023"/>
    <contour>
      <point x="417" y="0" type="move" name="H"/>
    </contour>
    <contour>
      <point x="441" y="-430" type="move" name="L"/>
    </contour>
    <contour>
      <point x="1215" y="1200" type="move" name="R"/>
    </contour>
    <contour>
      <point x="799" y="1530" type="move" name="U"/>
    </contour>
  </outline>
</glyph>
<glyph name="LtnSmIOgonek" format="1">
  <advance width="554"/>
  <unicode hex="012F"/>
  <outline>
    <component base="LtnSmI"/>
    <component base="CombOgonek" xOffset="865"/>
    <contour>
      <point x="235" y="0" type="move" name="H"/>
    </contour>
    <contour>
      <point x="283" y="-430" type="move" name="L"/>
    </contour>
    <contour>
      <point x="745" y="1000" type="move" name="R"/>
    </contour>
    <contour>
      <point x="472" y="1100" type="move" name="U"/>
    </contour>
  </outline>
</glyph>
<glyph name="LtnCapIDotAbv" format="1">
  <advance width="955"/>
  <unicode hex="0130"/>
  <outline>
    <component base="LtnCapI"/>
    <component base="CombDotAbv" xOffset="1199" yOffset="430"/>
    <contour>
      <point x="417" y="0" type="move" name="H"/>
    </contour>
    <contour>
      <point x="392" y="-100" type="move" name="L"/>
    </contour>
    <contour>
      <point x="613" y="0" type="move" name="O"/>
    </contour>
    <contour>
      <point x="1215" y="1200" type="move" name="R"/>
    </contour>
    <contour>
      <point x="902" y="1935" type="move" name="U"/>
    </contour>
  </outline>
</glyph>
<glyph name="LtnCapLigIj" format="1">
  <advance width="1920"/>
  <unicode hex="0132"/>
  <outline>
    <component base="LtnCapI" xOffset="-60"/>
    <component base="LtnCapJ" xOffset="915"/>
    <contour>
      <point x="417" y="0" type="move" name="H"/>
    </contour>
    <contour>
      <point x="1300" y="-100" type="move" name="L"/>
    </contour>
    <contour>
      <point x="613" y="0" type="move" name="O"/>
    </contour>
    <contour>
      <point x="1390" y="1530" type="move" name="U"/>
    </contour>
  </outline>
</glyph>
<glyph name="LtnSmLigIj" format="2">
  <advance width="1130"/>
  <unicode hex="0133"/>
  <anchor x="222" y="0" name="H"/>
  <anchor x="505" y="-500" name="L"/>
  <anchor x="440" y="0" name="O"/>
  <anchor x="896" y="1505" name="U"/>
  <outline>
    <contour>
      <point x="414" y="-465" type="curve" smooth="yes"/>
      <point x="631" y="-465"/>
      <point x="831" y="-314"/>
      <point x="924" y="66" type="curve" smooth="yes"/>
      <point x="983" y="307"/>
      <point x="1088" y="872"/>
      <point x="1088" y="1000" type="curve"/>
      <point x="898" y="1000" type="line"/>
      <point x="898" y="856"/>
      <point x="816" y="374"/>
      <point x="742" y="77" type="curve" smooth="yes"/>
      <point x="680" y="-173"/>
      <point x="557" y="-295"/>
      <point x="451" y="-295" type="curve" smooth="yes"/>
      <point x="395" y="-295"/>
      <point x="311" y="-264"/>
      <point x="275" y="-229" type="curve"/>
      <point x="200" y="-397" type="line"/>
      <point x="250" y="-437"/>
      <point x="358" y="-465"/>
    </contour>
    <contour>
      <point x="167" y="0" type="curve"/>
      <point x="367" y="0" type="line"/>
      <point x="360" y="37"/>
      <point x="355" y="85"/>
      <point x="355" y="136" type="curve" smooth="yes"/>
      <point x="355" y="208"/>
      <point x="363" y="287"/>
      <point x="381" y="357" type="curve" smooth="yes"/>
      <point x="426" y="536" type="line" smooth="yes"/>
      <point x="471" y="712"/>
      <point x="520" y="912"/>
      <point x="520" y="1000" type="curve"/>
      <point x="330" y="1000" type="line"/>
      <point x="330" y="886"/>
      <point x="281" y="688"/>
      <point x="241" y="537" type="curve" smooth="yes"/>
      <point x="202" y="388" type="line" smooth="yes"/>
      <point x="175" y="284"/>
      <point x="160" y="172"/>
      <point x="160" y="87" type="curve" smooth="yes"/>
      <point x="160" y="53"/>
      <point x="162" y="24"/>
    </contour>
    <contour>
      <point x="462" y="1186" type="curve" smooth="yes"/>
      <point x="547" y="1186"/>
      <point x="619" y="1259"/>
      <point x="619" y="1338" type="curve" smooth="yes"/>
      <point x="619" y="1399"/>
      <point x="573" y="1450"/>
      <point x="508" y="1450" type="curve" smooth="yes"/>
      <point x="423" y="1450"/>
      <point x="356" y="1375"/>
      <point x="356" y="1297" type="curve" smooth="yes"/>
      <point x="356" y="1237"/>
      <point x="399" y="1186"/>
    </contour>
    <contour>
      <point x="1031" y="1186" type="curve" smooth="yes"/>
      <point x="1116" y="1186"/>
      <point x="1188" y="1259"/>
      <point x="1188" y="1338" type="curve" smooth="yes"/>
      <point x="1188" y="1399"/>
      <point x="1142" y="1450"/>
      <point x="1077" y="1450" type="curve" smooth="yes"/>
      <point x="992" y="1450"/>
      <point x="925" y="1375"/>
      <point x="925" y="1297" type="curve" smooth="yes"/>
      <point x="925" y="1237"/>
      <point x="968" y="1186"/>
    </contour>
  </outline>
</glyph>
<glyph name="LtnCapJCircum" format="1">
  <advance width="996"/>
  <unicode hex="0134"/>
  <outline>
    <component base="LtnCapJ"/>
    <component base="CombCircum" xOffset="1317" yOffset="430"/>
    <contour>
      <point x="325" y="-100" type="move" name="L"/>
    </contour>
    <contour>
      <point x="1096" y="2065" type="move" name="U"/>
    </contour>
  </outline>
</glyph>
<glyph name="LtnCapLAcute" format="1">
  <advance width="1060"/>
  <unicode hex="0139"/>
  <outline>
    <component base="LtnCapL"/>
    <component base="CombAcute" xOffset="1270" yOffset="430"/>
    <contour>
      <point x="532" y="0" type="move" name="H"/>
    </contour>
    <contour>
      <point x="505" y="-100" type="move" name="L"/>
    </contour>
    <contour>
      <point x="780" y="1200" type="move" name="R"/>
    </contour>
    <contour>
      <point x="1049" y="2065" type="move" name="U"/>
    </contour>
  </outline>
</glyph>
<glyph name="LtnSmLAcute" format="1">
  <advance width="575"/>
  <unicode hex="013A"/>
  <outline>
    <component base="LtnSmL"/>
    <component base="CombAcute" xOffset="955" yOffset="535"/>
    <contour>
      <point x="230" y="0" type="move" name="H"/>
    </contour>
    <contour>
      <point x="255" y="-100" type="move" name="L"/>
    </contour>
    <contour>
      <point x="740" y="1000" type="move" name="R"/>
    </contour>
    <contour>
      <point x="734" y="2170" type="move" name="U"/>
    </contour>
  </outline>
</glyph>
<glyph name="LtnCapLCedilla" format="1">
  <advance width="1060"/>
  <unicode hex="013B"/>
  <outline>
    <component base="LtnCapL"/>
    <component base="CombCommaBlw" xOffset="1187"/>
    <contour>
      <point x="532" y="0" type="move" name="H"/>
    </contour>
    <contour>
      <point x="435" y="-500" type="move" name="L"/>
    </contour>
    <contour>
      <point x="780" y="1200" type="move" name="R"/>
    </contour>
    <contour>
      <point x="915" y="1530" type="move" name="U"/>
    </contour>
  </outline>
</glyph>
<glyph name="LtnSmLCedilla" format="1">
  <advance width="575"/>
  <unicode hex="013C"/>
  <outline>
    <component base="LtnSmL"/>
    <component base="CombCommaBlw" xOffset="937"/>
    <contour>
      <point x="230" y="0" type="move" name="H"/>
    </contour>
    <contour>
      <point x="185" y="-500" type="move" name="L"/>
    </contour>
    <contour>
      <point x="740" y="1000" type="move" name="R"/>
    </contour>
    <contour>
      <point x="600" y="1635" type="move" name="U"/>
    </contour>
  </outline>
</glyph>
<glyph name="LtnCapLCaron" format="1">
  <advance width="1060"/>
  <unicode hex="013D"/>
  <outline>
    <component base="LtnCapL" xOffset="-60"/>
    <component base="CombCommaAbvRt" xOffset="451" yOffset="-113"/>
    <contour>
      <point x="532" y="0" type="move" name="H"/>
    </contour>
    <contour>
      <point x="507" y="-100" type="move" name="L"/>
    </contour>
    <contour>
      <point x="700" y="1530" type="move" name="U"/>
    </contour>
  </outline>
</glyph>
<glyph name="LtnSmLCaron" format="2">
  <advance width="706"/>
  <unicode hex="013E"/>
  <anchor x="291" y="0" name="H"/>
  <anchor x="251" y="-100" name="L"/>
  <anchor x="591" y="1635" name="U"/>
  <outline>
    <contour>
      <point x="191" y="0" type="curve"/>
      <point x="391" y="0" type="line"/>
      <point x="386" y="32"/>
      <point x="384" y="70"/>
      <point x="384" y="112" type="curve" smooth="yes"/>
      <point x="384" y="230"/>
      <point x="402" y="380"/>
      <point x="436" y="517" type="curve" smooth="yes"/>
      <point x="580" y="1105" type="line" smooth="yes"/>
      <point x="623" y="1280"/>
      <point x="655" y="1482"/>
      <point x="655" y="1570" type="curve"/>
      <point x="465" y="1570" type="line"/>
      <point x="465" y="1456"/>
      <point x="434" y="1259"/>
      <point x="396" y="1107" type="curve" smooth="yes"/>
      <point x="241" y="489" type="line" smooth="yes"/>
      <point x="204" y="343"/>
      <point x="186" y="220"/>
      <point x="186" y="104" type="curve" smooth="yes"/>
      <point x="186" y="69"/>
      <point x="188" y="34"/>
    </contour>
    <contour>
      <point x="701" y="1147" type="line"/>
      <point x="831" y="1147" type="line"/>
      <point x="1056" y="1568" type="line"/>
      <point x="861" y="1568" type="line"/>
    </contour>
  </outline>
</glyph>
<glyph name="LtnCapLMiddleDot" format="2">
  <advance width="1233"/>
  <unicode hex="013F"/>
  <anchor x="532" y="0" name="H"/>
  <anchor x="513" y="-100" name="L"/>
  <anchor x="914" y="1530" name="U"/>
  <outline>
    <contour>
      <point x="345" y="162" type="line"/>
      <point x="661" y="1431" type="line"/>
      <point x="456" y="1431" type="line"/>
      <point x="451" y="1352"/>
      <point x="413" y="1198"/>
      <point x="365" y="1004" type="curve" smooth="yes"/>
      <point x="221" y="426" type="line" smooth="yes"/>
      <point x="173" y="233"/>
      <point x="134" y="78"/>
      <point x="100" y="0" type="curve"/>
      <point x="965" y="0" type="line"/>
      <point x="1008" y="176" type="line"/>
      <point x="925" y="163"/>
      <point x="766" y="162"/>
      <point x="569" y="162" type="curve" smooth="yes"/>
    </contour>
    <contour>
      <point x="1043" y="675" type="curve" smooth="yes"/>
      <point x="1043" y="615"/>
      <point x="1086" y="564"/>
      <point x="1149" y="564" type="curve" smooth="yes"/>
      <point x="1234" y="564"/>
      <point x="1306" y="637"/>
      <point x="1306" y="716" type="curve" smooth="yes"/>
      <point x="1306" y="777"/>
      <point x="1260" y="828"/>
      <point x="1195" y="828" type="curve" smooth="yes"/>
      <point x="1110" y="828"/>
      <point x="1043" y="753"/>
    </contour>
  </outline>
</glyph>
<glyph name="LtnCapLStrk" format="1">
  <advance width="1110"/>
  <unicode hex="0141"/>
  <outline>
    <contour>
      <point x="395" y="162" type="line" name="hr00"/>
      <point x="711" y="1431" type="line"/>
      <point x="506" y="1431" type="line"/>
      <point x="502" y="1352"/>
      <point x="461" y="1202"/>
      <point x="414" y="1010" type="curve" smooth="yes"/>
      <point x="271" y="426" type="line" smooth="yes"/>
      <point x="224" y="233"/>
      <point x="184" y="78"/>
      <point x="150" y="0" type="curve"/>
      <point x="1015" y="0" type="line"/>
      <point x="1058" y="176" type="line"/>
      <point x="975" y="163"/>
      <point x="816" y="162"/>
      <point x="619" y="162" type="curve" smooth="yes"/>
    </contour>
    <contour>
      <point x="941" y="911" type="line"/>
      <point x="890" y="1048" type="line"/>
      <point x="152" y="619" type="line"/>
      <point x="191" y="478" type="line"/>
    </contour>
    <contour>
      <point x="557" y="-100" type="move" name="L"/>
    </contour>
    <contour>
      <point x="964" y="1530" type="move" name="U"/>
    </contour>
  </outline>
</glyph>
<glyph name="LtnSmLStrk" format="1">
  <advance width="840"/>
  <unicode hex="0142"/>
  <outline>
    <contour>
      <point x="625" y="1570" type="line" name="hr00"/>
      <point x="625" y="1456"/>
      <point x="594" y="1259"/>
      <point x="556" y="1107" type="curve" smooth="yes"/>
      <point x="401" y="484" type="line" smooth="yes"/>
      <point x="364" y="338"/>
      <point x="346" y="220"/>
      <point x="346" y="104" type="curve" smooth="yes"/>
      <point x="346" y="69"/>
      <point x="348" y="34"/>
      <point x="351" y="0" type="curve"/>
      <point x="551" y="0" type="line"/>
      <point x="546" y="32"/>
      <point x="544" y="70"/>
      <point x="544" y="112" type="curve" smooth="yes"/>
      <point x="544" y="230"/>
      <point x="562" y="375"/>
      <point x="596" y="512" type="curve" smooth="yes"/>
      <point x="740" y="1105" type="line" smooth="yes"/>
      <point x="783" y="1280"/>
      <point x="815" y="1482"/>
      <point x="815" y="1570" type="curve"/>
    </contour>
    <contour>
      <point x="932" y="906" type="line"/>
      <point x="890" y="1048" type="line"/>
      <point x="189" y="641" type="line"/>
      <point x="230" y="500" type="line"/>
    </contour>
    <contour>
      <point x="360" y="-100" type="move" name="L"/>
    </contour>
    <contour>
      <point x="780" y="1635" type="move" name="U"/>
    </contour>
  </outline>
</glyph>
<glyph name="LtnSmNAcute" format="1">
  <advance width="1195"/>
  <unicode hex="0144"/>
  <outline>
    <component base="LtnSmN"/>
    <component base="CombAcute" xOffset="1170"/>
    <contour>
      <point x="540" y="0" type="move" name="H"/>
    </contour>
    <contour>
      <point x="565" y="-100" type="move" name="L"/>
    </contour>
    <contour>
      <point x="949" y="1635" type="move" name="U"/>
    </contour>
  </outline>
</glyph>
<glyph name="LtnCapNCedilla" format="1">
  <advance width="1480"/>
  <unicode hex="0145"/>
  <outline>
    <component base="LtnCapN"/>
    <component base="CombCommaBlw" xOffset="1334"/>
    <contour>
      <point x="1170" y="0" type="move" name="H"/>
    </contour>
    <contour>
      <point x="582" y="-500" type="move" name="L"/>
    </contour>
    <contour>
      <point x="1059" y="1530" type="move" name="U"/>
    </contour>
  </outline>
</glyph>
<glyph name="LtnSmNCedilla" format="1">
  <advance width="1195"/>
  <unicode hex="0146"/>
  <outline>
    <component base="LtnSmN"/>
    <component base="CombCommaBlw" xOffset="1247"/>
    <contour>
      <point x="540" y="0" type="move" name="H"/>
    </contour>
    <contour>
      <point x="495" y="-500" type="move" name="L"/>
    </contour>
    <contour>
      <point x="815" y="1100" type="move" name="U"/>
    </contour>
  </outline>
</glyph>
<glyph name="LtnSmNCaron" format="1">
  <advance width="1195"/>
  <unicode hex="0148"/>
  <outline>
    <component base="LtnSmN"/>
    <component base="CombCaron" xOffset="1135"/>
    <contour>
      <point x="540" y="0" type="move" name="H"/>
    </contour>
    <contour>
      <point x="565" y="-100" type="move" name="L"/>
    </contour>
    <contour>
      <point x="904" y="1635" type="move" name="U"/>
    </contour>
  </outline>
</glyph>
<glyph name="LtnCapEng" format="2">
  <advance width="1475"/>
  <unicode hex="014A"/>
  <anchor x="555" y="-500" name="L"/>
  <anchor x="1027" y="1530" name="U"/>
  <outline>
    <contour>
      <point x="728" y="-465" type="curve" smooth="yes"/>
      <point x="853" y="-465"/>
      <point x="998" y="-400"/>
      <point x="1079" y="-309" type="curve" smooth="yes"/>
      <point x="1179" y="-197"/>
      <point x="1254" y="-33"/>
      <point x="1310" y="224" type="curve" smooth="yes"/>
      <point x="1330" y="313"/>
      <point x="1475" y="912"/>
      <point x="1475" y="1082" type="curve" smooth="yes"/>
      <point x="1475" y="1339"/>
      <point x="1352" y="1455"/>
      <point x="1162" y="1455" type="curve" smooth="yes"/>
      <point x="965" y="1455"/>
      <point x="781" y="1310"/>
      <point x="572" y="1052" type="curve"/>
      <point x="598" y="1155"/>
      <point x="608" y="1274"/>
      <point x="608" y="1358" type="curve" smooth="yes"/>
      <point x="608" y="1385"/>
      <point x="607" y="1408"/>
      <point x="605" y="1426" type="curve"/>
      <point x="410" y="1426" type="line"/>
      <point x="412" y="1406"/>
      <point x="413" y="1383"/>
      <point x="413" y="1357" type="curve" smooth="yes"/>
      <point x="413" y="1209"/>
      <point x="384" y="982"/>
      <point x="354" y="862" type="curve" smooth="yes"/>
      <point x="244" y="421" type="line" smooth="yes"/>
      <point x="196" y="228"/>
      <point x="149" y="66"/>
      <point x="125" y="0" type="curve"/>
      <point x="330" y="0" type="line"/>
      <point x="509" y="719" type="line"/>
      <point x="620" y="945"/>
      <point x="907" y="1259"/>
      <point x="1068" y="1259" type="curve" smooth="yes"/>
      <point x="1199" y="1259"/>
      <point x="1272" y="1196"/>
      <point x="1272" y="1020" type="curve" smooth="yes"/>
      <point x="1272" y="848"/>
      <point x="1137" y="310"/>
      <point x="1111" y="192" type="curve" smooth="yes"/>
      <point x="1027" y="-193"/>
      <point x="861" y="-295"/>
      <point x="753" y="-295" type="curve" smooth="yes"/>
      <point x="687" y="-295"/>
      <point x="624" y="-269"/>
      <point x="594" y="-234" type="curve"/>
      <point x="485" y="-384" type="line"/>
      <point x="541" y="-434"/>
      <point x="644" y="-465"/>
    </contour>
  </outline>
</glyph>
<glyph name="LtnSmEng" format="1">
  <advance width="1195"/>
  <unicode hex="014B"/>
  <outline>
    <contour>
      <point x="295" y="1000" type="line" name="hr00"/>
      <point x="295" y="961" type="line" smooth="yes"/>
      <point x="295" y="833"/>
      <point x="283" y="679"/>
      <point x="262" y="595" type="curve" smooth="yes"/>
      <point x="115" y="0" type="line"/>
      <point x="300" y="0" type="line"/>
      <point x="392" y="370" type="line"/>
      <point x="478" y="573"/>
      <point x="708" y="850"/>
      <point x="835" y="850" type="curve" smooth="yes"/>
      <point x="927" y="850"/>
      <point x="975" y="798"/>
      <point x="975" y="680" type="curve" smooth="yes"/>
      <point x="975" y="592"/>
      <point x="882" y="187"/>
      <point x="854" y="77" type="curve" smooth="yes"/>
      <point x="792" y="-173"/>
      <point x="659" y="-295"/>
      <point x="553" y="-295" type="curve" smooth="yes"/>
      <point x="497" y="-295"/>
      <point x="413" y="-264"/>
      <point x="377" y="-229" type="curve"/>
      <point x="302" y="-397" type="line"/>
      <point x="352" y="-437"/>
      <point x="460" y="-465"/>
      <point x="516" y="-465" type="curve" smooth="yes"/>
      <point x="733" y="-465"/>
      <point x="942" y="-314"/>
      <point x="1036" y="66" type="curve" smooth="yes"/>
      <point x="1057" y="150"/>
      <point x="1175" y="636"/>
      <point x="1175" y="745" type="curve" smooth="yes"/>
      <point x="1175" y="917"/>
      <point x="1100" y="1020"/>
      <point x="935" y="1020" type="curve" smooth="yes"/>
      <point x="755" y="1020"/>
      <point x="581" y="870"/>
      <point x="445" y="672" type="curve"/>
      <point x="463" y="740"/>
      <point x="477" y="873"/>
      <point x="477" y="957" type="curve" smooth="yes"/>
      <point x="477" y="973"/>
      <point x="476" y="988"/>
      <point x="475" y="1000" type="curve"/>
    </contour>
    <contour>
      <point x="420" y="-500" type="move" name="L"/>
    </contour>
    <contour>
      <point x="820" y="1100" type="move" name="U"/>
    </contour>
  </outline>
</glyph>
<glyph name="LtnCapOMacron" format="1">
  <advance width="1447"/>
  <unicode hex="014C"/>
  <outline>
    <component base="LtnCapO"/>
    <component base="CombMacron" xOffset="1349" yOffset="430"/>
    <contour>
      <point x="657" y="0" type="move" name="H"/>
    </contour>
    <contour>
      <point x="632" y="-100" type="move" name="L"/>
    </contour>
    <contour>
      <point x="896" y="0" type="move" name="O"/>
    </contour>
    <contour>
      <point x="1700" y="1200" type="move" name="R"/>
    </contour>
    <contour>
      <point x="1082" y="1880" type="move" name="U"/>
    </contour>
  </outline>
</glyph>
<glyph name="LtnCapODblAcute" format="1">
  <advance width="1447"/>
  <unicode hex="0150"/>
  <outline>
    <component base="LtnCapO"/>
    <component base="CombDblAcute" xOffset="1439" yOffset="430"/>
    <contour>
      <point x="657" y="0" type="move" name="H"/>
    </contour>
    <contour>
      <point x="632" y="-100" type="move" name="L"/>
    </contour>
    <contour>
      <point x="896" y="0" type="move" name="O"/>
    </contour>
    <contour>
      <point x="1700" y="1200" type="move" name="R"/>
    </contour>
    <contour>
      <point x="1218" y="2065" type="move" name="U"/>
    </contour>
  </outline>
</glyph>
<glyph name="LtnSmODblAcute" format="1">
  <advance width="1133"/>
  <unicode hex="0151"/>
  <outline>
    <component base="LtnSmO"/>
    <component base="CombDblAcute" xOffset="1185"/>
    <contour>
      <point x="510" y="0" type="move" name="H"/>
    </contour>
    <contour>
      <point x="505" y="-100" type="move" name="L"/>
    </contour>
    <contour>
      <point x="800" y="0" type="move" name="O"/>
    </contour>
    <contour>
      <point x="1330" y="1000" type="move" name="R"/>
    </contour>
    <contour>
      <point x="964" y="1635" type="move" name="U"/>
    </contour>
  </outline>
</glyph>
<glyph name="LtnSmRAcute" format="1">
  <advance width="910"/>
  <unicode hex="0155"/>
  <outline>
    <component base="LtnSmR"/>
    <component base="CombAcute" xOffset="1025"/>
    <contour>
      <point x="210" y="0" type="move" name="H"/>
    </contour>
    <contour>
      <point x="220" y="-100" type="move" name="L"/>
    </contour>
    <contour>
      <point x="804" y="1635" type="move" name="U"/>
    </contour>
  </outline>
</glyph>
<glyph name="LtnCapRCedilla" format="1">
  <advance width="1295"/>
  <unicode hex="0156"/>
  <outline>
    <component base="LtnCapR"/>
    <component base="CombCommaBlw" xOffset="1207"/>
    <contour>
      <point x="590" y="0" type="move" name="H"/>
    </contour>
    <contour>
      <point x="455" y="-500" type="move" name="L"/>
    </contour>
    <contour>
      <point x="930" y="1530" type="move" name="U"/>
    </contour>
  </outline>
</glyph>
<glyph name="LtnSmRCedilla" format="1">
  <advance width="910"/>
  <unicode hex="0157"/>
  <outline>
    <component base="LtnSmR"/>
    <component base="CombCommaBlw" xOffset="902"/>
    <contour>
      <point x="210" y="0" type="move" name="H"/>
    </contour>
    <contour>
      <point x="150" y="-500" type="move" name="L"/>
    </contour>
    <contour>
      <point x="670" y="1100" type="move" name="U"/>
    </contour>
  </outline>
</glyph>
<glyph name="LtnCapRCaron" format="1">
  <advance width="1295"/>
  <unicode hex="0158"/>
  <outline>
    <component base="LtnCapR"/>
    <component base="CombCaron" xOffset="1250" yOffset="430"/>
    <contour>
      <point x="590" y="0" type="move" name="H"/>
    </contour>
    <contour>
      <point x="525" y="-100" type="move" name="L"/>
    </contour>
    <contour>
      <point x="1019" y="2065" type="move" name="U"/>
    </contour>
  </outline>
</glyph>
<glyph name="LtnSmRCaron" format="1">
  <advance width="910"/>
  <unicode hex="0159"/>
  <outline>
    <component base="LtnSmR"/>
    <component base="CombCaron" xOffset="990"/>
    <contour>
      <point x="210" y="0" type="move" name="H"/>
    </contour>
    <contour>
      <point x="220" y="-100" type="move" name="L"/>
    </contour>
    <contour>
      <point x="759" y="1635" type="move" name="U"/>
    </contour>
  </outline>
</glyph>
<glyph name="LtnSmSAcute" format="1">
  <advance width="945"/>
  <unicode hex="015B"/>
  <outline>
    <component base="LtnSmS"/>
    <component base="CombAcute" xOffset="1065"/>
    <contour>
      <point x="435" y="0" type="move" name="H"/>
    </contour>
    <contour>
      <point x="440" y="-100" type="move" name="L"/>
    </contour>
    <contour>
      <point x="844" y="1635" type="move" name="U"/>
    </contour>
  </outline>
</glyph>
<glyph name="LtnCapSCircum" format="1">
  <advance width="1155"/>
  <unicode hex="015C"/>
  <outline>
    <component base="LtnCapS"/>
    <component base="CombCircum" xOffset="1220" yOffset="430"/>
    <contour>
      <point x="520" y="0" type="move" name="H"/>
    </contour>
    <contour>
      <point x="495" y="-100" type="move" name="L"/>
    </contour>
    <contour>
      <point x="999" y="2065" type="move" name="U"/>
    </contour>
  </outline>
</glyph>
<glyph name="LtnSmSCircum" format="1">
  <advance width="945"/>
  <unicode hex="015D"/>
  <outline>
    <component base="LtnSmS"/>
    <component base="CombCircum" xOffset="1030"/>
    <contour>
      <point x="435" y="0" type="move" name="H"/>
    </contour>
    <contour>
      <point x="440" y="-100" type="move" name="L"/>
    </contour>
    <contour>
      <point x="809" y="1635" type="move" name="U"/>
    </contour>
  </outline>
</glyph>
<glyph name="LtnSmSCedilla" format="1">
  <advance width="945"/>
  <unicode hex="015F"/>
  <outline>
    <component base="LtnSmS"/>
    <component base="CombCedilla" xOffset="925"/>
    <contour>
      <point x="275" y="-520" type="move" name="L"/>
    </contour>
    <contour>
      <point x="710" y="1100" type="move" name="U"/>
    </contour>
  </outline>
</glyph>
<glyph name="LtnSmSCaron" format="1">
  <advance width="945"/>
  <unicode hex="0161"/>
  <outline>
    <component base="LtnSmS"/>
    <component base="CombCaron" xOffset="1030"/>
    <contour>
      <point x="435" y="0" type="move" name="H"/>
    </contour>
    <contour>
      <point x="440" y="-100" type="move" name="L"/>
    </contour>
    <contour>
      <point x="799" y="1635" type="move" name="U"/>
    </contour>
  </outline>
</glyph>
<glyph name="LtnCapTCedilla" format="1">
  <advance width="1245"/>
  <unicode hex="0162"/>
  <outline>
    <component base="LtnCapT"/>
    <component base="CombCedilla" xOffset="1052"/>
    <contour>
      <point x="402" y="-520" type="move" name="L"/>
    </contour>
    <contour>
      <point x="944" y="1530" type="move" name="U"/>
    </contour>
  </outline>
</glyph>
<glyph name="LtnSmTCedilla" format="1">
  <advance width="815"/>
  <unicode hex="0163"/>
  <outline>
    <component base="LtnSmT"/>
    <component base="CombCedilla" xOffset="945"/>
    <contour>
      <point x="295" y="-520" type="move" name="L"/>
    </contour>
    <contour>
      <point x="1025" y="1000" type="move" name="R"/>
    </contour>
    <contour>
      <point x="605" y="1360" type="move" name="U"/>
    </contour>
  </outline>
</glyph>
<glyph name="LtnCapTCaron" format="1">
  <advance width="1245"/>
  <unicode hex="0164"/>
  <outline>
    <component base="LtnCapT"/>
    <component base="CombCaron" xOffset="1264" yOffset="430"/>
    <contour>
      <point x="562" y="0" type="move" name="H"/>
    </contour>
    <contour>
      <point x="562" y="-100" type="move" name="L"/>
    </contour>
    <contour>
      <point x="1033" y="2065" type="move" name="U"/>
    </contour>
  </outline>
</glyph>
<glyph name="LtnSmTCaron" format="1">
  <advance width="815"/>
  <unicode hex="0165"/>
  <outline>
    <contour>
      <point x="752" y="211" type="line" name="hr00"/>
      <point x="665" y="169"/>
      <point x="593" y="134"/>
      <point x="527" y="134" type="curve" smooth="yes"/>
      <point x="448" y="134"/>
      <point x="425" y="188"/>
      <point x="425" y="247" type="curve" smooth="yes"/>
      <point x="425" y="274"/>
      <point x="429" y="301"/>
      <point x="434" y="326" type="curve" smooth="yes"/>
      <point x="470" y="519"/>
      <point x="564" y="843"/>
      <point x="677" y="1294" type="curve"/>
      <point x="492" y="1294" type="line"/>
      <point x="377" y="841"/>
      <point x="263" y="429"/>
      <point x="243" y="301" type="curve" smooth="yes"/>
      <point x="238" y="269"/>
      <point x="236" y="240"/>
      <point x="236" y="213" type="curve" smooth="yes"/>
      <point x="236" y="41"/>
      <point x="330" y="-25"/>
      <point x="465" y="-25" type="curve" smooth="yes"/>
      <point x="535" y="-25"/>
      <point x="634" y="-6"/>
      <point x="740" y="52" type="curve"/>
    </contour>
    <contour>
      <point x="177" y="833" type="line"/>
      <point x="887" y="833" type="line"/>
      <point x="923" y="975" type="line"/>
      <point x="213" y="975" type="line"/>
    </contour>
    <contour>
      <point x="965" y="1568" type="line"/>
      <point x="805" y="1147" type="line"/>
      <point x="935" y="1147" type="line"/>
      <point x="1160" y="1568" type="line"/>
    </contour>
    <contour>
      <point x="455" y="0" type="move" name="H"/>
    </contour>
    <contour>
      <point x="410" y="-100" type="move" name="L"/>
    </contour>
    <contour>
      <point x="600" y="1360" type="move" name="U"/>
    </contour>
  </outline>
</glyph>
<glyph name="LtnCapTStrk" format="1">
  <advance width="1245"/>
  <unicode hex="0166"/>
  <outline>
    <contour>
      <point x="341" y="1431" type="line" name="hr00"/>
      <point x="296" y="1249" type="line"/>
      <point x="380" y="1266"/>
      <point x="457" y="1269"/>
      <point x="546" y="1269" type="curve" smooth="yes"/>
      <point x="781" y="1269" type="line"/>
      <point x="571" y="426" type="line" smooth="yes"/>
      <point x="523" y="233"/>
      <point x="481" y="78"/>
      <point x="445" y="0" type="curve"/>
      <point x="675" y="0" type="line"/>
      <point x="677" y="78"/>
      <point x="713" y="233"/>
      <point x="761" y="426" type="curve" smooth="yes"/>
      <point x="971" y="1269" type="line"/>
      <point x="1211" y="1269" type="line" smooth="yes"/>
      <point x="1301" y="1269"/>
      <point x="1375" y="1266"/>
      <point x="1451" y="1249" type="curve"/>
      <point x="1496" y="1431" type="line"/>
    </contour>
    <contour>
      <point x="403" y="818" type="line"/>
      <point x="368" y="676" type="line"/>
      <point x="1088" y="676" type="line"/>
      <point x="1123" y="818" type="line"/>
    </contour>
    <contour>
      <point x="537" y="-100" type="move" name="L"/>
    </contour>
    <contour>
      <point x="944" y="1530" type="move" name="U"/>
    </contour>
  </outline>
</glyph>
<glyph name="LtnCapUTilde" format="1">
  <advance width="1420"/>
  <unicode hex="0168"/>
  <outline>
    <component base="LtnCapU"/>
    <component base="CombTilde" xOffset="1414" yOffset="430"/>
    <contour>
      <point x="647" y="0" type="move" name="H"/>
    </contour>
    <contour>
      <point x="622" y="-100" type="move" name="L"/>
    </contour>
    <contour>
      <point x="865" y="0" type="move" name="O"/>
    </contour>
    <contour>
      <point x="1640" y="1200" type="move" name="R"/>
    </contour>
    <contour>
      <point x="1124" y="1905" type="move" name="U"/>
    </contour>
  </outline>
</glyph>
<glyph name="LtnCapURingAbv" format="1">
  <advance width="1420"/>
  <unicode hex="016E"/>
  <outline>
    <component base="LtnCapU"/>
    <component base="CombRingAbv" xOffset="1414" yOffset="430"/>
    <contour>
      <point x="647" y="0" type="move" name="H"/>
    </contour>
    <contour>
      <point x="622" y="-100" type="move" name="L"/>
    </contour>
    <contour>
      <point x="865" y="0" type="move" name="O"/>
    </contour>
    <contour>
      <point x="1640" y="1200" type="move" name="R"/>
    </contour>
    <contour>
      <point x="1193" y="2065" type="move" name="U"/>
    </contour>
  </outline>
</glyph>
<glyph name="LtnCapUDblAcute" format="1">
  <advance width="1420"/>
  <unicode hex="0170"/>
  <outline>
    <component base="LtnCapU"/>
    <component base="CombDblAcute" xOffset="1429" yOffset="430"/>
    <contour>
      <point x="647" y="0" type="move" name="H"/>
    </contour>
    <contour>
      <point x="622" y="-100" type="move" name="L"/>
    </contour>
    <contour>
      <point x="865" y="0" type="move" name="O"/>
    </contour>
    <contour>
      <point x="1640" y="1200" type="move" name="R"/>
    </contour>
    <contour>
      <point x="1208" y="2065" type="move" name="U"/>
    </contour>
  </outline>
</glyph>
<glyph name="LtnCapUOgonek" format="1">
  <advance width="1420"/>
  <unicode hex="0172"/>
  <outline>
    <component base="LtnCapU" xOffset="-60"/>
    <component base="CombOgonek" xOffset="1198"/>
    <contour>
      <point x="647" y="0" type="move" name="H"/>
    </contour>
    <contour>
      <point x="475" y="-500" type="move" name="L"/>
    </contour>
    <contour>
      <point x="1640" y="1200" type="move" name="R"/>
    </contour>
    <contour>
      <point x="1029" y="1530" type="move" name="U"/>
    </contour>
  </outline>
</glyph>
<glyph name="LtnSmUOgonek" format="1">
  <advance width="1165"/>
  <unicode hex="0173"/>
  <outline>
    <component base="LtnSmU" xOffset="-60"/>
    <component base="CombOgonek" xOffset="1480"/>
    <contour>
      <point x="750" y="-500" type="move" name="L"/>
    </contour>
    <contour>
      <point x="804" y="1100" type="move" name="U"/>
    </contour>
  </outline>
</glyph>
<glyph name="LtnCapWCircum" format="1">
  <advance width="2060"/>
  <unicode hex="0174"/>
  <outline>
    <component base="LtnCapW"/>
    <component base="CombCircum" xOffset="1669" yOffset="430"/>
    <contour>
      <point x="942" y="-100" type="move" name="L"/>
    </contour>
    <contour>
      <point x="1448" y="2065" type="move" name="U"/>
    </contour>
  </outline>
</glyph>
<glyph name="LtnSmWCircum" format="1">
  <advance width="1555"/>
  <unicode hex="0175"/>
  <outline>
    <component base="LtnSmW"/>
    <component base="CombCircum" xOffset="1310"/>
    <contour>
      <point x="690" y="-100" type="move" name="L"/>
    </contour>
    <contour>
      <point x="1089" y="1635" type="move" name="U"/>
    </contour>
  </outline>
</glyph>
<glyph name="LtnCapYCircum" format="1">
  <advance width="1300"/>
  <unicode hex="0176"/>
  <outline>
    <component base="LtnCapY"/>
    <component base="CombCircum" xOffset="1292" yOffset="430"/>
    <contour>
      <point x="565" y="-100" type="move" name="L"/>
    </contour>
    <contour>
      <point x="1071" y="2065" type="move" name="U"/>
    </contour>
  </outline>
</glyph>
<glyph name="LtnCapYDiaer" format="1">
  <advance width="1300"/>
  <unicode hex="0178"/>
  <outline>
    <component base="LtnCapY"/>
    <component base="CombDiaer" xOffset="1322" yOffset="430"/>
    <contour>
      <point x="565" y="-100" type="move" name="L"/>
    </contour>
    <contour>
      <point x="1069" y="1935" type="move" name="U"/>
    </contour>
  </outline>
</glyph>
<glyph name="LtnCapZAcute" format="1">
  <advance width="1210"/>
  <unicode hex="0179"/>
  <outline>
    <component base="LtnCapZ"/>
    <component base="CombAcute" xOffset="1282" yOffset="430"/>
    <contour>
      <point x="570" y="-100" type="move" name="L"/>
    </contour>
    <contour>
      <point x="1061" y="2065" type="move" name="U"/>
    </contour>
  </outline>
</glyph>
<glyph name="LtnCapZCaron" format="1">
  <advance width="1210"/>
  <unicode hex="017D"/>
  <outline>
    <component base="LtnCapZ"/>
    <component base="CombCaron" xOffset="1247" yOffset="430"/>
    <contour>
      <point x="570" y="-100" type="move" name="L"/>
    </contour>
    <contour>
      <point x="1016" y="2065" type="move" name="U"/>
    </contour>
  </outline>
</glyph>
<glyph name="LtnSmLngS" format="2">
  <advance width="590"/>
  <unicode hex="017F"/>
  <anchor x="250" y="-100" name="L"/>
  <anchor x="783" y="1635" name="U"/>
  <outline>
    <contour>
      <point x="1053" y="1519" type="line"/>
      <point x="1009" y="1555"/>
      <point x="928" y="1588"/>
      <point x="850" y="1588" type="curve" smooth="yes"/>
      <point x="634" y="1588"/>
      <point x="480" y="1478"/>
      <point x="395" y="1147" type="curve" smooth="yes"/>
      <point x="350" y="972"/>
      <point x="191" y="334"/>
      <point x="170" y="0" type="curve"/>
      <point x="383" y="0" type="line"/>
      <point x="377" y="28"/>
      <point x="374" y="66"/>
      <point x="374" y="110" type="curve" smooth="yes"/>
      <point x="374" y="213"/>
      <point x="394" y="351"/>
      <point x="423" y="484" type="curve" smooth="yes"/>
      <point x="457" y="641"/>
      <point x="505" y="846"/>
      <point x="588" y="1186" type="curve" smooth="yes"/>
      <point x="629" y="1353"/>
      <point x="705" y="1421"/>
      <point x="809" y="1421" type="curve" smooth="yes"/>
      <point x="867" y="1421"/>
      <point x="935" y="1392"/>
      <point x="969" y="1362" type="curve"/>
    </contour>
  </outline>
</glyph>
<glyph name="LtnSmBBarredStem" format="1">
  <advance width="1144"/>
  <unicode hex="0180"/>
  <outline>
    <contour>
      <point x="437" y="1570" type="line" name="hr00"/>
      <point x="437" y="1456"/>
      <point x="402" y="1246"/>
      <point x="367" y="1105" type="curve" smooth="yes"/>
      <point x="110" y="85" type="line"/>
      <point x="198" y="44"/>
      <point x="355" y="-25"/>
      <point x="517" y="-25" type="curve" smooth="yes"/>
      <point x="675" y="-25"/>
      <point x="795" y="24"/>
      <point x="907" y="125" type="curve" smooth="yes"/>
      <point x="1050" y="255"/>
      <point x="1162" y="466"/>
      <point x="1162" y="695" type="curve" smooth="yes"/>
      <point x="1162" y="930"/>
      <point x="1046" y="1020"/>
      <point x="907" y="1020" type="curve" smooth="yes"/>
      <point x="754" y="1020"/>
      <point x="584" y="878"/>
      <point x="456" y="719" type="curve"/>
      <point x="552" y="1105" type="line" smooth="yes"/>
      <point x="600" y="1296"/>
      <point x="627" y="1508"/>
      <point x="627" y="1570" type="curve"/>
    </contour>
    <contour>
      <point x="382" y="429" type="line"/>
      <point x="485" y="617"/>
      <point x="708" y="850"/>
      <point x="822" y="850" type="curve" smooth="yes"/>
      <point x="913" y="850"/>
      <point x="972" y="784"/>
      <point x="972" y="635" type="curve" smooth="yes"/>
      <point x="972" y="469"/>
      <point x="909" y="336"/>
      <point x="822" y="250" type="curve" smooth="yes"/>
      <point x="741" y="169"/>
      <point x="638" y="125"/>
      <point x="552" y="125" type="curve" smooth="yes"/>
      <point x="466" y="125"/>
      <point x="376" y="167"/>
      <point x="325" y="200" type="curve"/>
    </contour>
    <contour>
      <point x="196" y="1151" type="line"/>
      <point x="906" y="1151" type="line"/>
      <point x="940" y="1284" type="line"/>
      <point x="230" y="1284" type="line"/>
    </contour>
    <contour>
      <point x="494" y="-100" type="move" name="L"/>
    </contour>
    <contour>
      <point x="927" y="1635" type="move" name="U"/>
    </contour>
  </outline>
</glyph>
<glyph name="LtnCapBHook" format="1">
  <advance width="1581"/>
  <unicode hex="0181"/>
  <outline>
    <contour>
      <point x="786" y="686" type="line"/>
      <point x="1031" y="686" type="line" smooth="yes"/>
      <point x="1202" y="686"/>
      <point x="1321" y="598"/>
      <point x="1321" y="450" type="curve" smooth="yes"/>
      <point x="1321" y="218"/>
      <point x="1116" y="147"/>
      <point x="896" y="147" type="curve" smooth="yes"/>
      <point x="784" y="147"/>
      <point x="689" y="150"/>
      <point x="652" y="152" type="curve"/>
    </contour>
    <contour>
      <point x="359" y="882" type="line"/>
      <point x="350" y="912"/>
      <point x="343" y="941"/>
      <point x="343" y="976" type="curve" smooth="yes"/>
      <point x="343" y="1001"/>
      <point x="346" y="1029"/>
      <point x="355" y="1063" type="curve" smooth="yes"/>
      <point x="391" y="1210"/>
      <point x="520" y="1289"/>
      <point x="721" y="1289" type="curve" smooth="yes"/>
      <point x="1121" y="1289" type="line" smooth="yes"/>
      <point x="1303" y="1289"/>
      <point x="1390" y="1230"/>
      <point x="1390" y="1105" type="curve" smooth="yes" name="hr01"/>
      <point x="1390" y="933"/>
      <point x="1243" y="838"/>
      <point x="1012" y="838" type="curve" smooth="yes"/>
      <point x="824" y="838" type="line"/>
      <point x="948" y="1338" type="line"/>
      <point x="758" y="1338" type="line"/>
      <point x="536" y="446" type="line" smooth="yes"/>
      <point x="488" y="252"/>
      <point x="444" y="78"/>
      <point x="410" y="0" type="curve"/>
      <point x="461" y="-5"/>
      <point x="669" y="-10"/>
      <point x="872" y="-10" type="curve" smooth="yes" name="hr02"/>
      <point x="1270" y="-10"/>
      <point x="1511" y="149"/>
      <point x="1511" y="453" type="curve" smooth="yes"/>
      <point x="1511" y="644"/>
      <point x="1377" y="736"/>
      <point x="1265" y="764" type="curve"/>
      <point x="1465" y="819"/>
      <point x="1593" y="941"/>
      <point x="1593" y="1140" type="curve" smooth="yes"/>
      <point x="1593" y="1310"/>
      <point x="1446" y="1441"/>
      <point x="1179" y="1441" type="curve" smooth="yes"/>
      <point x="809" y="1441" type="line" smooth="yes"/>
      <point x="459" y="1441"/>
      <point x="251" y="1326"/>
      <point x="183" y="1056" type="curve" smooth="yes"/>
      <point x="176" y="1027"/>
      <point x="172" y="990"/>
      <point x="172" y="954" type="curve" smooth="yes"/>
      <point x="172" y="911"/>
      <point x="177" y="869"/>
      <point x="185" y="843" type="curve"/>
    </contour>
    <contour>
      <point x="842" y="-100" type="move" name="L"/>
    </contour>
    <contour>
      <point x="1249" y="1530" type="move" name="U"/>
    </contour>
  </outline>
</glyph>
<glyph name="LtnCapBTopbar" format="1">
  <advance width="1245"/>
  <unicode hex="0182"/>
  <outline>
    <contour>
      <point x="476" y="686" type="line"/>
      <point x="661" y="686" type="line" smooth="yes"/>
      <point x="861" y="686"/>
      <point x="976" y="607"/>
      <point x="976" y="470" type="curve" smooth="yes"/>
      <point x="976" y="242"/>
      <point x="783" y="147"/>
      <point x="556" y="147" type="curve" smooth="yes"/>
      <point x="444" y="147"/>
      <point x="379" y="150"/>
      <point x="342" y="152" type="curve"/>
    </contour>
    <contour>
      <point x="1291" y="1431" type="line"/>
      <point x="456" y="1431" type="line"/>
      <point x="451" y="1352"/>
      <point x="413" y="1198"/>
      <point x="365" y="1004" type="curve" smooth="yes"/>
      <point x="226" y="446" type="line" smooth="yes"/>
      <point x="177" y="252"/>
      <point x="133" y="78"/>
      <point x="100" y="0" type="curve" name="hr01"/>
      <point x="100" y="0"/>
      <point x="319" y="-10"/>
      <point x="522" y="-10" type="curve" smooth="yes" name="hr02"/>
      <point x="929" y="-10"/>
      <point x="1171" y="187"/>
      <point x="1171" y="493" type="curve" smooth="yes"/>
      <point x="1171" y="688"/>
      <point x="1023" y="838"/>
      <point x="688" y="838" type="curve" smooth="yes"/>
      <point x="513" y="838" type="line"/>
      <point x="621" y="1269" type="line"/>
      <point x="815" y="1269" type="line" smooth="yes"/>
      <point x="1012" y="1269"/>
      <point x="1171" y="1268"/>
      <point x="1247" y="1254" type="curve"/>
    </contour>
    <contour>
      <point x="555" y="-100" type="move" name="L"/>
    </contour>
    <contour>
      <point x="910" y="1530" type="move" name="U"/>
    </contour>
  </outline>
</glyph>
<glyph name="LtnSmBTopbar" format="1">
  <advance width="1144"/>
  <unicode hex="0183"/>
  <outline>
    <contour>
      <point x="465" y="1570" type="line" name="hr00"/>
      <point x="453" y="1456"/>
      <point x="401" y="1246"/>
      <point x="366" y="1105" type="curve" smooth="yes"/>
      <point x="110" y="85" type="line"/>
      <point x="198" y="44"/>
      <point x="355" y="-25"/>
      <point x="517" y="-25" type="curve" smooth="yes"/>
      <point x="675" y="-25"/>
      <point x="795" y="24"/>
      <point x="907" y="125" type="curve" smooth="yes"/>
      <point x="1050" y="255"/>
      <point x="1162" y="466"/>
      <point x="1162" y="695" type="curve" smooth="yes"/>
      <point x="1162" y="930"/>
      <point x="1046" y="1020"/>
      <point x="907" y="1020" type="curve" smooth="yes"/>
      <point x="754" y="1020"/>
      <point x="584" y="878"/>
      <point x="456" y="719" type="curve"/>
      <point x="665" y="1570" type="line"/>
    </contour>
    <contour>
      <point x="382" y="429" type="line"/>
      <point x="485" y="617"/>
      <point x="708" y="850"/>
      <point x="822" y="850" type="curve" smooth="yes"/>
      <point x="913" y="850"/>
      <point x="972" y="784"/>
      <point x="972" y="635" type="curve" smooth="yes"/>
      <point x="972" y="469"/>
      <point x="909" y="336"/>
      <point x="822" y="250" type="curve" smooth="yes"/>
      <point x="741" y="169"/>
      <point x="638" y="125"/>
      <point x="552" y="125" type="curve" smooth="yes"/>
      <point x="466" y="125"/>
      <point x="376" y="167"/>
      <point x="325" y="200" type="curve"/>
    </contour>
    <contour>
      <point x="615" y="1570" type="line"/>
      <point x="580" y="1428" type="line"/>
      <point x="805" y="1428" type="line" smooth="yes"/>
      <point x="1002" y="1428"/>
      <point x="1160" y="1427"/>
      <point x="1236" y="1413" type="curve"/>
      <point x="1275" y="1570" type="line"/>
    </contour>
    <contour>
      <point x="515" y="-100" type="move" name="L"/>
    </contour>
    <contour>
      <point x="910" y="1635" type="move" name="U"/>
    </contour>
  </outline>
</glyph>
<glyph name="LtnCapTnSix" format="1">
  <advance width="1245"/>
  <unicode hex="0184"/>
  <outline>
    <contour>
      <point x="387" y="911" type="line"/>
      <point x="272" y="446" type="line" smooth="yes"/>
      <point x="224" y="252"/>
      <point x="180" y="78"/>
      <point x="146" y="0" type="curve"/>
      <point x="146" y="0"/>
      <point x="345" y="-10"/>
      <point x="548" y="-10" type="curve" smooth="yes" name="hr01"/>
      <point x="991" y="-10"/>
      <point x="1216" y="190"/>
      <point x="1216" y="504" type="curve" smooth="yes"/>
      <point x="1216" y="693"/>
      <point x="1083" y="838"/>
      <point x="754" y="838" type="curve" smooth="yes"/>
      <point x="559" y="838" type="line"/>
      <point x="707" y="1431" type="line"/>
      <point x="531" y="1431" type="line"/>
      <point x="464" y="1275"/>
      <point x="351" y="1147"/>
      <point x="214" y="1019" type="curve"/>
    </contour>
    <contour>
      <point x="522" y="686" type="line"/>
      <point x="717" y="686" type="line" smooth="yes"/>
      <point x="914" y="686"/>
      <point x="1016" y="601"/>
      <point x="1016" y="466" type="curve" smooth="yes"/>
      <point x="1016" y="211"/>
      <point x="807" y="147"/>
      <point x="592" y="147" type="curve" smooth="yes"/>
      <point x="480" y="147"/>
      <point x="425" y="150"/>
      <point x="388" y="152" type="curve"/>
    </contour>
    <contour>
      <point x="525" y="-100" type="move" name="L"/>
    </contour>
    <contour>
      <point x="932" y="1530" type="move" name="U"/>
    </contour>
  </outline>
</glyph>
<glyph name="LtnSmTnSix" format="1">
  <advance width="1170"/>
  <unicode hex="0185"/>
  <outline>
    <contour>
      <point x="408" y="429" type="line"/>
      <point x="511" y="617"/>
      <point x="734" y="850"/>
      <point x="848" y="850" type="curve" smooth="yes"/>
      <point x="939" y="850"/>
      <point x="998" y="784"/>
      <point x="998" y="635" type="curve" smooth="yes"/>
      <point x="998" y="469"/>
      <point x="935" y="336"/>
      <point x="848" y="250" type="curve" smooth="yes"/>
      <point x="767" y="169"/>
      <point x="664" y="125"/>
      <point x="578" y="125" type="curve" smooth="yes"/>
      <point x="492" y="125"/>
      <point x="402" y="167"/>
      <point x="351" y="200" type="curve"/>
    </contour>
    <contour>
      <point x="525" y="1570" type="line"/>
      <point x="455" y="1411"/>
      <point x="358" y="1292"/>
      <point x="218" y="1156" type="curve"/>
      <point x="385" y="1063" type="line"/>
      <point x="136" y="85" type="line"/>
      <point x="224" y="44"/>
      <point x="381" y="-25"/>
      <point x="543" y="-25" type="curve" smooth="yes" name="hr01"/>
      <point x="701" y="-25"/>
      <point x="821" y="24"/>
      <point x="933" y="125" type="curve" smooth="yes"/>
      <point x="1076" y="255"/>
      <point x="1188" y="466"/>
      <point x="1188" y="695" type="curve" smooth="yes"/>
      <point x="1188" y="930"/>
      <point x="1072" y="1020"/>
      <point x="933" y="1020" type="curve" smooth="yes"/>
      <point x="780" y="1020"/>
      <point x="610" y="878"/>
      <point x="482" y="719" type="curve"/>
      <point x="695" y="1570" type="line"/>
    </contour>
    <contour>
      <point x="540" y="-100" type="move" name="L"/>
    </contour>
    <contour>
      <point x="973" y="1635" type="move" name="U"/>
    </contour>
  </outline>
</glyph>
<glyph name="LtnCapOpnO" format="1">
  <advance width="1235"/>
  <unicode hex="0186"/>
  <outline>
    <contour>
      <point x="80" y="184" type="line" name="hr00"/>
      <point x="140" y="69"/>
      <point x="332" y="-25"/>
      <point x="503" y="-25" type="curve" smooth="yes"/>
      <point x="963" y="-25"/>
      <point x="1280" y="372"/>
      <point x="1280" y="916" type="curve" smooth="yes"/>
      <point x="1280" y="1249"/>
      <point x="1072" y="1455"/>
      <point x="802" y="1455" type="curve" smooth="yes"/>
      <point x="629" y="1455"/>
      <point x="462" y="1393"/>
      <point x="341" y="1289" type="curve"/>
      <point x="328" y="1078" type="line"/>
      <point x="461" y="1206"/>
      <point x="611" y="1284"/>
      <point x="760" y="1284" type="curve" smooth="yes"/>
      <point x="970" y="1284"/>
      <point x="1079" y="1108"/>
      <point x="1079" y="875" type="curve" smooth="yes"/>
      <point x="1079" y="542"/>
      <point x="876" y="147"/>
      <point x="556" y="147" type="curve" smooth="yes"/>
      <point x="405" y="147"/>
      <point x="273" y="216"/>
      <point x="223" y="344" type="curve"/>
    </contour>
    <contour>
      <point x="515" y="-100" type="move" name="L"/>
    </contour>
    <contour>
      <point x="922" y="1530" type="move" name="U"/>
    </contour>
  </outline>
</glyph>
<glyph name="LtnCapCHook" format="2">
  <advance width="1341"/>
  <unicode hex="0187"/>
  <anchor x="690" y="-100" name="L"/>
  <anchor x="1070" y="1530" name="U"/>
  <outline>
    <contour>
      <point x="709" y="-25" type="curve" smooth="yes"/>
      <point x="896" y="-25"/>
      <point x="1087" y="21"/>
      <point x="1230" y="127" type="curve"/>
      <point x="1237" y="318" type="line"/>
      <point x="1115" y="222"/>
      <point x="934" y="147"/>
      <point x="752" y="147" type="curve" smooth="yes"/>
      <point x="537" y="147"/>
      <point x="385" y="304"/>
      <point x="385" y="532" type="curve" smooth="yes"/>
      <point x="385" y="964"/>
      <point x="684" y="1289"/>
      <point x="1017" y="1289" type="curve" smooth="yes"/>
      <point x="1148" y="1289"/>
      <point x="1313" y="1235"/>
      <point x="1386" y="1168" type="curve"/>
      <point x="1430" y="1347" type="line"/>
      <point x="1360" y="1407"/>
      <point x="1181" y="1455"/>
      <point x="1038" y="1455" type="curve" smooth="yes"/>
      <point x="625" y="1455"/>
      <point x="185" y="1093"/>
      <point x="185" y="513" type="curve" smooth="yes"/>
      <point x="185" y="202"/>
      <point x="381" y="-25"/>
    </contour>
    <contour>
      <point x="1406" y="1249" type="line"/>
      <point x="1454" y="1441" type="line" smooth="yes"/>
      <point x="1486" y="1569"/>
      <point x="1541" y="1646"/>
      <point x="1635" y="1646" type="curve" smooth="yes"/>
      <point x="1703" y="1646"/>
      <point x="1764" y="1624"/>
      <point x="1805" y="1588" type="curve"/>
      <point x="1881" y="1749" type="line"/>
      <point x="1829" y="1782"/>
      <point x="1755" y="1813"/>
      <point x="1657" y="1813" type="curve" smooth="yes"/>
      <point x="1475" y="1813"/>
      <point x="1344" y="1711"/>
      <point x="1280" y="1445" type="curve" smooth="yes"/>
      <point x="1269" y="1401" type="line"/>
    </contour>
  </outline>
</glyph>
